<svg width="172" height="50" viewBox="0 0 172 50" fill="none" xmlns="http://www.w3.org/2000/svg">
<rect width="172" height="6" rx="3" fill="#00B31D"/>
<rect width="84" height="6" rx="3" fill="#FE0000"/>
<path d="M1.05682 30V21.2727H2.11364V29.0625H6.17045V30H1.05682ZM10.3295 30.1364C9.73864 30.1364 9.22017 29.9957 8.77415 29.7145C8.33097 29.4332 7.98438 29.0398 7.73438 28.5341C7.48722 28.0284 7.36364 27.4375 7.36364 26.7614C7.36364 26.0795 7.48722 25.4844 7.73438 24.9759C7.98438 24.4673 8.33097 24.0724 8.77415 23.7912C9.22017 23.5099 9.73864 23.3693 10.3295 23.3693C10.9205 23.3693 11.4375 23.5099 11.8807 23.7912C12.3267 24.0724 12.6733 24.4673 12.9205 24.9759C13.1705 25.4844 13.2955 26.0795 13.2955 26.7614C13.2955 27.4375 13.1705 28.0284 12.9205 28.5341C12.6733 29.0398 12.3267 29.4332 11.8807 29.7145C11.4375 29.9957 10.9205 30.1364 10.3295 30.1364ZM10.3295 29.233C10.7784 29.233 11.1477 29.1179 11.4375 28.8878C11.7273 28.6577 11.9418 28.3551 12.081 27.9801C12.2202 27.6051 12.2898 27.1989 12.2898 26.7614C12.2898 26.3239 12.2202 25.9162 12.081 25.5384C11.9418 25.1605 11.7273 24.8551 11.4375 24.6222C11.1477 24.3892 10.7784 24.2727 10.3295 24.2727C9.88068 24.2727 9.51136 24.3892 9.22159 24.6222C8.93182 24.8551 8.71733 25.1605 8.57812 25.5384C8.43892 25.9162 8.36932 26.3239 8.36932 26.7614C8.36932 27.1989 8.43892 27.6051 8.57812 27.9801C8.71733 28.3551 8.93182 28.6577 9.22159 28.8878C9.51136 29.1179 9.88068 29.233 10.3295 29.233ZM16.0909 30L14.0966 23.4545H15.1534L16.5682 28.4659H16.6364L18.0341 23.4545H19.108L20.4886 28.4489H20.5568L21.9716 23.4545H23.0284L21.0341 30H20.0455L18.6136 24.9716H18.5114L17.0795 30H16.0909ZM25.0909 30.0682C24.8807 30.0682 24.7003 29.9929 24.5497 29.8423C24.3991 29.6918 24.3239 29.5114 24.3239 29.3011C24.3239 29.0909 24.3991 28.9105 24.5497 28.7599C24.7003 28.6094 24.8807 28.5341 25.0909 28.5341C25.3011 28.5341 25.4815 28.6094 25.6321 28.7599C25.7827 28.9105 25.858 29.0909 25.858 29.3011C25.858 29.4403 25.8224 29.5682 25.7514 29.6847C25.6832 29.8011 25.5909 29.8949 25.4744 29.9659C25.3608 30.0341 25.233 30.0682 25.0909 30.0682ZM25.0909 25.2102C24.8807 25.2102 24.7003 25.1349 24.5497 24.9844C24.3991 24.8338 24.3239 24.6534 24.3239 24.4432C24.3239 24.233 24.3991 24.0526 24.5497 23.902C24.7003 23.7514 24.8807 23.6761 25.0909 23.6761C25.3011 23.6761 25.4815 23.7514 25.6321 23.902C25.7827 24.0526 25.858 24.233 25.858 24.4432C25.858 24.5824 25.8224 24.7102 25.7514 24.8267C25.6832 24.9432 25.5909 25.0369 25.4744 25.108C25.3608 25.1761 25.233 25.2102 25.0909 25.2102ZM3.47727 47.0909V36.1818H4.17614V47.0909H3.47727ZM5.82955 39.4545C5.77841 39.0227 5.57102 38.6875 5.20739 38.4489C4.84375 38.2102 4.39773 38.0909 3.86932 38.0909C3.48295 38.0909 3.14489 38.1534 2.85511 38.2784C2.56818 38.4034 2.34375 38.5753 2.18182 38.794C2.02273 39.0128 1.94318 39.2614 1.94318 39.5398C1.94318 39.7727 1.99858 39.973 2.10938 40.1406C2.22301 40.3054 2.3679 40.4432 2.54403 40.554C2.72017 40.6619 2.90483 40.7514 3.09801 40.8224C3.29119 40.8906 3.46875 40.946 3.63068 40.9886L4.51705 41.2273C4.74432 41.2869 4.99716 41.3693 5.27557 41.4744C5.55682 41.5795 5.82528 41.723 6.08097 41.9048C6.33949 42.0838 6.55256 42.3139 6.72017 42.5952C6.88778 42.8764 6.97159 43.2216 6.97159 43.6307C6.97159 44.1023 6.84801 44.5284 6.60085 44.9091C6.35653 45.2898 5.99858 45.5923 5.52699 45.8168C5.05824 46.0412 4.48864 46.1534 3.81818 46.1534C3.19318 46.1534 2.65199 46.0526 2.1946 45.8509C1.74006 45.6491 1.3821 45.3679 1.12074 45.0071C0.862216 44.6463 0.715909 44.2273 0.681818 43.75H1.77273C1.80114 44.0795 1.91193 44.3523 2.10511 44.5682C2.30114 44.7812 2.5483 44.9403 2.84659 45.0455C3.14773 45.1477 3.47159 45.1989 3.81818 45.1989C4.22159 45.1989 4.58381 45.1335 4.90483 45.0028C5.22585 44.8693 5.48011 44.6847 5.66761 44.4489C5.85511 44.2102 5.94886 43.9318 5.94886 43.6136C5.94886 43.3239 5.8679 43.0881 5.70597 42.9062C5.54403 42.7244 5.33097 42.5767 5.06676 42.4631C4.80256 42.3494 4.51705 42.25 4.21023 42.1648L3.13636 41.858C2.45455 41.6619 1.91477 41.3821 1.51705 41.0185C1.11932 40.6548 0.920455 40.179 0.920455 39.5909C0.920455 39.1023 1.05256 38.6761 1.31676 38.3125C1.58381 37.946 1.94176 37.6619 2.39062 37.4602C2.84233 37.2557 3.34659 37.1534 3.90341 37.1534C4.46591 37.1534 4.96591 37.2543 5.40341 37.456C5.84091 37.6548 6.1875 37.9276 6.44318 38.2741C6.7017 38.6207 6.83807 39.0142 6.85227 39.4545H5.82955ZM11.4535 46.1193C11.0955 46.1136 10.7376 46.0455 10.3796 45.9148C10.0217 45.7841 9.69496 45.5639 9.3995 45.2543C9.10405 44.9418 8.86683 44.5199 8.68786 43.9886C8.50888 43.4545 8.41939 42.7841 8.41939 41.9773C8.41939 41.2045 8.49183 40.5199 8.63672 39.9233C8.78161 39.3239 8.99183 38.8196 9.2674 38.4105C9.54297 37.9986 9.87536 37.6861 10.2646 37.473C10.6566 37.2599 11.0984 37.1534 11.5898 37.1534C12.0785 37.1534 12.5131 37.2514 12.8938 37.4474C13.2773 37.6406 13.5898 37.9105 13.8313 38.2571C14.0728 38.6037 14.229 39.0028 14.3001 39.4545H13.2603C13.1637 39.0625 12.9762 38.7372 12.6978 38.4787C12.4194 38.2202 12.0501 38.0909 11.5898 38.0909C10.9137 38.0909 10.381 38.3849 9.99183 38.973C9.60547 39.5611 9.41087 40.3864 9.40803 41.4489H9.47621C9.6353 41.2074 9.82422 41.0014 10.043 40.831C10.2646 40.6577 10.5089 40.5241 10.7759 40.4304C11.043 40.3366 11.3256 40.2898 11.6239 40.2898C12.1239 40.2898 12.5813 40.4148 12.9961 40.6648C13.4109 40.9119 13.7433 41.2543 13.9933 41.6918C14.2433 42.1264 14.3683 42.625 14.3683 43.1875C14.3683 43.7273 14.2475 44.2216 14.006 44.6705C13.7646 45.1165 13.4251 45.4716 12.9876 45.7358C12.5529 45.9972 12.0415 46.125 11.4535 46.1193ZM11.4535 45.1818C11.8114 45.1818 12.1325 45.0923 12.4165 44.9134C12.7035 44.7344 12.9293 44.4943 13.0941 44.1932C13.2617 43.892 13.3455 43.5568 13.3455 43.1875C13.3455 42.8267 13.2646 42.4986 13.1026 42.2031C12.9435 41.9048 12.7234 41.6676 12.4421 41.4915C12.1637 41.3153 11.8455 41.2273 11.4876 41.2273C11.2177 41.2273 10.9663 41.2812 10.7333 41.3892C10.5004 41.4943 10.2958 41.6392 10.1197 41.8239C9.94638 42.0085 9.81001 42.2202 9.71058 42.4588C9.61115 42.6946 9.56143 42.9432 9.56143 43.2045C9.56143 43.5511 9.6424 43.875 9.80433 44.1761C9.96911 44.4773 10.1935 44.7202 10.4776 44.9048C10.7646 45.0895 11.0898 45.1818 11.4535 45.1818ZM16.044 46V45.233L18.9247 42.0795C19.2628 41.7102 19.5412 41.3892 19.7599 41.1165C19.9787 40.8409 20.1406 40.5824 20.2457 40.3409C20.3537 40.0966 20.4077 39.8409 20.4077 39.5739C20.4077 39.267 20.3338 39.0014 20.1861 38.777C20.0412 38.5526 19.8423 38.3793 19.5895 38.2571C19.3366 38.1349 19.0526 38.0739 18.7372 38.0739C18.402 38.0739 18.1094 38.1435 17.8594 38.2827C17.6122 38.419 17.4205 38.6108 17.2841 38.858C17.1506 39.1051 17.0838 39.3949 17.0838 39.7273H16.0781C16.0781 39.2159 16.196 38.767 16.4318 38.3807C16.6676 37.9943 16.9886 37.6932 17.3949 37.4773C17.804 37.2614 18.2628 37.1534 18.7713 37.1534C19.2827 37.1534 19.7358 37.2614 20.1307 37.4773C20.5256 37.6932 20.8352 37.9844 21.0597 38.3509C21.2841 38.7173 21.3963 39.125 21.3963 39.5739C21.3963 39.8949 21.3381 40.2088 21.2216 40.5156C21.108 40.8196 20.9091 41.1591 20.625 41.5341C20.3438 41.9062 19.9531 42.3608 19.4531 42.8977L17.4929 44.9943V45.0625H21.5497V46H16.044ZM24.8267 44.8068L24.7585 45.267C24.7102 45.5909 24.6364 45.9375 24.5369 46.3068C24.4403 46.6761 24.3395 47.0241 24.2344 47.3509C24.1293 47.6776 24.0426 47.9375 23.9744 48.1307H23.2074C23.2443 47.9489 23.2926 47.7088 23.3523 47.4105C23.4119 47.1122 23.4716 46.7784 23.5312 46.4091C23.5938 46.0426 23.6449 45.6676 23.6847 45.2841L23.7358 44.8068H24.8267ZM26.6729 46V45.233L29.5536 42.0795C29.8917 41.7102 30.1701 41.3892 30.3888 41.1165C30.6076 40.8409 30.7695 40.5824 30.8746 40.3409C30.9826 40.0966 31.0366 39.8409 31.0366 39.5739C31.0366 39.267 30.9627 39.0014 30.815 38.777C30.6701 38.5526 30.4712 38.3793 30.2184 38.2571C29.9656 38.1349 29.6815 38.0739 29.3661 38.0739C29.0309 38.0739 28.7383 38.1435 28.4883 38.2827C28.2411 38.419 28.0494 38.6108 27.913 38.858C27.7795 39.1051 27.7127 39.3949 27.7127 39.7273H26.707C26.707 39.2159 26.8249 38.767 27.0607 38.3807C27.2965 37.9943 27.6175 37.6932 28.0238 37.4773C28.4329 37.2614 28.8917 37.1534 29.4002 37.1534C29.9116 37.1534 30.3647 37.2614 30.7596 37.4773C31.1545 37.6932 31.4641 37.9844 31.6886 38.3509C31.913 38.7173 32.0252 39.125 32.0252 39.5739C32.0252 39.8949 31.967 40.2088 31.8505 40.5156C31.7369 40.8196 31.538 41.1591 31.2539 41.5341C30.9727 41.9062 30.582 42.3608 30.082 42.8977L28.1218 44.9943V45.0625H32.1786V46H26.6729ZM36.734 46.1193C36.1488 46.1193 35.6317 46.0156 35.1829 45.8082C34.7369 45.598 34.3888 45.3097 34.1388 44.9432C33.8888 44.5739 33.7653 44.1534 33.7681 43.6818C33.7653 43.3125 33.8377 42.9716 33.9854 42.6591C34.1332 42.3437 34.3349 42.081 34.5906 41.8707C34.8491 41.6577 35.1374 41.5227 35.4556 41.4659V41.4148C35.038 41.3068 34.7056 41.0724 34.4585 40.7116C34.2113 40.348 34.0891 39.9347 34.092 39.4716C34.0891 39.0284 34.2013 38.6321 34.4286 38.2827C34.6559 37.9332 34.9684 37.6577 35.3661 37.456C35.7667 37.2543 36.2227 37.1534 36.734 37.1534C37.2397 37.1534 37.6914 37.2543 38.0891 37.456C38.4869 37.6577 38.7994 37.9332 39.0266 38.2827C39.2567 38.6321 39.3732 39.0284 39.3761 39.4716C39.3732 39.9347 39.2468 40.348 38.9968 40.7116C38.7496 41.0724 38.4215 41.3068 38.0124 41.4148V41.4659C38.3278 41.5227 38.6119 41.6577 38.8647 41.8707C39.1175 42.081 39.3192 42.3437 39.4698 42.6591C39.6204 42.9716 39.6971 43.3125 39.6999 43.6818C39.6971 44.1534 39.5692 44.5739 39.3164 44.9432C39.0664 45.3097 38.7184 45.598 38.2724 45.8082C37.8292 46.0156 37.3164 46.1193 36.734 46.1193ZM36.734 45.1818C37.1289 45.1818 37.4698 45.1179 37.7567 44.9901C38.0437 44.8622 38.2653 44.6818 38.4215 44.4489C38.5778 44.2159 38.6573 43.9432 38.6602 43.6307C38.6573 43.3011 38.5721 43.0099 38.4045 42.7571C38.2369 42.5043 38.0082 42.3054 37.7184 42.1605C37.4315 42.0156 37.1033 41.9432 36.734 41.9432C36.3619 41.9432 36.0295 42.0156 35.7369 42.1605C35.4471 42.3054 35.2184 42.5043 35.0508 42.7571C34.886 43.0099 34.805 43.3011 34.8079 43.6307C34.805 43.9432 34.8803 44.2159 35.0337 44.4489C35.19 44.6818 35.413 44.8622 35.7028 44.9901C35.9925 45.1179 36.3363 45.1818 36.734 45.1818ZM36.734 41.0398C37.0465 41.0398 37.3235 40.9773 37.565 40.8523C37.8093 40.7273 38.0011 40.5526 38.1403 40.3281C38.2795 40.1037 38.3505 39.8409 38.3533 39.5398C38.3505 39.2443 38.2809 38.9872 38.1445 38.7685C38.0082 38.5469 37.8192 38.3764 37.5778 38.2571C37.3363 38.1349 37.055 38.0739 36.734 38.0739C36.4073 38.0739 36.1218 38.1349 35.8775 38.2571C35.6332 38.3764 35.4442 38.5469 35.3107 38.7685C35.1772 38.9872 35.1119 39.2443 35.1147 39.5398C35.1119 39.8409 35.1786 40.1037 35.315 40.3281C35.4542 40.5526 35.646 40.7273 35.8903 40.8523C36.1346 40.9773 36.4158 41.0398 36.734 41.0398ZM41.6058 46L45.5092 38.2784V38.2102H41.0092V37.2727H46.6001V38.2614L42.7138 46H41.6058ZM47.4386 46.0682C47.2283 46.0682 47.0479 45.9929 46.8974 45.8423C46.7468 45.6918 46.6715 45.5114 46.6715 45.3011C46.6715 45.0909 46.7468 44.9105 46.8974 44.7599C47.0479 44.6094 47.2283 44.5341 47.4386 44.5341C47.6488 44.5341 47.8292 44.6094 47.9798 44.7599C48.1303 44.9105 48.2056 45.0909 48.2056 45.3011C48.2056 45.4403 48.1701 45.5682 48.0991 45.6847C48.0309 45.8011 47.9386 45.8949 47.8221 45.9659C47.7085 46.0341 47.5806 46.0682 47.4386 46.0682ZM52.6896 37.1534C53.0476 37.1562 53.4055 37.2244 53.7635 37.358C54.1214 37.4915 54.4482 37.7131 54.7436 38.0227C55.0391 38.3295 55.2763 38.7486 55.4553 39.2798C55.6342 39.8111 55.7237 40.4773 55.7237 41.2784C55.7237 42.054 55.6499 42.7429 55.5021 43.3452C55.3572 43.9446 55.147 44.4503 54.8714 44.8622C54.5987 45.2741 54.2663 45.5866 53.8743 45.7997C53.4851 46.0128 53.0447 46.1193 52.5533 46.1193C52.0646 46.1193 51.6286 46.0227 51.245 45.8295C50.8643 45.6335 50.5518 45.3622 50.3075 45.0156C50.0661 44.6662 49.9112 44.2614 49.843 43.8011H50.8828C50.9766 44.2017 51.1626 44.5327 51.4411 44.794C51.7223 45.0526 52.093 45.1818 52.5533 45.1818C53.2266 45.1818 53.7578 44.8878 54.147 44.2997C54.5391 43.7116 54.7351 42.8807 54.7351 41.8068H54.6669C54.5078 42.0455 54.3189 42.2514 54.1001 42.4247C53.8814 42.598 53.6385 42.7315 53.3714 42.8253C53.1044 42.919 52.8203 42.9659 52.5192 42.9659C52.0192 42.9659 51.5604 42.8423 51.1428 42.5952C50.728 42.3452 50.3956 42.0028 50.1456 41.5682C49.8984 41.1307 49.7749 40.6307 49.7749 40.0682C49.7749 39.5341 49.8942 39.0455 50.1328 38.6023C50.3743 38.1562 50.7124 37.8011 51.147 37.5369C51.5845 37.2727 52.0987 37.1449 52.6896 37.1534ZM52.6896 38.0909C52.3317 38.0909 52.0092 38.1804 51.7223 38.3594C51.4382 38.5355 51.2124 38.7741 51.0447 39.0753C50.88 39.3736 50.7976 39.7045 50.7976 40.0682C50.7976 40.4318 50.8771 40.7628 51.0362 41.0611C51.1982 41.3565 51.4183 41.5923 51.6967 41.7685C51.978 41.9418 52.2976 42.0284 52.6555 42.0284C52.9254 42.0284 53.1768 41.9759 53.4098 41.8707C53.6428 41.7628 53.8459 41.6165 54.0192 41.4318C54.1953 41.2443 54.3331 41.0327 54.4325 40.7969C54.532 40.5582 54.5817 40.3097 54.5817 40.0511C54.5817 39.7102 54.4993 39.3906 54.3345 39.0923C54.1726 38.794 53.9482 38.5526 53.6612 38.3679C53.3771 38.1832 53.0533 38.0909 52.6896 38.0909ZM57.4379 46L61.3413 38.2784V38.2102H56.8413V37.2727H62.4322V38.2614L58.5458 46H57.4379Z" fill="#888C91"/>
<path d="M109.057 30V21.2727H110.114V25.1591H114.767V21.2727H115.824V30H114.767V26.0966H110.114V30H109.057ZM117.803 30V23.4545H118.809V30H117.803ZM118.315 22.3636C118.119 22.3636 117.95 22.2969 117.808 22.1634C117.668 22.0298 117.599 21.8693 117.599 21.6818C117.599 21.4943 117.668 21.3338 117.808 21.2003C117.95 21.0668 118.119 21 118.315 21C118.511 21 118.678 21.0668 118.817 21.2003C118.96 21.3338 119.031 21.4943 119.031 21.6818C119.031 21.8693 118.96 22.0298 118.817 22.1634C118.678 22.2969 118.511 22.3636 118.315 22.3636ZM123.293 32.5909C122.807 32.5909 122.39 32.5284 122.04 32.4034C121.691 32.2812 121.4 32.1193 121.167 31.9176C120.936 31.7188 120.753 31.5057 120.617 31.2784L121.418 30.7159C121.509 30.8352 121.624 30.9716 121.763 31.125C121.902 31.2812 122.093 31.4162 122.334 31.5298C122.578 31.6463 122.898 31.7045 123.293 31.7045C123.821 31.7045 124.257 31.5767 124.601 31.321C124.945 31.0653 125.117 30.6648 125.117 30.1193V28.7898H125.032C124.958 28.9091 124.853 29.0568 124.716 29.233C124.583 29.4062 124.39 29.5611 124.137 29.6974C123.887 29.831 123.549 29.8977 123.123 29.8977C122.594 29.8977 122.12 29.7727 121.699 29.5227C121.282 29.2727 120.951 28.9091 120.706 28.4318C120.465 27.9545 120.344 27.375 120.344 26.6932C120.344 26.0227 120.462 25.4389 120.698 24.9418C120.934 24.4418 121.262 24.0554 121.682 23.7827C122.103 23.5071 122.588 23.3693 123.14 23.3693C123.566 23.3693 123.904 23.4403 124.154 23.5824C124.407 23.7216 124.6 23.8807 124.733 24.0597C124.87 24.2358 124.975 24.3807 125.049 24.4943H125.151V23.4545H126.123V30.1875C126.123 30.75 125.995 31.2074 125.739 31.5597C125.486 31.9148 125.145 32.1747 124.716 32.3395C124.29 32.5071 123.816 32.5909 123.293 32.5909ZM123.259 28.9943C123.662 28.9943 124.003 28.902 124.282 28.7173C124.56 28.5327 124.772 28.267 124.917 27.9205C125.061 27.5739 125.134 27.1591 125.134 26.6761C125.134 26.2045 125.063 25.7884 124.921 25.4276C124.779 25.0668 124.569 24.7841 124.29 24.5795C124.012 24.375 123.668 24.2727 123.259 24.2727C122.833 24.2727 122.478 24.3807 122.194 24.5966C121.912 24.8125 121.701 25.1023 121.559 25.4659C121.419 25.8295 121.35 26.233 121.35 26.6761C121.35 27.1307 121.421 27.5327 121.563 27.8821C121.708 28.2287 121.921 28.5014 122.202 28.7003C122.486 28.8963 122.838 28.9943 123.259 28.9943ZM128.969 26.0625V30H127.963V21.2727H128.969V24.4773H129.054C129.208 24.1392 129.438 23.8707 129.745 23.6719C130.054 23.4702 130.466 23.3693 130.98 23.3693C131.426 23.3693 131.817 23.4588 132.152 23.6378C132.488 23.8139 132.748 24.0852 132.932 24.4517C133.12 24.8153 133.213 25.2784 133.213 25.8409V30H132.208V25.9091C132.208 25.3892 132.073 24.9872 131.803 24.7031C131.536 24.4162 131.165 24.2727 130.691 24.2727C130.361 24.2727 130.066 24.3423 129.804 24.4815C129.546 24.6207 129.341 24.8239 129.191 25.0909C129.043 25.358 128.969 25.6818 128.969 26.0625ZM135.786 30.0682C135.576 30.0682 135.396 29.9929 135.245 29.8423C135.094 29.6918 135.019 29.5114 135.019 29.3011C135.019 29.0909 135.094 28.9105 135.245 28.7599C135.396 28.6094 135.576 28.5341 135.786 28.5341C135.996 28.5341 136.177 28.6094 136.327 28.7599C136.478 28.9105 136.553 29.0909 136.553 29.3011C136.553 29.4403 136.518 29.5682 136.447 29.6847C136.379 29.8011 136.286 29.8949 136.17 29.9659C136.056 30.0341 135.928 30.0682 135.786 30.0682ZM135.786 25.2102C135.576 25.2102 135.396 25.1349 135.245 24.9844C135.094 24.8338 135.019 24.6534 135.019 24.4432C135.019 24.233 135.094 24.0526 135.245 23.902C135.396 23.7514 135.576 23.6761 135.786 23.6761C135.996 23.6761 136.177 23.7514 136.327 23.902C136.478 24.0526 136.553 24.233 136.553 24.4432C136.553 24.5824 136.518 24.7102 136.447 24.8267C136.379 24.9432 136.286 25.0369 136.17 25.108C136.056 25.1761 135.928 25.2102 135.786 25.2102ZM111.477 47.0909V36.1818H112.176V47.0909H111.477ZM113.83 39.4545C113.778 39.0227 113.571 38.6875 113.207 38.4489C112.844 38.2102 112.398 38.0909 111.869 38.0909C111.483 38.0909 111.145 38.1534 110.855 38.2784C110.568 38.4034 110.344 38.5753 110.182 38.794C110.023 39.0128 109.943 39.2614 109.943 39.5398C109.943 39.7727 109.999 39.973 110.109 40.1406C110.223 40.3054 110.368 40.4432 110.544 40.554C110.72 40.6619 110.905 40.7514 111.098 40.8224C111.291 40.8906 111.469 40.946 111.631 40.9886L112.517 41.2273C112.744 41.2869 112.997 41.3693 113.276 41.4744C113.557 41.5795 113.825 41.723 114.081 41.9048C114.339 42.0838 114.553 42.3139 114.72 42.5952C114.888 42.8764 114.972 43.2216 114.972 43.6307C114.972 44.1023 114.848 44.5284 114.601 44.9091C114.357 45.2898 113.999 45.5923 113.527 45.8168C113.058 46.0412 112.489 46.1534 111.818 46.1534C111.193 46.1534 110.652 46.0526 110.195 45.8509C109.74 45.6491 109.382 45.3679 109.121 45.0071C108.862 44.6463 108.716 44.2273 108.682 43.75H109.773C109.801 44.0795 109.912 44.3523 110.105 44.5682C110.301 44.7812 110.548 44.9403 110.847 45.0455C111.148 45.1477 111.472 45.1989 111.818 45.1989C112.222 45.1989 112.584 45.1335 112.905 45.0028C113.226 44.8693 113.48 44.6847 113.668 44.4489C113.855 44.2102 113.949 43.9318 113.949 43.6136C113.949 43.3239 113.868 43.0881 113.706 42.9062C113.544 42.7244 113.331 42.5767 113.067 42.4631C112.803 42.3494 112.517 42.25 112.21 42.1648L111.136 41.858C110.455 41.6619 109.915 41.3821 109.517 41.0185C109.119 40.6548 108.92 40.179 108.92 39.5909C108.92 39.1023 109.053 38.6761 109.317 38.3125C109.584 37.946 109.942 37.6619 110.391 37.4602C110.842 37.2557 111.347 37.1534 111.903 37.1534C112.466 37.1534 112.966 37.2543 113.403 37.456C113.841 37.6548 114.188 37.9276 114.443 38.2741C114.702 38.6207 114.838 39.0142 114.852 39.4545H113.83ZM119.453 46.1193C119.096 46.1136 118.738 46.0455 118.38 45.9148C118.022 45.7841 117.695 45.5639 117.4 45.2543C117.104 44.9418 116.867 44.5199 116.688 43.9886C116.509 43.4545 116.419 42.7841 116.419 41.9773C116.419 41.2045 116.492 40.5199 116.637 39.9233C116.782 39.3239 116.992 38.8196 117.267 38.4105C117.543 37.9986 117.875 37.6861 118.265 37.473C118.657 37.2599 119.098 37.1534 119.59 37.1534C120.078 37.1534 120.513 37.2514 120.894 37.4474C121.277 37.6406 121.59 37.9105 121.831 38.2571C122.073 38.6037 122.229 39.0028 122.3 39.4545H121.26C121.164 39.0625 120.976 38.7372 120.698 38.4787C120.419 38.2202 120.05 38.0909 119.59 38.0909C118.914 38.0909 118.381 38.3849 117.992 38.973C117.605 39.5611 117.411 40.3864 117.408 41.4489H117.476C117.635 41.2074 117.824 41.0014 118.043 40.831C118.265 40.6577 118.509 40.5241 118.776 40.4304C119.043 40.3366 119.326 40.2898 119.624 40.2898C120.124 40.2898 120.581 40.4148 120.996 40.6648C121.411 40.9119 121.743 41.2543 121.993 41.6918C122.243 42.1264 122.368 42.625 122.368 43.1875C122.368 43.7273 122.248 44.2216 122.006 44.6705C121.765 45.1165 121.425 45.4716 120.988 45.7358C120.553 45.9972 120.042 46.125 119.453 46.1193ZM119.453 45.1818C119.811 45.1818 120.132 45.0923 120.417 44.9134C120.703 44.7344 120.929 44.4943 121.094 44.1932C121.262 43.892 121.346 43.5568 121.346 43.1875C121.346 42.8267 121.265 42.4986 121.103 42.2031C120.944 41.9048 120.723 41.6676 120.442 41.4915C120.164 41.3153 119.846 41.2273 119.488 41.2273C119.218 41.2273 118.966 41.2812 118.733 41.3892C118.5 41.4943 118.296 41.6392 118.12 41.8239C117.946 42.0085 117.81 42.2202 117.711 42.4588C117.611 42.6946 117.561 42.9432 117.561 43.2045C117.561 43.5511 117.642 43.875 117.804 44.1761C117.969 44.4773 118.194 44.7202 118.478 44.9048C118.765 45.0895 119.09 45.1818 119.453 45.1818ZM126.942 46.1193C126.584 46.1136 126.226 46.0455 125.868 45.9148C125.51 45.7841 125.183 45.5639 124.888 45.2543C124.592 44.9418 124.355 44.5199 124.176 43.9886C123.997 43.4545 123.908 42.7841 123.908 41.9773C123.908 41.2045 123.98 40.5199 124.125 39.9233C124.27 39.3239 124.48 38.8196 124.756 38.4105C125.031 37.9986 125.364 37.6861 125.753 37.473C126.145 37.2599 126.587 37.1534 127.078 37.1534C127.567 37.1534 128.001 37.2514 128.382 37.4474C128.766 37.6406 129.078 37.9105 129.32 38.2571C129.561 38.6037 129.717 39.0028 129.788 39.4545H128.749C128.652 39.0625 128.464 38.7372 128.186 38.4787C127.908 38.2202 127.538 38.0909 127.078 38.0909C126.402 38.0909 125.869 38.3849 125.48 38.973C125.094 39.5611 124.899 40.3864 124.896 41.4489H124.964C125.124 41.2074 125.312 41.0014 125.531 40.831C125.753 40.6577 125.997 40.5241 126.264 40.4304C126.531 40.3366 126.814 40.2898 127.112 40.2898C127.612 40.2898 128.07 40.4148 128.484 40.6648C128.899 40.9119 129.232 41.2543 129.482 41.6918C129.732 42.1264 129.857 42.625 129.857 43.1875C129.857 43.7273 129.736 44.2216 129.494 44.6705C129.253 45.1165 128.913 45.4716 128.476 45.7358C128.041 45.9972 127.53 46.125 126.942 46.1193ZM126.942 45.1818C127.3 45.1818 127.621 45.0923 127.905 44.9134C128.192 44.7344 128.418 44.4943 128.582 44.1932C128.75 43.892 128.834 43.5568 128.834 43.1875C128.834 42.8267 128.753 42.4986 128.591 42.2031C128.432 41.9048 128.212 41.6676 127.93 41.4915C127.652 41.3153 127.334 41.2273 126.976 41.2273C126.706 41.2273 126.455 41.2812 126.222 41.3892C125.989 41.4943 125.784 41.6392 125.608 41.8239C125.435 42.0085 125.298 42.2202 125.199 42.4588C125.099 42.6946 125.05 42.9432 125.05 43.2045C125.05 43.5511 125.131 43.875 125.293 44.1761C125.457 44.4773 125.682 44.7202 125.966 44.9048C126.253 45.0895 126.578 45.1818 126.942 45.1818ZM132.639 44.8068L132.571 45.267C132.523 45.5909 132.449 45.9375 132.349 46.3068C132.253 46.6761 132.152 47.0241 132.047 47.3509C131.942 47.6776 131.855 47.9375 131.787 48.1307H131.02C131.057 47.9489 131.105 47.7088 131.165 47.4105C131.224 47.1122 131.284 46.7784 131.344 46.4091C131.406 46.0426 131.457 45.6676 131.497 45.2841L131.548 44.8068H132.639ZM136.511 37.2727V46H135.454V38.3807H135.403L133.272 39.7955V38.7216L135.454 37.2727H136.511ZM141.799 37.1534C142.157 37.1562 142.515 37.2244 142.873 37.358C143.231 37.4915 143.558 37.7131 143.853 38.0227C144.148 38.3295 144.386 38.7486 144.565 39.2798C144.744 39.8111 144.833 40.4773 144.833 41.2784C144.833 42.054 144.759 42.7429 144.612 43.3452C144.467 43.9446 144.256 44.4503 143.981 44.8622C143.708 45.2741 143.376 45.5866 142.984 45.7997C142.594 46.0128 142.154 46.1193 141.663 46.1193C141.174 46.1193 140.738 46.0227 140.354 45.8295C139.974 45.6335 139.661 45.3622 139.417 45.0156C139.175 44.6662 139.021 44.2614 138.952 43.8011H139.992C140.086 44.2017 140.272 44.5327 140.55 44.794C140.832 45.0526 141.202 45.1818 141.663 45.1818C142.336 45.1818 142.867 44.8878 143.256 44.2997C143.648 43.7116 143.844 42.8807 143.844 41.8068H143.776C143.617 42.0455 143.428 42.2514 143.21 42.4247C142.991 42.598 142.748 42.7315 142.481 42.8253C142.214 42.919 141.93 42.9659 141.629 42.9659C141.129 42.9659 140.67 42.8423 140.252 42.5952C139.837 42.3452 139.505 42.0028 139.255 41.5682C139.008 41.1307 138.884 40.6307 138.884 40.0682C138.884 39.5341 139.004 39.0455 139.242 38.6023C139.484 38.1562 139.822 37.8011 140.256 37.5369C140.694 37.2727 141.208 37.1449 141.799 37.1534ZM141.799 38.0909C141.441 38.0909 141.119 38.1804 140.832 38.3594C140.548 38.5355 140.322 38.7741 140.154 39.0753C139.989 39.3736 139.907 39.7045 139.907 40.0682C139.907 40.4318 139.987 40.7628 140.146 41.0611C140.308 41.3565 140.528 41.5923 140.806 41.7685C141.087 41.9418 141.407 42.0284 141.765 42.0284C142.035 42.0284 142.286 41.9759 142.519 41.8707C142.752 41.7628 142.955 41.6165 143.129 41.4318C143.305 41.2443 143.442 41.0327 143.542 40.7969C143.641 40.5582 143.691 40.3097 143.691 40.0511C143.691 39.7102 143.609 39.3906 143.444 39.0923C143.282 38.794 143.058 38.5526 142.771 38.3679C142.487 38.1832 142.163 38.0909 141.799 38.0909ZM149.287 37.1534C149.645 37.1562 150.003 37.2244 150.361 37.358C150.719 37.4915 151.046 37.7131 151.341 38.0227C151.637 38.3295 151.874 38.7486 152.053 39.2798C152.232 39.8111 152.321 40.4773 152.321 41.2784C152.321 42.054 152.248 42.7429 152.1 43.3452C151.955 43.9446 151.745 44.4503 151.469 44.8622C151.196 45.2741 150.864 45.5866 150.472 45.7997C150.083 46.0128 149.642 46.1193 149.151 46.1193C148.662 46.1193 148.226 46.0227 147.843 45.8295C147.462 45.6335 147.15 45.3622 146.905 45.0156C146.664 44.6662 146.509 44.2614 146.441 43.8011H147.48C147.574 44.2017 147.76 44.5327 148.039 44.794C148.32 45.0526 148.691 45.1818 149.151 45.1818C149.824 45.1818 150.355 44.8878 150.745 44.2997C151.137 43.7116 151.333 42.8807 151.333 41.8068H151.265C151.105 42.0455 150.917 42.2514 150.698 42.4247C150.479 42.598 150.236 42.7315 149.969 42.8253C149.702 42.919 149.418 42.9659 149.117 42.9659C148.617 42.9659 148.158 42.8423 147.74 42.5952C147.326 42.3452 146.993 42.0028 146.743 41.5682C146.496 41.1307 146.373 40.6307 146.373 40.0682C146.373 39.5341 146.492 39.0455 146.73 38.6023C146.972 38.1562 147.31 37.8011 147.745 37.5369C148.182 37.2727 148.696 37.1449 149.287 37.1534ZM149.287 38.0909C148.929 38.0909 148.607 38.1804 148.32 38.3594C148.036 38.5355 147.81 38.7741 147.642 39.0753C147.478 39.3736 147.395 39.7045 147.395 40.0682C147.395 40.4318 147.475 40.7628 147.634 41.0611C147.796 41.3565 148.016 41.5923 148.294 41.7685C148.576 41.9418 148.895 42.0284 149.253 42.0284C149.523 42.0284 149.775 41.9759 150.007 41.8707C150.24 41.7628 150.444 41.6165 150.617 41.4318C150.793 41.2443 150.931 41.0327 151.03 40.7969C151.13 40.5582 151.179 40.3097 151.179 40.0511C151.179 39.7102 151.097 39.3906 150.932 39.0923C150.77 38.794 150.546 38.5526 150.259 38.3679C149.975 38.1832 149.651 38.0909 149.287 38.0909ZM154.442 46.0682C154.232 46.0682 154.052 45.9929 153.901 45.8423C153.751 45.6918 153.675 45.5114 153.675 45.3011C153.675 45.0909 153.751 44.9105 153.901 44.7599C154.052 44.6094 154.232 44.5341 154.442 44.5341C154.653 44.5341 154.833 44.6094 154.984 44.7599C155.134 44.9105 155.21 45.0909 155.21 45.3011C155.21 45.4403 155.174 45.5682 155.103 45.6847C155.035 45.8011 154.942 45.8949 154.826 45.9659C154.712 46.0341 154.585 46.0682 154.442 46.0682ZM156.793 44.2102V43.3409L160.628 37.2727H161.259V38.6193H160.832L157.935 43.2045V43.2727H163.099V44.2102H156.793ZM160.901 46V43.946V43.5412V37.2727H161.906V46H160.901ZM164.492 44.2102V43.3409L168.327 37.2727H168.958V38.6193H168.532L165.634 43.2045V43.2727H170.799V44.2102H164.492ZM168.6 46V43.946V43.5412V37.2727H169.605V46H168.6Z" fill="#888C91"/>
</svg>
