<svg width="32" height="32" viewBox="0 0 32 32" fill="none" xmlns="http://www.w3.org/2000/svg">
<path fill-rule="evenodd" clip-rule="evenodd" d="M13.2972 0.687536C14.9825 -0.229179 17.0176 -0.229179 18.7029 0.687536L28.4731 6.00205C30.2935 6.99226 31.4267 8.89867 31.4267 10.971V21.029C31.4267 23.1013 30.2935 25.0077 28.4731 25.998L18.7029 31.3125C17.0176 32.2292 14.9825 32.2292 13.2972 31.3125L3.52693 25.998C1.70651 25.0077 0.573303 23.1013 0.573303 21.029L0.573303 10.971C0.573303 8.89867 1.70651 6.99226 3.52692 6.00205L13.2972 0.687536Z" fill="#F7931A"/>
<g clip-path="url(#clip0_749_37475)">
<path d="M16 28.8002C23.0693 28.8002 28.8 23.0694 28.8 16.0002C28.8 8.93095 23.0693 3.2002 16 3.2002C8.93077 3.2002 3.20001 8.93095 3.20001 16.0002C3.20001 23.0694 8.93077 28.8002 16 28.8002Z" fill="#F7931A"/>
<path d="M21.6256 14.416C21.8768 12.7392 20.5992 11.8376 18.8536 11.236L19.42 8.964L18.0376 8.62L17.4856 10.832C17.1224 10.7408 16.7496 10.656 16.3776 10.5712L16.9336 8.3448L15.5512 8L14.9848 10.2712C14.684 10.2024 14.388 10.1352 14.1016 10.0632L14.1032 10.056L12.196 9.58L11.828 11.0568C11.828 11.0568 12.8544 11.292 12.8328 11.3064C13.3928 11.4464 13.4936 11.8168 13.4768 12.1112L12.832 14.6992C12.8704 14.7088 12.92 14.7232 12.976 14.7448L12.8296 14.7088L11.9256 18.3344C11.8568 18.504 11.6832 18.7592 11.2912 18.6624C11.3056 18.6824 10.2864 18.412 10.2864 18.412L9.59998 19.9944L11.4 20.4432C11.7344 20.5272 12.0624 20.6152 12.3848 20.6976L11.8128 22.9952L13.1944 23.3392L13.7608 21.0672C14.1384 21.1688 14.5048 21.2632 14.8632 21.3528L14.2984 23.6152L15.6808 23.9592L16.2528 21.6664C18.6112 22.1128 20.384 21.9328 21.1304 19.8C21.732 18.0832 21.1008 17.092 19.86 16.4464C20.764 16.2384 21.444 15.644 21.6256 14.416V14.416ZM18.4656 18.8464C18.0392 20.564 15.1472 19.6352 14.2096 19.4024L14.9696 16.3584C15.9072 16.5928 18.9128 17.056 18.4656 18.8464ZM18.8936 14.3912C18.504 15.9536 16.0976 15.1592 15.3176 14.9648L16.0056 12.2048C16.7856 12.3992 19.3 12.7616 18.8936 14.3912Z" fill="white"/>
</g>
<defs>
<clipPath id="clip0_749_37475">
<rect width="25.6" height="25.6" fill="white" transform="translate(3.20001 3.2002)"/>
</clipPath>
</defs>
</svg>
