<svg
              width="18"
              height="18"
              viewBox="0 0 18 18"
              fill="none"
              xmlns="http://www.w3.org/2000/svg"
            >
              <path
                d="M10.5975 8.50494C10.89 7.27494 9.81748 6.2024 8.58748 6.4949C8.00998 6.6374 7.53749 7.10992 7.39499 7.68742C7.10249 8.91742 8.17498 9.98991 9.40498 9.69741C9.98998 9.55491 10.4625 9.08244 10.5975 8.50494Z"
                stroke="white"
                stroke-width="1.5"
                stroke-linecap="round"
                stroke-linejoin="round"
              />
              <path
                d="M13.5075 12.8925C14.79 11.6925 15.5925 9.98998 15.5925 8.09248C15.5925 4.44748 12.6375 1.5 9.00003 1.5C5.36253 1.5 2.40753 4.45498 2.40753 8.09248C2.40753 9.99748 3.21753 11.715 4.51503 12.915"
                stroke="white"
                stroke-width="1.5"
                stroke-linecap="round"
                stroke-linejoin="round"
              />
              <path
                d="M6.00001 10.9126C5.31001 10.1776 4.88251 9.18759 4.88251 8.09259C4.88251 5.82009 6.72751 3.9751 9.00001 3.9751C11.2725 3.9751 13.1175 5.82009 13.1175 8.09259C13.1175 9.18759 12.69 10.1701 12 10.9126"
                stroke="white"
                stroke-width="1.5"
                stroke-linecap="round"
                stroke-linejoin="round"
              />
              <path
                d="M7.72498 12.495L6.64498 13.8375C5.78998 14.91 6.54748 16.4925 7.91998 16.4925H10.0725C11.445 16.4925 12.21 14.9025 11.3475 13.8375L10.2675 12.495C9.62248 11.6775 8.37748 11.6775 7.72498 12.495Z"
                stroke="white"
                stroke-width="1.5"
                stroke-linecap="round"
                stroke-linejoin="round"
              />
            </svg>