<svg width="160" height="161" viewBox="0 0 160 161" fill="none" xmlns="http://www.w3.org/2000/svg">
<path d="M39.1514 149.285C49.8003 155.609 61.7721 159.374 74.1238 160.284C86.4754 161.194 98.8697 159.223 110.33 154.528C121.791 149.832 132.004 142.54 140.167 133.225C148.33 123.91 154.218 112.828 157.368 100.85C160.519 88.8722 160.845 76.3265 158.322 64.2012C155.799 52.0758 150.495 40.7019 142.828 30.9753C135.16 21.2487 125.34 13.4351 114.139 8.14992C102.938 2.86473 90.6631 0.252328 78.2809 0.518473L79.1404 40.5092C85.3316 40.3762 91.469 41.6824 97.0695 44.325C102.67 46.9675 107.58 50.8744 111.414 55.7377C115.247 60.6009 117.899 66.2879 119.161 72.3506C120.423 78.4133 120.259 84.6861 118.684 90.6749C117.109 96.6638 114.165 102.205 110.084 106.863C106.002 111.52 100.895 115.166 95.1651 117.514C89.4348 119.862 83.2377 120.847 77.0619 120.392C70.8861 119.937 64.9002 118.055 59.5757 114.893L39.1514 149.285Z" fill="#2DD2CE"/>
<path d="M80 0.5C62.4138 0.5 45.3176 6.29484 31.3559 16.9882C17.3943 27.6815 7.34519 42.6773 2.76313 59.6561C-1.81892 76.6349 -0.678612 94.6505 6.00768 110.916C12.694 127.182 24.5536 140.791 39.7522 149.638L59.8761 115.069C52.2768 110.645 46.347 103.841 43.0038 95.708C39.6607 87.5752 39.0905 78.5675 41.3816 70.0781C43.6726 61.5887 48.6971 54.0907 55.678 48.7441C62.6588 43.3974 71.2069 40.5 80 40.5V0.5Z" fill="#FE0FE2"/>
</svg>
