<svg width="335" height="177" viewBox="0 0 335 177" fill="none" xmlns="http://www.w3.org/2000/svg">
<path d="M4.76938 164.202V172.929H3.71257V165.31H3.66143L1.53075 166.725V165.651L3.71257 164.202H4.76938ZM10.8459 173.049C10.2039 173.049 9.657 172.874 9.20529 172.524C8.75359 172.172 8.40842 171.662 8.16978 170.995C7.93115 170.324 7.81183 169.514 7.81183 168.566C7.81183 167.622 7.93115 166.817 8.16978 166.149C8.41126 165.479 8.75785 164.968 9.20955 164.615C9.6641 164.26 10.2096 164.083 10.8459 164.083C11.4823 164.083 12.0263 164.26 12.478 164.615C12.9326 164.968 13.2792 165.479 13.5178 166.149C13.7593 166.817 13.88 167.622 13.88 168.566C13.88 169.514 13.7607 170.324 13.5221 170.995C13.2834 171.662 12.9382 172.172 12.4865 172.524C12.0348 172.874 11.488 173.049 10.8459 173.049ZM10.8459 172.111C11.4823 172.111 11.9766 171.804 12.3289 171.191C12.6811 170.577 12.8573 169.702 12.8573 168.566C12.8573 167.81 12.7763 167.166 12.6144 166.635C12.4553 166.104 12.2252 165.699 11.924 165.421C11.6257 165.142 11.2664 165.003 10.8459 165.003C10.2152 165.003 9.72234 165.314 9.36722 165.936C9.01211 166.556 8.83455 167.432 8.83455 168.566C8.83455 169.321 8.9141 169.963 9.07319 170.492C9.23228 171.02 9.46097 171.422 9.75927 171.698C10.0604 171.973 10.4226 172.111 10.8459 172.111ZM16.9693 171.813C16.7591 171.813 16.5787 171.737 16.4281 171.587C16.2776 171.436 16.2023 171.256 16.2023 171.046C16.2023 170.835 16.2776 170.655 16.4281 170.504C16.5787 170.354 16.7591 170.279 16.9693 170.279C17.1796 170.279 17.36 170.354 17.5105 170.504C17.6611 170.655 17.7364 170.835 17.7364 171.046C17.7364 171.185 17.7009 171.313 17.6298 171.429C17.5617 171.546 17.4693 171.639 17.3528 171.71C17.2392 171.779 17.1114 171.813 16.9693 171.813ZM16.9693 167.398C16.7591 167.398 16.5787 167.323 16.4281 167.172C16.2776 167.022 16.2023 166.841 16.2023 166.631C16.2023 166.421 16.2776 166.24 16.4281 166.09C16.5787 165.939 16.7591 165.864 16.9693 165.864C17.1796 165.864 17.36 165.939 17.5105 166.09C17.6611 166.24 17.7364 166.421 17.7364 166.631C17.7364 166.77 17.7009 166.898 17.6298 167.014C17.5617 167.131 17.4693 167.225 17.3528 167.296C17.2392 167.364 17.1114 167.398 16.9693 167.398ZM23.0906 173.049C22.4486 173.049 21.9017 172.874 21.45 172.524C20.9983 172.172 20.6531 171.662 20.4145 170.995C20.1758 170.324 20.0565 169.514 20.0565 168.566C20.0565 167.622 20.1758 166.817 20.4145 166.149C20.6559 165.479 21.0025 164.968 21.4542 164.615C21.9088 164.26 22.4542 164.083 23.0906 164.083C23.727 164.083 24.271 164.26 24.7227 164.615C25.1773 164.968 25.5238 165.479 25.7625 166.149C26.004 166.817 26.1247 167.622 26.1247 168.566C26.1247 169.514 26.0054 170.324 25.7667 170.995C25.5281 171.662 25.1829 172.172 24.7312 172.524C24.2795 172.874 23.7327 173.049 23.0906 173.049ZM23.0906 172.111C23.727 172.111 24.2213 171.804 24.5736 171.191C24.9258 170.577 25.102 169.702 25.102 168.566C25.102 167.81 25.021 167.166 24.8591 166.635C24.7 166.104 24.4699 165.699 24.1687 165.421C23.8704 165.142 23.5111 165.003 23.0906 165.003C22.4599 165.003 21.967 165.314 21.6119 165.936C21.2568 166.556 21.0792 167.432 21.0792 168.566C21.0792 169.321 21.1588 169.963 21.3179 170.492C21.477 171.02 21.7057 171.422 22.004 171.698C22.3051 171.973 22.6673 172.111 23.0906 172.111ZM31.3106 173.049C30.6686 173.049 30.1217 172.874 29.67 172.524C29.2183 172.172 28.8731 171.662 28.6345 170.995C28.3958 170.324 28.2765 169.514 28.2765 168.566C28.2765 167.622 28.3958 166.817 28.6345 166.149C28.8759 165.479 29.2225 164.968 29.6742 164.615C30.1288 164.26 30.6742 164.083 31.3106 164.083C31.947 164.083 32.491 164.26 32.9427 164.615C33.3973 164.968 33.7438 165.479 33.9825 166.149C34.224 166.817 34.3447 167.622 34.3447 168.566C34.3447 169.514 34.2254 170.324 33.9867 170.995C33.7481 171.662 33.4029 172.172 32.9512 172.524C32.4995 172.874 31.9527 173.049 31.3106 173.049ZM31.3106 172.111C31.947 172.111 32.4413 171.804 32.7936 171.191C33.1458 170.577 33.322 169.702 33.322 168.566C33.322 167.81 33.241 167.166 33.0791 166.635C32.92 166.104 32.6899 165.699 32.3887 165.421C32.0904 165.142 31.7311 165.003 31.3106 165.003C30.6799 165.003 30.187 165.314 29.8319 165.936C29.4768 166.556 29.2992 167.432 29.2992 168.566C29.2992 169.321 29.3788 169.963 29.5379 170.492C29.697 171.02 29.9257 171.422 30.224 171.698C30.5251 171.973 30.8873 172.111 31.3106 172.111Z" fill="#615E83"/>
<path d="M79.2069 164.202V172.929H78.1501V165.31H78.0989L75.9682 166.725V165.651L78.1501 164.202H79.2069ZM82.4368 172.929V172.162L85.3175 169.009C85.6556 168.639 85.934 168.318 86.1527 168.046C86.3715 167.77 86.5334 167.512 86.6385 167.27C86.7465 167.026 86.8005 166.77 86.8005 166.503C86.8005 166.196 86.7266 165.931 86.5789 165.706C86.434 165.482 86.2351 165.308 85.9823 165.186C85.7294 165.064 85.4453 165.003 85.13 165.003C84.7948 165.003 84.5022 165.073 84.2522 165.212C84.005 165.348 83.8132 165.54 83.6769 165.787C83.5434 166.034 83.4766 166.324 83.4766 166.656H82.4709C82.4709 166.145 82.5888 165.696 82.8246 165.31C83.0604 164.924 83.3814 164.622 83.7877 164.406C84.1968 164.191 84.6556 164.083 85.1641 164.083C85.6755 164.083 86.1286 164.191 86.5235 164.406C86.9184 164.622 87.228 164.914 87.4525 165.28C87.6769 165.647 87.7891 166.054 87.7891 166.503C87.7891 166.824 87.7309 167.138 87.6144 167.445C87.5007 167.749 87.3019 168.088 87.0178 168.463C86.7365 168.835 86.3459 169.29 85.8459 169.827L83.8857 171.924V171.992H87.9425V172.929H82.4368ZM91.1725 171.813C90.9622 171.813 90.7818 171.737 90.6313 171.587C90.4807 171.436 90.4054 171.256 90.4054 171.046C90.4054 170.835 90.4807 170.655 90.6313 170.504C90.7818 170.354 90.9622 170.279 91.1725 170.279C91.3827 170.279 91.5631 170.354 91.7136 170.504C91.8642 170.655 91.9395 170.835 91.9395 171.046C91.9395 171.185 91.904 171.313 91.833 171.429C91.7648 171.546 91.6725 171.639 91.556 171.71C91.4423 171.779 91.3145 171.813 91.1725 171.813ZM91.1725 167.398C90.9622 167.398 90.7818 167.323 90.6313 167.172C90.4807 167.022 90.4054 166.841 90.4054 166.631C90.4054 166.421 90.4807 166.24 90.6313 166.09C90.7818 165.939 90.9622 165.864 91.1725 165.864C91.3827 165.864 91.5631 165.939 91.7136 166.09C91.8642 166.24 91.9395 166.421 91.9395 166.631C91.9395 166.77 91.904 166.898 91.833 167.014C91.7648 167.131 91.6725 167.225 91.556 167.296C91.4423 167.364 91.3145 167.398 91.1725 167.398ZM97.2937 173.049C96.6517 173.049 96.1048 172.874 95.6531 172.524C95.2014 172.172 94.8562 171.662 94.6176 170.995C94.379 170.324 94.2596 169.514 94.2596 168.566C94.2596 167.622 94.379 166.817 94.6176 166.149C94.8591 165.479 95.2057 164.968 95.6574 164.615C96.1119 164.26 96.6574 164.083 97.2937 164.083C97.9301 164.083 98.4741 164.26 98.9258 164.615C99.3804 164.968 99.727 165.479 99.9656 166.149C100.207 166.817 100.328 167.622 100.328 168.566C100.328 169.514 100.209 170.324 99.9699 170.995C99.7312 171.662 99.3861 172.172 98.9344 172.524C98.4827 172.874 97.9358 173.049 97.2937 173.049ZM97.2937 172.111C97.9301 172.111 98.4244 171.804 98.7767 171.191C99.129 170.577 99.3051 169.702 99.3051 168.566C99.3051 167.81 99.2241 167.166 99.0622 166.635C98.9031 166.104 98.673 165.699 98.3719 165.421C98.0736 165.142 97.7142 165.003 97.2937 165.003C96.663 165.003 96.1702 165.314 95.815 165.936C95.4599 166.556 95.2824 167.432 95.2824 168.566C95.2824 169.321 95.3619 169.963 95.521 170.492C95.6801 171.02 95.9088 171.422 96.2071 171.698C96.5082 171.973 96.8704 172.111 97.2937 172.111ZM105.514 173.049C104.872 173.049 104.325 172.874 103.873 172.524C103.421 172.172 103.076 171.662 102.838 170.995C102.599 170.324 102.48 169.514 102.48 168.566C102.48 167.622 102.599 166.817 102.838 166.149C103.079 165.479 103.426 164.968 103.877 164.615C104.332 164.26 104.877 164.083 105.514 164.083C106.15 164.083 106.694 164.26 107.146 164.615C107.6 164.968 107.947 165.479 108.186 166.149C108.427 166.817 108.548 167.622 108.548 168.566C108.548 169.514 108.429 170.324 108.19 170.995C107.951 171.662 107.606 172.172 107.154 172.524C106.703 172.874 106.156 173.049 105.514 173.049ZM105.514 172.111C106.15 172.111 106.644 171.804 106.997 171.191C107.349 170.577 107.525 169.702 107.525 168.566C107.525 167.81 107.444 167.166 107.282 166.635C107.123 166.104 106.893 165.699 106.592 165.421C106.294 165.142 105.934 165.003 105.514 165.003C104.883 165.003 104.39 165.314 104.035 165.936C103.68 166.556 103.502 167.432 103.502 168.566C103.502 169.321 103.582 169.963 103.741 170.492C103.9 171.02 104.129 171.422 104.427 171.698C104.728 171.973 105.09 172.111 105.514 172.111Z" fill="#615E83"/>
<path d="M154.31 164.202V172.929H153.254V165.31H153.202L151.072 166.725V165.651L153.254 164.202H154.31ZM157.336 171.139V170.27L161.171 164.202H161.802V165.549H161.376L158.478 170.134V170.202H163.643V171.139H157.336ZM161.444 172.929V170.875V170.47V164.202H162.449V172.929H161.444ZM166.71 171.813C166.499 171.813 166.319 171.737 166.168 171.587C166.018 171.436 165.943 171.256 165.943 171.046C165.943 170.835 166.018 170.655 166.168 170.504C166.319 170.354 166.499 170.279 166.71 170.279C166.92 170.279 167.1 170.354 167.251 170.504C167.401 170.655 167.477 170.835 167.477 171.046C167.477 171.185 167.441 171.313 167.37 171.429C167.302 171.546 167.21 171.639 167.093 171.71C166.979 171.779 166.852 171.813 166.71 171.813ZM166.71 167.398C166.499 167.398 166.319 167.323 166.168 167.172C166.018 167.022 165.943 166.841 165.943 166.631C165.943 166.421 166.018 166.24 166.168 166.09C166.319 165.939 166.499 165.864 166.71 165.864C166.92 165.864 167.1 165.939 167.251 166.09C167.401 166.24 167.477 166.421 167.477 166.631C167.477 166.77 167.441 166.898 167.37 167.014C167.302 167.131 167.21 167.225 167.093 167.296C166.979 167.364 166.852 167.398 166.71 167.398ZM172.831 173.049C172.189 173.049 171.642 172.874 171.19 172.524C170.739 172.172 170.393 171.662 170.155 170.995C169.916 170.324 169.797 169.514 169.797 168.566C169.797 167.622 169.916 166.817 170.155 166.149C170.396 165.479 170.743 164.968 171.194 164.615C171.649 164.26 172.194 164.083 172.831 164.083C173.467 164.083 174.011 164.26 174.463 164.615C174.917 164.968 175.264 165.479 175.503 166.149C175.744 166.817 175.865 167.622 175.865 168.566C175.865 169.514 175.746 170.324 175.507 170.995C175.268 171.662 174.923 172.172 174.471 172.524C174.02 172.874 173.473 173.049 172.831 173.049ZM172.831 172.111C173.467 172.111 173.962 171.804 174.314 171.191C174.666 170.577 174.842 169.702 174.842 168.566C174.842 167.81 174.761 167.166 174.599 166.635C174.44 166.104 174.21 165.699 173.909 165.421C173.611 165.142 173.251 165.003 172.831 165.003C172.2 165.003 171.707 165.314 171.352 165.936C170.997 166.556 170.819 167.432 170.819 168.566C170.819 169.321 170.899 169.963 171.058 170.492C171.217 171.02 171.446 171.422 171.744 171.698C172.045 171.973 172.408 172.111 172.831 172.111ZM181.051 173.049C180.409 173.049 179.862 172.874 179.41 172.524C178.959 172.172 178.613 171.662 178.375 170.995C178.136 170.324 178.017 169.514 178.017 168.566C178.017 167.622 178.136 166.817 178.375 166.149C178.616 165.479 178.963 164.968 179.414 164.615C179.869 164.26 180.414 164.083 181.051 164.083C181.687 164.083 182.231 164.26 182.683 164.615C183.137 164.968 183.484 165.479 183.723 166.149C183.964 166.817 184.085 167.622 184.085 168.566C184.085 169.514 183.966 170.324 183.727 170.995C183.488 171.662 183.143 172.172 182.691 172.524C182.24 172.874 181.693 173.049 181.051 173.049ZM181.051 172.111C181.687 172.111 182.182 171.804 182.534 171.191C182.886 170.577 183.062 169.702 183.062 168.566C183.062 167.81 182.981 167.166 182.819 166.635C182.66 166.104 182.43 165.699 182.129 165.421C181.831 165.142 181.471 165.003 181.051 165.003C180.42 165.003 179.927 165.314 179.572 165.936C179.217 166.556 179.039 167.432 179.039 168.566C179.039 169.321 179.119 169.963 179.278 170.492C179.437 171.02 179.666 171.422 179.964 171.698C180.265 171.973 180.628 172.111 181.051 172.111Z" fill="#615E83"/>
<path d="M228.473 164.202V172.929H227.416V165.31H227.365L225.234 166.725V165.651L227.416 164.202H228.473ZM234.601 173.049C234.243 173.043 233.885 172.975 233.527 172.844C233.169 172.713 232.842 172.493 232.547 172.183C232.251 171.871 232.014 171.449 231.835 170.918C231.656 170.384 231.567 169.713 231.567 168.906C231.567 168.134 231.639 167.449 231.784 166.852C231.929 166.253 232.139 165.749 232.415 165.34C232.69 164.928 233.023 164.615 233.412 164.402C233.804 164.189 234.246 164.083 234.737 164.083C235.226 164.083 235.66 164.181 236.041 164.377C236.425 164.57 236.737 164.84 236.979 165.186C237.22 165.533 237.376 165.932 237.447 166.384H236.407C236.311 165.992 236.123 165.666 235.845 165.408C235.567 165.149 235.197 165.02 234.737 165.02C234.061 165.02 233.528 165.314 233.139 165.902C232.753 166.49 232.558 167.316 232.555 168.378H232.623C232.782 168.137 232.971 167.931 233.19 167.76C233.412 167.587 233.656 167.453 233.923 167.36C234.19 167.266 234.473 167.219 234.771 167.219C235.271 167.219 235.729 167.344 236.143 167.594C236.558 167.841 236.89 168.183 237.14 168.621C237.39 169.056 237.515 169.554 237.515 170.117C237.515 170.656 237.395 171.151 237.153 171.6C236.912 172.046 236.572 172.401 236.135 172.665C235.7 172.926 235.189 173.054 234.601 173.049ZM234.601 172.111C234.959 172.111 235.28 172.022 235.564 171.843C235.851 171.664 236.077 171.424 236.241 171.122C236.409 170.821 236.493 170.486 236.493 170.117C236.493 169.756 236.412 169.428 236.25 169.132C236.091 168.834 235.871 168.597 235.589 168.421C235.311 168.245 234.993 168.156 234.635 168.156C234.365 168.156 234.113 168.21 233.88 168.318C233.648 168.424 233.443 168.568 233.267 168.753C233.094 168.938 232.957 169.149 232.858 169.388C232.758 169.624 232.709 169.872 232.709 170.134C232.709 170.48 232.79 170.804 232.952 171.105C233.116 171.406 233.341 171.649 233.625 171.834C233.912 172.019 234.237 172.111 234.601 172.111ZM240.661 171.813C240.451 171.813 240.271 171.737 240.12 171.587C239.969 171.436 239.894 171.256 239.894 171.046C239.894 170.835 239.969 170.655 240.12 170.504C240.271 170.354 240.451 170.279 240.661 170.279C240.871 170.279 241.052 170.354 241.202 170.504C241.353 170.655 241.428 170.835 241.428 171.046C241.428 171.185 241.393 171.313 241.322 171.429C241.254 171.546 241.161 171.639 241.045 171.71C240.931 171.779 240.803 171.813 240.661 171.813ZM240.661 167.398C240.451 167.398 240.271 167.323 240.12 167.172C239.969 167.022 239.894 166.841 239.894 166.631C239.894 166.421 239.969 166.24 240.12 166.09C240.271 165.939 240.451 165.864 240.661 165.864C240.871 165.864 241.052 165.939 241.202 166.09C241.353 166.24 241.428 166.421 241.428 166.631C241.428 166.77 241.393 166.898 241.322 167.014C241.254 167.131 241.161 167.225 241.045 167.296C240.931 167.364 240.803 167.398 240.661 167.398ZM246.782 173.049C246.14 173.049 245.594 172.874 245.142 172.524C244.69 172.172 244.345 171.662 244.106 170.995C243.868 170.324 243.748 169.514 243.748 168.566C243.748 167.622 243.868 166.817 244.106 166.149C244.348 165.479 244.694 164.968 245.146 164.615C245.601 164.26 246.146 164.083 246.782 164.083C247.419 164.083 247.963 164.26 248.415 164.615C248.869 164.968 249.216 165.479 249.454 166.149C249.696 166.817 249.817 167.622 249.817 168.566C249.817 169.514 249.697 170.324 249.459 170.995C249.22 171.662 248.875 172.172 248.423 172.524C247.971 172.874 247.425 173.049 246.782 173.049ZM246.782 172.111C247.419 172.111 247.913 171.804 248.265 171.191C248.618 170.577 248.794 169.702 248.794 168.566C248.794 167.81 248.713 167.166 248.551 166.635C248.392 166.104 248.162 165.699 247.861 165.421C247.562 165.142 247.203 165.003 246.782 165.003C246.152 165.003 245.659 165.314 245.304 165.936C244.949 166.556 244.771 167.432 244.771 168.566C244.771 169.321 244.851 169.963 245.01 170.492C245.169 171.02 245.398 171.422 245.696 171.698C245.997 171.973 246.359 172.111 246.782 172.111ZM255.003 173.049C254.36 173.049 253.814 172.874 253.362 172.524C252.91 172.172 252.565 171.662 252.326 170.995C252.088 170.324 251.968 169.514 251.968 168.566C251.968 167.622 252.088 166.817 252.326 166.149C252.568 165.479 252.914 164.968 253.366 164.615C253.821 164.26 254.366 164.083 255.003 164.083C255.639 164.083 256.183 164.26 256.635 164.615C257.089 164.968 257.436 165.479 257.674 166.149C257.916 166.817 258.037 167.622 258.037 168.566C258.037 169.514 257.917 170.324 257.679 170.995C257.44 171.662 257.095 172.172 256.643 172.524C256.191 172.874 255.645 173.049 255.003 173.049ZM255.003 172.111C255.639 172.111 256.133 171.804 256.485 171.191C256.838 170.577 257.014 169.702 257.014 168.566C257.014 167.81 256.933 167.166 256.771 166.635C256.612 166.104 256.382 165.699 256.081 165.421C255.782 165.142 255.423 165.003 255.003 165.003C254.372 165.003 253.879 165.314 253.524 165.936C253.169 166.556 252.991 167.432 252.991 168.566C252.991 169.321 253.071 169.963 253.23 170.492C253.389 171.02 253.618 171.422 253.916 171.698C254.217 171.973 254.579 172.111 255.003 172.111Z" fill="#615E83"/>
<path d="M302.841 164.202V172.929H301.784V165.31H301.733L299.602 166.725V165.651L301.784 164.202H302.841ZM308.866 173.049C308.281 173.049 307.764 172.945 307.315 172.737C306.869 172.527 306.521 172.239 306.271 171.872C306.021 171.503 305.897 171.083 305.9 170.611C305.897 170.242 305.97 169.901 306.117 169.588C306.265 169.273 306.467 169.01 306.723 168.8C306.981 168.587 307.269 168.452 307.588 168.395V168.344C307.17 168.236 306.838 168.002 306.591 167.641C306.343 167.277 306.221 166.864 306.224 166.401C306.221 165.958 306.333 165.561 306.561 165.212C306.788 164.862 307.1 164.587 307.498 164.385C307.899 164.183 308.355 164.083 308.866 164.083C309.372 164.083 309.823 164.183 310.221 164.385C310.619 164.587 310.931 164.862 311.159 165.212C311.389 165.561 311.505 165.958 311.508 166.401C311.505 166.864 311.379 167.277 311.129 167.641C310.882 168.002 310.554 168.236 310.144 168.344V168.395C310.46 168.452 310.744 168.587 310.997 168.8C311.25 169.01 311.451 169.273 311.602 169.588C311.752 169.901 311.829 170.242 311.832 170.611C311.829 171.083 311.701 171.503 311.448 171.872C311.198 172.239 310.85 172.527 310.404 172.737C309.961 172.945 309.448 173.049 308.866 173.049ZM308.866 172.111C309.261 172.111 309.602 172.047 309.889 171.919C310.176 171.791 310.397 171.611 310.554 171.378C310.71 171.145 310.789 170.872 310.792 170.56C310.789 170.23 310.704 169.939 310.537 169.686C310.369 169.433 310.14 169.235 309.85 169.09C309.564 168.945 309.235 168.872 308.866 168.872C308.494 168.872 308.162 168.945 307.869 169.09C307.579 169.235 307.35 169.433 307.183 169.686C307.018 169.939 306.937 170.23 306.94 170.56C306.937 170.872 307.012 171.145 307.166 171.378C307.322 171.611 307.545 171.791 307.835 171.919C308.125 172.047 308.468 172.111 308.866 172.111ZM308.866 167.969C309.179 167.969 309.456 167.906 309.697 167.781C309.941 167.656 310.133 167.482 310.272 167.257C310.412 167.033 310.483 166.77 310.485 166.469C310.483 166.174 310.413 165.916 310.277 165.698C310.14 165.476 309.951 165.306 309.71 165.186C309.468 165.064 309.187 165.003 308.866 165.003C308.539 165.003 308.254 165.064 308.01 165.186C307.765 165.306 307.576 165.476 307.443 165.698C307.309 165.916 307.244 166.174 307.247 166.469C307.244 166.77 307.311 167.033 307.447 167.257C307.586 167.482 307.778 167.656 308.022 167.781C308.267 167.906 308.548 167.969 308.866 167.969ZM314.935 171.813C314.725 171.813 314.545 171.737 314.394 171.587C314.243 171.436 314.168 171.256 314.168 171.046C314.168 170.835 314.243 170.655 314.394 170.504C314.545 170.354 314.725 170.279 314.935 170.279C315.145 170.279 315.326 170.354 315.476 170.504C315.627 170.655 315.702 170.835 315.702 171.046C315.702 171.185 315.667 171.313 315.596 171.429C315.527 171.546 315.435 171.639 315.319 171.71C315.205 171.779 315.077 171.813 314.935 171.813ZM314.935 167.398C314.725 167.398 314.545 167.323 314.394 167.172C314.243 167.022 314.168 166.841 314.168 166.631C314.168 166.421 314.243 166.24 314.394 166.09C314.545 165.939 314.725 165.864 314.935 165.864C315.145 165.864 315.326 165.939 315.476 166.09C315.627 166.24 315.702 166.421 315.702 166.631C315.702 166.77 315.667 166.898 315.596 167.014C315.527 167.131 315.435 167.225 315.319 167.296C315.205 167.364 315.077 167.398 314.935 167.398ZM321.056 173.049C320.414 173.049 319.868 172.874 319.416 172.524C318.964 172.172 318.619 171.662 318.38 170.995C318.142 170.324 318.022 169.514 318.022 168.566C318.022 167.622 318.142 166.817 318.38 166.149C318.622 165.479 318.968 164.968 319.42 164.615C319.875 164.26 320.42 164.083 321.056 164.083C321.693 164.083 322.237 164.26 322.689 164.615C323.143 164.968 323.49 165.479 323.728 166.149C323.97 166.817 324.091 167.622 324.091 168.566C324.091 169.514 323.971 170.324 323.733 170.995C323.494 171.662 323.149 172.172 322.697 172.524C322.245 172.874 321.698 173.049 321.056 173.049ZM321.056 172.111C321.693 172.111 322.187 171.804 322.539 171.191C322.892 170.577 323.068 169.702 323.068 168.566C323.068 167.81 322.987 167.166 322.825 166.635C322.666 166.104 322.436 165.699 322.135 165.421C321.836 165.142 321.477 165.003 321.056 165.003C320.426 165.003 319.933 165.314 319.578 165.936C319.223 166.556 319.045 167.432 319.045 168.566C319.045 169.321 319.125 169.963 319.284 170.492C319.443 171.02 319.671 171.422 319.97 171.698C320.271 171.973 320.633 172.111 321.056 172.111ZM329.276 173.049C328.634 173.049 328.088 172.874 327.636 172.524C327.184 172.172 326.839 171.662 326.6 170.995C326.362 170.324 326.242 169.514 326.242 168.566C326.242 167.622 326.362 166.817 326.6 166.149C326.842 165.479 327.188 164.968 327.64 164.615C328.095 164.26 328.64 164.083 329.276 164.083C329.913 164.083 330.457 164.26 330.909 164.615C331.363 164.968 331.71 165.479 331.948 166.149C332.19 166.817 332.311 167.622 332.311 168.566C332.311 169.514 332.191 170.324 331.953 170.995C331.714 171.662 331.369 172.172 330.917 172.524C330.465 172.874 329.918 173.049 329.276 173.049ZM329.276 172.111C329.913 172.111 330.407 171.804 330.759 171.191C331.112 170.577 331.288 169.702 331.288 168.566C331.288 167.81 331.207 167.166 331.045 166.635C330.886 166.104 330.656 165.699 330.355 165.421C330.056 165.142 329.697 165.003 329.276 165.003C328.646 165.003 328.153 165.314 327.798 165.936C327.443 166.556 327.265 167.432 327.265 168.566C327.265 169.321 327.345 169.963 327.504 170.492C327.663 171.02 327.891 171.422 328.19 171.698C328.491 171.973 328.853 172.111 329.276 172.111Z" fill="#615E83"/>
<line x1="84.8838" y1="145.093" x2="84.8838" y2="0.750229" stroke="#E5E5EF" stroke-width="1.5" stroke-linecap="round" stroke-dasharray="4 7"/>
<line x1="166.268" y1="145.093" x2="166.268" y2="0.750229" stroke="#E5E5EF" stroke-width="1.5" stroke-linecap="round" stroke-dasharray="4 7"/>
<line x1="247.652" y1="145.093" x2="247.652" y2="0.750229" stroke="#E5E5EF" stroke-width="1.5" stroke-linecap="round" stroke-dasharray="4 7"/>
<path d="M3.89453 49.9267C7.68271 45.3914 20.4628 39.9491 41.2776 54.4619C67.2961 72.603 101.688 99.8145 130.399 68.37C159.109 36.9256 198.884 -33.2198 329.276 80.464" stroke="#2DD2CE" stroke-width="3" stroke-linecap="round"/>
<path d="M3 80.9008C13.9165 63.7582 47.363 38.0678 93.8174 72.4473C151.885 115.422 179.841 94.5151 216.986 75.1573C254.132 55.7995 286.683 76.3188 303.532 87.1592C320.382 97.9995 321.875 99.5481 333 99.5481" stroke="#FE0FE2" stroke-width="3" stroke-linecap="round"/>
<line x1="214.5" y1="0.5" x2="214.5" y2="145.5" stroke="#9291A5" stroke-linecap="round" stroke-dasharray="8 8"/>
<g filter="url(#filter0_d_113_48)">
<circle cx="214" cy="16.1816" r="6" fill="#2DD2CE"/>
<circle cx="214" cy="16.1816" r="5" stroke="white" stroke-width="2"/>
</g>
<defs>
<filter id="filter0_d_113_48" x="200" y="10.1816" width="28" height="28" filterUnits="userSpaceOnUse" color-interpolation-filters="sRGB">
<feFlood flood-opacity="0" result="BackgroundImageFix"/>
<feColorMatrix in="SourceAlpha" type="matrix" values="0 0 0 0 0 0 0 0 0 0 0 0 0 0 0 0 0 0 127 0" result="hardAlpha"/>
<feOffset dy="8"/>
<feGaussianBlur stdDeviation="4"/>
<feComposite in2="hardAlpha" operator="out"/>
<feColorMatrix type="matrix" values="0 0 0 0 0.0509804 0 0 0 0 0.0392157 0 0 0 0 0.172549 0 0 0 0.08 0"/>
<feBlend mode="normal" in2="BackgroundImageFix" result="effect1_dropShadow_113_48"/>
<feBlend mode="normal" in="SourceGraphic" in2="effect1_dropShadow_113_48" result="shape"/>
</filter>
</defs>
</svg>
