<svg width="173" height="173" viewBox="0 0 173 173" fill="none" xmlns="http://www.w3.org/2000/svg">
<path d="M42.3325 160.874C53.8466 167.712 66.7911 171.783 80.1463 172.766C93.5016 173.75 106.903 171.619 119.294 166.542C131.686 161.465 142.73 153.58 151.556 143.509C160.381 133.437 166.748 121.454 170.155 108.503C173.561 95.5524 173.914 81.9874 171.186 68.8769C168.457 55.7663 162.722 43.4683 154.432 32.9514C146.142 22.4345 135.524 13.9861 123.413 8.27147C111.302 2.55687 98.0295 -0.267795 84.6412 0.0199743L86.5 86.5L42.3325 160.874Z" fill="#2DD2CE"/>
<path d="M86.5 0C67.4849 -2.26753e-07 48.9996 6.26567 33.9036 17.8278C18.8076 29.39 7.94198 45.6043 2.98764 63.9626C-1.96671 82.3209 -0.733749 101.8 6.4958 119.387C13.7254 136.974 26.5486 151.689 42.982 161.256L86.5 86.5V0Z" fill="#FE0FE2"/>
</svg>
