<svg width="298" height="16" viewBox="0 0 298 16" fill="none" xmlns="http://www.w3.org/2000/svg">
<circle cx="6" cy="8" r="6" fill="#FFE6FC"/>
<path d="M20.5795 4.21023V3.27273H27.125V4.21023H24.3807V12H23.3239V4.21023H20.5795ZM30.3295 12.1364C29.7386 12.1364 29.2202 11.9957 28.7741 11.7145C28.331 11.4332 27.9844 11.0398 27.7344 10.5341C27.4872 10.0284 27.3636 9.4375 27.3636 8.76136C27.3636 8.07955 27.4872 7.48437 27.7344 6.97585C27.9844 6.46733 28.331 6.07244 28.7741 5.79119C29.2202 5.50994 29.7386 5.36932 30.3295 5.36932C30.9205 5.36932 31.4375 5.50994 31.8807 5.79119C32.3267 6.07244 32.6733 6.46733 32.9205 6.97585C33.1705 7.48437 33.2955 8.07955 33.2955 8.76136C33.2955 9.4375 33.1705 10.0284 32.9205 10.5341C32.6733 11.0398 32.3267 11.4332 31.8807 11.7145C31.4375 11.9957 30.9205 12.1364 30.3295 12.1364ZM30.3295 11.233C30.7784 11.233 31.1477 11.1179 31.4375 10.8878C31.7273 10.6577 31.9418 10.3551 32.081 9.98011C32.2202 9.60511 32.2898 9.19886 32.2898 8.76136C32.2898 8.32386 32.2202 7.91619 32.081 7.53835C31.9418 7.16051 31.7273 6.85511 31.4375 6.62216C31.1477 6.3892 30.7784 6.27273 30.3295 6.27273C29.8807 6.27273 29.5114 6.3892 29.2216 6.62216C28.9318 6.85511 28.7173 7.16051 28.5781 7.53835C28.4389 7.91619 28.3693 8.32386 28.3693 8.76136C28.3693 9.19886 28.4389 9.60511 28.5781 9.98011C28.7173 10.3551 28.9318 10.6577 29.2216 10.8878C29.5114 11.1179 29.8807 11.233 30.3295 11.233ZM37.6772 5.45455V6.30682H34.2852V5.45455H37.6772ZM35.2738 3.88636H36.2795V10.125C36.2795 10.4091 36.3207 10.6222 36.4031 10.7642C36.4883 10.9034 36.5962 10.9972 36.7269 11.0455C36.8604 11.0909 37.0011 11.1136 37.1488 11.1136C37.2596 11.1136 37.3505 11.108 37.4215 11.0966C37.4925 11.0824 37.5494 11.071 37.592 11.0625L37.7965 11.9659C37.7283 11.9915 37.6332 12.017 37.511 12.0426C37.3888 12.071 37.234 12.0852 37.0465 12.0852C36.7624 12.0852 36.484 12.0241 36.2113 11.902C35.9414 11.7798 35.717 11.5938 35.538 11.3438C35.3619 11.0938 35.2738 10.7784 35.2738 10.3977V3.88636ZM41.1161 12.1534C40.7013 12.1534 40.3249 12.0753 39.9869 11.919C39.6488 11.7599 39.3803 11.5312 39.1815 11.233C38.9826 10.9318 38.8832 10.5682 38.8832 10.142C38.8832 9.76705 38.957 9.46307 39.1048 9.23011C39.2525 8.99432 39.4499 8.80966 39.6971 8.67614C39.9442 8.54261 40.217 8.44318 40.5153 8.37784C40.8164 8.30966 41.119 8.25568 41.4229 8.21591C41.8207 8.16477 42.1431 8.12642 42.3903 8.10085C42.6403 8.07244 42.8221 8.02557 42.9357 7.96023C43.0522 7.89489 43.1104 7.78125 43.1104 7.61932V7.58523C43.1104 7.16477 42.9954 6.83807 42.7653 6.60511C42.538 6.37216 42.1928 6.25568 41.7298 6.25568C41.2496 6.25568 40.8732 6.3608 40.6005 6.57102C40.3278 6.78125 40.136 7.00568 40.0252 7.24432L39.0707 6.90341C39.2411 6.50568 39.4684 6.19602 39.7525 5.97443C40.0394 5.75 40.3519 5.59375 40.69 5.50568C41.0309 5.41477 41.3661 5.36932 41.6957 5.36932C41.9059 5.36932 42.1474 5.39489 42.4201 5.44602C42.6957 5.49432 42.9613 5.59517 43.217 5.74858C43.4755 5.90199 43.69 6.13352 43.8604 6.44318C44.0309 6.75284 44.1161 7.16761 44.1161 7.6875V12H43.1104V11.1136H43.0593C42.9911 11.2557 42.8775 11.4077 42.7184 11.5696C42.5593 11.7315 42.3477 11.8693 42.0835 11.983C41.8192 12.0966 41.4968 12.1534 41.1161 12.1534ZM41.2695 11.25C41.6673 11.25 42.0025 11.1719 42.2752 11.0156C42.5508 10.8594 42.7582 10.6577 42.8974 10.4105C43.0394 10.1634 43.1104 9.90341 43.1104 9.63068V8.71023C43.0678 8.76136 42.9741 8.80824 42.8292 8.85085C42.6871 8.89062 42.5224 8.92614 42.3349 8.95739C42.1502 8.9858 41.9698 9.01136 41.7937 9.03409C41.6204 9.05398 41.4798 9.07102 41.3718 9.08523C41.1104 9.11932 40.8661 9.17472 40.6388 9.25142C40.4144 9.32528 40.2326 9.4375 40.0934 9.58807C39.957 9.7358 39.8888 9.9375 39.8888 10.1932C39.8888 10.5426 40.0181 10.8068 40.2766 10.9858C40.538 11.1619 40.869 11.25 41.2695 11.25ZM46.9574 3.27273V12H45.9517V3.27273H46.9574ZM52.3107 12V3.27273H55.2596C55.9442 3.27273 56.5039 3.39631 56.9386 3.64347C57.3761 3.88778 57.6999 4.21875 57.9102 4.63636C58.1204 5.05398 58.2255 5.51989 58.2255 6.03409C58.2255 6.5483 58.1204 7.01562 57.9102 7.43608C57.7028 7.85653 57.3817 8.19176 56.9471 8.44176C56.5124 8.68892 55.9556 8.8125 55.2766 8.8125H53.163V7.875H55.2425C55.7113 7.875 56.0877 7.79403 56.3718 7.6321C56.6559 7.47017 56.8619 7.25142 56.9897 6.97585C57.1204 6.69744 57.1857 6.38352 57.1857 6.03409C57.1857 5.68466 57.1204 5.37216 56.9897 5.09659C56.8619 4.82102 56.6545 4.60511 56.3675 4.44886C56.0806 4.28977 55.6999 4.21023 55.2255 4.21023H53.3675V12H52.3107ZM62.3803 12.1364C61.7894 12.1364 61.271 11.9957 60.8249 11.7145C60.3817 11.4332 60.0352 11.0398 59.7852 10.5341C59.538 10.0284 59.4144 9.4375 59.4144 8.76136C59.4144 8.07955 59.538 7.48437 59.7852 6.97585C60.0352 6.46733 60.3817 6.07244 60.8249 5.79119C61.271 5.50994 61.7894 5.36932 62.3803 5.36932C62.9712 5.36932 63.4883 5.50994 63.9315 5.79119C64.3775 6.07244 64.7241 6.46733 64.9712 6.97585C65.2212 7.48437 65.3462 8.07955 65.3462 8.76136C65.3462 9.4375 65.2212 10.0284 64.9712 10.5341C64.7241 11.0398 64.3775 11.4332 63.9315 11.7145C63.4883 11.9957 62.9712 12.1364 62.3803 12.1364ZM62.3803 11.233C62.8292 11.233 63.1985 11.1179 63.4883 10.8878C63.7781 10.6577 63.9925 10.3551 64.1317 9.98011C64.271 9.60511 64.3406 9.19886 64.3406 8.76136C64.3406 8.32386 64.271 7.91619 64.1317 7.53835C63.9925 7.16051 63.7781 6.85511 63.4883 6.62216C63.1985 6.3892 62.8292 6.27273 62.3803 6.27273C61.9315 6.27273 61.5621 6.3892 61.2724 6.62216C60.9826 6.85511 60.7681 7.16051 60.6289 7.53835C60.4897 7.91619 60.4201 8.32386 60.4201 8.76136C60.4201 9.19886 60.4897 9.60511 60.6289 9.98011C60.7681 10.3551 60.9826 10.6577 61.2724 10.8878C61.5621 11.1179 61.9315 11.233 62.3803 11.233ZM71.5178 6.92045L70.6143 7.17614C70.5575 7.02557 70.4737 6.87926 70.3629 6.73722C70.255 6.59233 70.1072 6.47301 69.9197 6.37926C69.7322 6.28551 69.4922 6.23864 69.1996 6.23864C68.799 6.23864 68.4652 6.33097 68.1982 6.51562C67.9339 6.69744 67.8018 6.92898 67.8018 7.21023C67.8018 7.46023 67.8928 7.65767 68.0746 7.80256C68.2564 7.94744 68.5405 8.06818 68.9268 8.16477L69.8984 8.40341C70.4837 8.54545 70.9197 8.76278 71.2067 9.0554C71.4936 9.34517 71.6371 9.71875 71.6371 10.1761C71.6371 10.5511 71.5291 10.8864 71.3132 11.1818C71.1001 11.4773 70.8018 11.7102 70.4183 11.8807C70.0348 12.0511 69.5888 12.1364 69.0803 12.1364C68.4126 12.1364 67.8601 11.9915 67.4226 11.7017C66.9851 11.4119 66.7081 10.9886 66.5916 10.4318L67.5462 10.1932C67.6371 10.5455 67.8089 10.8097 68.0618 10.9858C68.3175 11.1619 68.6513 11.25 69.0632 11.25C69.532 11.25 69.9041 11.1506 70.1797 10.9517C70.4581 10.75 70.5973 10.5085 70.5973 10.2273C70.5973 10 70.5178 9.80966 70.3587 9.65625C70.1996 9.5 69.9553 9.38352 69.6257 9.30682L68.5348 9.05114C67.9354 8.90909 67.495 8.68892 67.2138 8.39062C66.9354 8.08949 66.7962 7.71307 66.7962 7.26136C66.7962 6.89205 66.8999 6.56534 67.1072 6.28125C67.3175 5.99716 67.603 5.77415 67.9638 5.61222C68.3274 5.45028 68.7393 5.36932 69.1996 5.36932C69.8473 5.36932 70.3558 5.51136 70.7251 5.79545C71.0973 6.07955 71.3615 6.45455 71.5178 6.92045ZM73.1509 12V5.45455H74.1566V12H73.1509ZM73.6623 4.36364C73.4663 4.36364 73.2972 4.29688 73.1552 4.16335C73.016 4.02983 72.9464 3.86932 72.9464 3.68182C72.9464 3.49432 73.016 3.33381 73.1552 3.20028C73.2972 3.06676 73.4663 3 73.6623 3C73.8583 3 74.0259 3.06676 74.1651 3.20028C74.3072 3.33381 74.3782 3.49432 74.3782 3.68182C74.3782 3.86932 74.3072 4.02983 74.1651 4.16335C74.0259 4.29688 73.8583 4.36364 73.6623 4.36364ZM78.8452 5.45455V6.30682H75.4531V5.45455H78.8452ZM76.4418 3.88636H77.4474V10.125C77.4474 10.4091 77.4886 10.6222 77.571 10.7642C77.6563 10.9034 77.7642 10.9972 77.8949 11.0455C78.0284 11.0909 78.169 11.1136 78.3168 11.1136C78.4276 11.1136 78.5185 11.108 78.5895 11.0966C78.6605 11.0824 78.7173 11.071 78.7599 11.0625L78.9645 11.9659C78.8963 11.9915 78.8011 12.017 78.679 12.0426C78.5568 12.071 78.402 12.0852 78.2145 12.0852C77.9304 12.0852 77.652 12.0241 77.3793 11.902C77.1094 11.7798 76.8849 11.5938 76.706 11.3438C76.5298 11.0938 76.4418 10.7784 76.4418 10.3977V3.88636ZM80.358 12V5.45455H81.3636V12H80.358ZM80.8693 4.36364C80.6733 4.36364 80.5043 4.29688 80.3622 4.16335C80.223 4.02983 80.1534 3.86932 80.1534 3.68182C80.1534 3.49432 80.223 3.33381 80.3622 3.20028C80.5043 3.06676 80.6733 3 80.8693 3C81.0653 3 81.233 3.06676 81.3722 3.20028C81.5142 3.33381 81.5852 3.49432 81.5852 3.68182C81.5852 3.86932 81.5142 4.02983 81.3722 4.16335C81.233 4.29688 81.0653 4.36364 80.8693 4.36364ZM88.5579 5.45455L86.1374 12H85.1147L82.6942 5.45455H83.7852L85.592 10.6705H85.6602L87.467 5.45455H88.5579ZM92.3952 12.1364C91.7646 12.1364 91.2205 11.9972 90.7631 11.7188C90.3086 11.4375 89.9577 11.0455 89.7106 10.5426C89.4663 10.0369 89.3441 9.44886 89.3441 8.77841C89.3441 8.10795 89.4663 7.51705 89.7106 7.00568C89.9577 6.49148 90.3015 6.09091 90.7418 5.80398C91.185 5.5142 91.7021 5.36932 92.293 5.36932C92.6339 5.36932 92.9705 5.42614 93.3029 5.53977C93.6353 5.65341 93.9379 5.83807 94.2106 6.09375C94.4833 6.34659 94.7006 6.68182 94.8626 7.09943C95.0245 7.51705 95.1055 8.03125 95.1055 8.64205V9.06818H90.06V8.19886H94.0827C94.0827 7.82955 94.0089 7.5 93.8612 7.21023C93.7163 6.92045 93.5089 6.69176 93.239 6.52415C92.9719 6.35653 92.6566 6.27273 92.293 6.27273C91.8924 6.27273 91.5458 6.37216 91.2532 6.57102C90.9634 6.76705 90.7404 7.02273 90.5842 7.33807C90.4279 7.65341 90.3498 7.99148 90.3498 8.35227V8.93182C90.3498 9.42614 90.435 9.84517 90.6055 10.1889C90.7788 10.5298 91.0188 10.7898 91.3256 10.9688C91.6325 11.1449 91.989 11.233 92.3952 11.233C92.6594 11.233 92.8981 11.196 93.1112 11.1222C93.3271 11.0455 93.5131 10.9318 93.6694 10.7812C93.8256 10.6278 93.9464 10.4375 94.0316 10.2102L95.0032 10.483C94.9009 10.8125 94.729 11.1023 94.4876 11.3523C94.2461 11.5994 93.9478 11.7926 93.5927 11.9318C93.2376 12.0682 92.8384 12.1364 92.3952 12.1364ZM101.272 6.92045L100.368 7.17614C100.311 7.02557 100.228 6.87926 100.117 6.73722C100.009 6.59233 99.8612 6.47301 99.6737 6.37926C99.4862 6.28551 99.2461 6.23864 98.9535 6.23864C98.5529 6.23864 98.2191 6.33097 97.9521 6.51562C97.6879 6.69744 97.5558 6.92898 97.5558 7.21023C97.5558 7.46023 97.6467 7.65767 97.8285 7.80256C98.0103 7.94744 98.2944 8.06818 98.6808 8.16477L99.6523 8.40341C100.238 8.54545 100.674 8.76278 100.961 9.0554C101.248 9.34517 101.391 9.71875 101.391 10.1761C101.391 10.5511 101.283 10.8864 101.067 11.1818C100.854 11.4773 100.556 11.7102 100.172 11.8807C99.7887 12.0511 99.3427 12.1364 98.8342 12.1364C98.1665 12.1364 97.614 11.9915 97.1765 11.7017C96.739 11.4119 96.462 10.9886 96.3455 10.4318L97.3001 10.1932C97.391 10.5455 97.5629 10.8097 97.8157 10.9858C98.0714 11.1619 98.4052 11.25 98.8171 11.25C99.2859 11.25 99.658 11.1506 99.9336 10.9517C100.212 10.75 100.351 10.5085 100.351 10.2273C100.351 10 100.272 9.80966 100.113 9.65625C99.9535 9.5 99.7092 9.38352 99.3796 9.30682L98.2887 9.05114C97.6893 8.90909 97.2489 8.68892 96.9677 8.39062C96.6893 8.08949 96.5501 7.71307 96.5501 7.26136C96.5501 6.89205 96.6538 6.56534 96.8612 6.28125C97.0714 5.99716 97.3569 5.77415 97.7177 5.61222C98.0813 5.45028 98.4933 5.36932 98.9535 5.36932C99.6012 5.36932 100.11 5.51136 100.479 5.79545C100.851 6.07955 101.115 6.45455 101.272 6.92045ZM111.189 5.45455C111.138 5.02273 110.93 4.6875 110.567 4.44886C110.203 4.21023 109.757 4.09091 109.229 4.09091C108.842 4.09091 108.504 4.15341 108.214 4.27841C107.928 4.40341 107.703 4.57528 107.541 4.79403C107.382 5.01278 107.303 5.26136 107.303 5.53977C107.303 5.77273 107.358 5.97301 107.469 6.14062C107.582 6.3054 107.727 6.44318 107.903 6.55398C108.08 6.66193 108.264 6.75142 108.457 6.82244C108.651 6.89062 108.828 6.94602 108.99 6.98864L109.876 7.22727C110.104 7.28693 110.357 7.36932 110.635 7.47443C110.916 7.57955 111.185 7.72301 111.44 7.90483C111.699 8.08381 111.912 8.31392 112.08 8.59517C112.247 8.87642 112.331 9.22159 112.331 9.63068C112.331 10.1023 112.207 10.5284 111.96 10.9091C111.716 11.2898 111.358 11.5923 110.886 11.8168C110.418 12.0412 109.848 12.1534 109.178 12.1534C108.553 12.1534 108.011 12.0526 107.554 11.8509C107.099 11.6491 106.741 11.3679 106.48 11.0071C106.222 10.6463 106.075 10.2273 106.041 9.75H107.132C107.161 10.0795 107.271 10.3523 107.464 10.5682C107.661 10.7812 107.908 10.9403 108.206 11.0455C108.507 11.1477 108.831 11.1989 109.178 11.1989C109.581 11.1989 109.943 11.1335 110.264 11.0028C110.585 10.8693 110.839 10.6847 111.027 10.4489C111.214 10.2102 111.308 9.93182 111.308 9.61364C111.308 9.32386 111.227 9.08807 111.065 8.90625C110.903 8.72443 110.69 8.5767 110.426 8.46307C110.162 8.34943 109.876 8.25 109.57 8.16477L108.496 7.85795C107.814 7.66193 107.274 7.3821 106.876 7.01847C106.479 6.65483 106.28 6.17898 106.28 5.59091C106.28 5.10227 106.412 4.67614 106.676 4.3125C106.943 3.94602 107.301 3.66193 107.75 3.46023C108.202 3.25568 108.706 3.15341 109.263 3.15341C109.825 3.15341 110.325 3.25426 110.763 3.45597C111.2 3.65483 111.547 3.92756 111.803 4.27415C112.061 4.62074 112.197 5.0142 112.212 5.45455H111.189ZM114.938 8.0625V12H113.932V3.27273H114.938V6.47727H115.023C115.176 6.1392 115.407 5.87074 115.713 5.67188C116.023 5.47017 116.435 5.36932 116.949 5.36932C117.395 5.36932 117.786 5.45881 118.121 5.63778C118.456 5.81392 118.716 6.08523 118.901 6.4517C119.088 6.81534 119.182 7.27841 119.182 7.84091V12H118.176V7.90909C118.176 7.3892 118.042 6.98722 117.772 6.70312C117.505 6.41619 117.134 6.27273 116.659 6.27273C116.33 6.27273 116.034 6.34233 115.773 6.48153C115.515 6.62074 115.31 6.82386 115.159 7.09091C115.012 7.35795 114.938 7.68182 114.938 8.0625ZM123.681 12.1364C123.09 12.1364 122.572 11.9957 122.126 11.7145C121.683 11.4332 121.336 11.0398 121.086 10.5341C120.839 10.0284 120.715 9.4375 120.715 8.76136C120.715 8.07955 120.839 7.48437 121.086 6.97585C121.336 6.46733 121.683 6.07244 122.126 5.79119C122.572 5.50994 123.09 5.36932 123.681 5.36932C124.272 5.36932 124.789 5.50994 125.232 5.79119C125.678 6.07244 126.025 6.46733 126.272 6.97585C126.522 7.48437 126.647 8.07955 126.647 8.76136C126.647 9.4375 126.522 10.0284 126.272 10.5341C126.025 11.0398 125.678 11.4332 125.232 11.7145C124.789 11.9957 124.272 12.1364 123.681 12.1364ZM123.681 11.233C124.13 11.233 124.499 11.1179 124.789 10.8878C125.079 10.6577 125.293 10.3551 125.433 9.98011C125.572 9.60511 125.641 9.19886 125.641 8.76136C125.641 8.32386 125.572 7.91619 125.433 7.53835C125.293 7.16051 125.079 6.85511 124.789 6.62216C124.499 6.3892 124.13 6.27273 123.681 6.27273C123.232 6.27273 122.863 6.3892 122.573 6.62216C122.283 6.85511 122.069 7.16051 121.93 7.53835C121.79 7.91619 121.721 8.32386 121.721 8.76136C121.721 9.19886 121.79 9.60511 121.93 9.98011C122.069 10.3551 122.283 10.6577 122.573 10.8878C122.863 11.1179 123.232 11.233 123.681 11.233ZM128.182 12V5.45455H129.154V6.44318H129.222C129.341 6.11932 129.557 5.85653 129.87 5.65483C130.182 5.45312 130.534 5.35227 130.926 5.35227C131 5.35227 131.093 5.35369 131.203 5.35653C131.314 5.35937 131.398 5.36364 131.455 5.36932V6.39205C131.421 6.38352 131.343 6.37074 131.221 6.35369C131.101 6.33381 130.975 6.32386 130.841 6.32386C130.523 6.32386 130.239 6.39062 129.989 6.52415C129.742 6.65483 129.546 6.83665 129.401 7.0696C129.259 7.29972 129.188 7.5625 129.188 7.85795V12H128.182ZM135.904 5.45455V6.30682H132.512V5.45455H135.904ZM133.5 3.88636H134.506V10.125C134.506 10.4091 134.547 10.6222 134.63 10.7642C134.715 10.9034 134.823 10.9972 134.953 11.0455C135.087 11.0909 135.228 11.1136 135.375 11.1136C135.486 11.1136 135.577 11.108 135.648 11.0966C135.719 11.0824 135.776 11.071 135.819 11.0625L136.023 11.9659C135.955 11.9915 135.86 12.017 135.738 12.0426C135.615 12.071 135.461 12.0852 135.273 12.0852C134.989 12.0852 134.711 12.0241 134.438 11.902C134.168 11.7798 133.944 11.5938 133.765 11.3438C133.588 11.0938 133.5 10.7784 133.5 10.3977V3.88636Z" fill="#888C91"/>
<circle cx="167" cy="8" r="6" fill="#FE0FE2"/>
<path d="M181.58 4.21023V3.27273H188.125V4.21023H185.381V12H184.324V4.21023H181.58ZM191.33 12.1364C190.739 12.1364 190.22 11.9957 189.774 11.7145C189.331 11.4332 188.984 11.0398 188.734 10.5341C188.487 10.0284 188.364 9.4375 188.364 8.76136C188.364 8.07955 188.487 7.48437 188.734 6.97585C188.984 6.46733 189.331 6.07244 189.774 5.79119C190.22 5.50994 190.739 5.36932 191.33 5.36932C191.92 5.36932 192.438 5.50994 192.881 5.79119C193.327 6.07244 193.673 6.46733 193.92 6.97585C194.17 7.48437 194.295 8.07955 194.295 8.76136C194.295 9.4375 194.17 10.0284 193.92 10.5341C193.673 11.0398 193.327 11.4332 192.881 11.7145C192.438 11.9957 191.92 12.1364 191.33 12.1364ZM191.33 11.233C191.778 11.233 192.148 11.1179 192.438 10.8878C192.727 10.6577 192.942 10.3551 193.081 9.98011C193.22 9.60511 193.29 9.19886 193.29 8.76136C193.29 8.32386 193.22 7.91619 193.081 7.53835C192.942 7.16051 192.727 6.85511 192.438 6.62216C192.148 6.3892 191.778 6.27273 191.33 6.27273C190.881 6.27273 190.511 6.3892 190.222 6.62216C189.932 6.85511 189.717 7.16051 189.578 7.53835C189.439 7.91619 189.369 8.32386 189.369 8.76136C189.369 9.19886 189.439 9.60511 189.578 9.98011C189.717 10.3551 189.932 10.6577 190.222 10.8878C190.511 11.1179 190.881 11.233 191.33 11.233ZM198.677 5.45455V6.30682H195.285V5.45455H198.677ZM196.274 3.88636H197.279V10.125C197.279 10.4091 197.321 10.6222 197.403 10.7642C197.488 10.9034 197.596 10.9972 197.727 11.0455C197.86 11.0909 198.001 11.1136 198.149 11.1136C198.26 11.1136 198.35 11.108 198.422 11.0966C198.493 11.0824 198.549 11.071 198.592 11.0625L198.797 11.9659C198.728 11.9915 198.633 12.017 198.511 12.0426C198.389 12.071 198.234 12.0852 198.047 12.0852C197.762 12.0852 197.484 12.0241 197.211 11.902C196.941 11.7798 196.717 11.5938 196.538 11.3438C196.362 11.0938 196.274 10.7784 196.274 10.3977V3.88636ZM202.116 12.1534C201.701 12.1534 201.325 12.0753 200.987 11.919C200.649 11.7599 200.38 11.5312 200.181 11.233C199.983 10.9318 199.883 10.5682 199.883 10.142C199.883 9.76705 199.957 9.46307 200.105 9.23011C200.252 8.99432 200.45 8.80966 200.697 8.67614C200.944 8.54261 201.217 8.44318 201.515 8.37784C201.816 8.30966 202.119 8.25568 202.423 8.21591C202.821 8.16477 203.143 8.12642 203.39 8.10085C203.64 8.07244 203.822 8.02557 203.936 7.96023C204.052 7.89489 204.11 7.78125 204.11 7.61932V7.58523C204.11 7.16477 203.995 6.83807 203.765 6.60511C203.538 6.37216 203.193 6.25568 202.73 6.25568C202.25 6.25568 201.873 6.3608 201.6 6.57102C201.328 6.78125 201.136 7.00568 201.025 7.24432L200.071 6.90341C200.241 6.50568 200.468 6.19602 200.752 5.97443C201.039 5.75 201.352 5.59375 201.69 5.50568C202.031 5.41477 202.366 5.36932 202.696 5.36932C202.906 5.36932 203.147 5.39489 203.42 5.44602C203.696 5.49432 203.961 5.59517 204.217 5.74858C204.475 5.90199 204.69 6.13352 204.86 6.44318C205.031 6.75284 205.116 7.16761 205.116 7.6875V12H204.11V11.1136H204.059C203.991 11.2557 203.877 11.4077 203.718 11.5696C203.559 11.7315 203.348 11.8693 203.083 11.983C202.819 12.0966 202.497 12.1534 202.116 12.1534ZM202.27 11.25C202.667 11.25 203.002 11.1719 203.275 11.0156C203.551 10.8594 203.758 10.6577 203.897 10.4105C204.039 10.1634 204.11 9.90341 204.11 9.63068V8.71023C204.068 8.76136 203.974 8.80824 203.829 8.85085C203.687 8.89062 203.522 8.92614 203.335 8.95739C203.15 8.9858 202.97 9.01136 202.794 9.03409C202.62 9.05398 202.48 9.07102 202.372 9.08523C202.11 9.11932 201.866 9.17472 201.639 9.25142C201.414 9.32528 201.233 9.4375 201.093 9.58807C200.957 9.7358 200.889 9.9375 200.889 10.1932C200.889 10.5426 201.018 10.8068 201.277 10.9858C201.538 11.1619 201.869 11.25 202.27 11.25ZM207.957 3.27273V12H206.952V3.27273H207.957ZM220.231 3.27273V12H219.208L214.453 5.14773H214.368V12H213.311V3.27273H214.333L219.106 10.142H219.191V3.27273H220.231ZM224.954 12.1364C224.323 12.1364 223.779 11.9972 223.322 11.7188C222.867 11.4375 222.516 11.0455 222.269 10.5426C222.025 10.0369 221.903 9.44886 221.903 8.77841C221.903 8.10795 222.025 7.51705 222.269 7.00568C222.516 6.49148 222.86 6.09091 223.3 5.80398C223.744 5.5142 224.261 5.36932 224.852 5.36932C225.192 5.36932 225.529 5.42614 225.862 5.53977C226.194 5.65341 226.496 5.83807 226.769 6.09375C227.042 6.34659 227.259 6.68182 227.421 7.09943C227.583 7.51705 227.664 8.03125 227.664 8.64205V9.06818H222.619V8.19886H226.641C226.641 7.82955 226.567 7.5 226.42 7.21023C226.275 6.92045 226.067 6.69176 225.798 6.52415C225.531 6.35653 225.215 6.27273 224.852 6.27273C224.451 6.27273 224.104 6.37216 223.812 6.57102C223.522 6.76705 223.299 7.02273 223.143 7.33807C222.987 7.65341 222.908 7.99148 222.908 8.35227V8.93182C222.908 9.42614 222.994 9.84517 223.164 10.1889C223.337 10.5298 223.577 10.7898 223.884 10.9688C224.191 11.1449 224.548 11.233 224.954 11.233C225.218 11.233 225.457 11.196 225.67 11.1222C225.886 11.0455 226.072 10.9318 226.228 10.7812C226.384 10.6278 226.505 10.4375 226.59 10.2102L227.562 10.483C227.46 10.8125 227.288 11.1023 227.046 11.3523C226.805 11.5994 226.506 11.7926 226.151 11.9318C225.796 12.0682 225.397 12.1364 224.954 12.1364ZM231.836 14.5909C231.35 14.5909 230.933 14.5284 230.583 14.4034C230.234 14.2812 229.942 14.1193 229.71 13.9176C229.479 13.7188 229.296 13.5057 229.16 13.2784L229.961 12.7159C230.052 12.8352 230.167 12.9716 230.306 13.125C230.445 13.2812 230.636 13.4162 230.877 13.5298C231.121 13.6463 231.441 13.7045 231.836 13.7045C232.364 13.7045 232.8 13.5767 233.144 13.321C233.488 13.0653 233.66 12.6648 233.66 12.1193V10.7898H233.575C233.501 10.9091 233.396 11.0568 233.259 11.233C233.126 11.4062 232.933 11.5611 232.68 11.6974C232.43 11.831 232.092 11.8977 231.665 11.8977C231.137 11.8977 230.663 11.7727 230.242 11.5227C229.825 11.2727 229.494 10.9091 229.249 10.4318C229.008 9.95455 228.887 9.375 228.887 8.69318C228.887 8.02273 229.005 7.43892 229.241 6.94176C229.477 6.44176 229.805 6.0554 230.225 5.78267C230.646 5.5071 231.131 5.36932 231.683 5.36932C232.109 5.36932 232.447 5.44034 232.697 5.58239C232.95 5.72159 233.143 5.88068 233.276 6.05966C233.413 6.2358 233.518 6.38068 233.592 6.49432H233.694V5.45455H234.665V12.1875C234.665 12.75 234.538 13.2074 234.282 13.5597C234.029 13.9148 233.688 14.1747 233.259 14.3395C232.833 14.5071 232.359 14.5909 231.836 14.5909ZM231.802 10.9943C232.205 10.9943 232.546 10.902 232.825 10.7173C233.103 10.5327 233.315 10.267 233.46 9.92045C233.604 9.57386 233.677 9.15909 233.677 8.67614C233.677 8.20455 233.606 7.78835 233.464 7.42756C233.322 7.06676 233.112 6.78409 232.833 6.57955C232.555 6.375 232.211 6.27273 231.802 6.27273C231.376 6.27273 231.021 6.38068 230.737 6.59659C230.455 6.8125 230.244 7.10227 230.102 7.46591C229.962 7.82955 229.893 8.23295 229.893 8.67614C229.893 9.13068 229.964 9.53267 230.106 9.8821C230.251 10.2287 230.464 10.5014 230.745 10.7003C231.029 10.8963 231.381 10.9943 231.802 10.9943ZM238.433 12.1534C238.018 12.1534 237.641 12.0753 237.303 11.919C236.965 11.7599 236.697 11.5312 236.498 11.233C236.299 10.9318 236.2 10.5682 236.2 10.142C236.2 9.76705 236.273 9.46307 236.421 9.23011C236.569 8.99432 236.766 8.80966 237.013 8.67614C237.261 8.54261 237.533 8.44318 237.832 8.37784C238.133 8.30966 238.435 8.25568 238.739 8.21591C239.137 8.16477 239.46 8.12642 239.707 8.10085C239.957 8.07244 240.138 8.02557 240.252 7.96023C240.369 7.89489 240.427 7.78125 240.427 7.61932V7.58523C240.427 7.16477 240.312 6.83807 240.082 6.60511C239.854 6.37216 239.509 6.25568 239.046 6.25568C238.566 6.25568 238.19 6.3608 237.917 6.57102C237.644 6.78125 237.452 7.00568 237.342 7.24432L236.387 6.90341C236.558 6.50568 236.785 6.19602 237.069 5.97443C237.356 5.75 237.668 5.59375 238.006 5.50568C238.347 5.41477 238.683 5.36932 239.012 5.36932C239.222 5.36932 239.464 5.39489 239.737 5.44602C240.012 5.49432 240.278 5.59517 240.533 5.74858C240.792 5.90199 241.006 6.13352 241.177 6.44318C241.347 6.75284 241.433 7.16761 241.433 7.6875V12H240.427V11.1136H240.376C240.308 11.2557 240.194 11.4077 240.035 11.5696C239.876 11.7315 239.664 11.8693 239.4 11.983C239.136 12.0966 238.813 12.1534 238.433 12.1534ZM238.586 11.25C238.984 11.25 239.319 11.1719 239.592 11.0156C239.867 10.8594 240.075 10.6577 240.214 10.4105C240.356 10.1634 240.427 9.90341 240.427 9.63068V8.71023C240.384 8.76136 240.29 8.80824 240.146 8.85085C240.004 8.89062 239.839 8.92614 239.651 8.95739C239.467 8.9858 239.286 9.01136 239.11 9.03409C238.937 9.05398 238.796 9.07102 238.688 9.08523C238.427 9.11932 238.183 9.17472 237.955 9.25142C237.731 9.32528 237.549 9.4375 237.41 9.58807C237.273 9.7358 237.205 9.9375 237.205 10.1932C237.205 10.5426 237.335 10.8068 237.593 10.9858C237.854 11.1619 238.185 11.25 238.586 11.25ZM246.115 5.45455V6.30682H242.723V5.45455H246.115ZM243.711 3.88636H244.717V10.125C244.717 10.4091 244.758 10.6222 244.841 10.7642C244.926 10.9034 245.034 10.9972 245.164 11.0455C245.298 11.0909 245.439 11.1136 245.586 11.1136C245.697 11.1136 245.788 11.108 245.859 11.0966C245.93 11.0824 245.987 11.071 246.029 11.0625L246.234 11.9659C246.166 11.9915 246.071 12.017 245.949 12.0426C245.826 12.071 245.672 12.0852 245.484 12.0852C245.2 12.0852 244.922 12.0241 244.649 11.902C244.379 11.7798 244.154 11.5938 243.975 11.3438C243.799 11.0938 243.711 10.7784 243.711 10.3977V3.88636ZM247.627 12V5.45455H248.633V12H247.627ZM248.139 4.36364C247.943 4.36364 247.774 4.29688 247.632 4.16335C247.493 4.02983 247.423 3.86932 247.423 3.68182C247.423 3.49432 247.493 3.33381 247.632 3.20028C247.774 3.06676 247.943 3 248.139 3C248.335 3 248.502 3.06676 248.642 3.20028C248.784 3.33381 248.855 3.49432 248.855 3.68182C248.855 3.86932 248.784 4.02983 248.642 4.16335C248.502 4.29688 248.335 4.36364 248.139 4.36364ZM255.827 5.45455L253.407 12H252.384L249.964 5.45455H251.055L252.862 10.6705H252.93L254.737 5.45455H255.827ZM259.665 12.1364C259.034 12.1364 258.49 11.9972 258.033 11.7188C257.578 11.4375 257.227 11.0455 256.98 10.5426C256.736 10.0369 256.614 9.44886 256.614 8.77841C256.614 8.10795 256.736 7.51705 256.98 7.00568C257.227 6.49148 257.571 6.09091 258.011 5.80398C258.455 5.5142 258.972 5.36932 259.562 5.36932C259.903 5.36932 260.24 5.42614 260.572 5.53977C260.905 5.65341 261.207 5.83807 261.48 6.09375C261.753 6.34659 261.97 6.68182 262.132 7.09943C262.294 7.51705 262.375 8.03125 262.375 8.64205V9.06818H257.33V8.19886H261.352C261.352 7.82955 261.278 7.5 261.131 7.21023C260.986 6.92045 260.778 6.69176 260.509 6.52415C260.241 6.35653 259.926 6.27273 259.562 6.27273C259.162 6.27273 258.815 6.37216 258.523 6.57102C258.233 6.76705 258.01 7.02273 257.854 7.33807C257.697 7.65341 257.619 7.99148 257.619 8.35227V8.93182C257.619 9.42614 257.705 9.84517 257.875 10.1889C258.048 10.5298 258.288 10.7898 258.595 10.9688C258.902 11.1449 259.259 11.233 259.665 11.233C259.929 11.233 260.168 11.196 260.381 11.1222C260.597 11.0455 260.783 10.9318 260.939 10.7812C261.095 10.6278 261.216 10.4375 261.301 10.2102L262.273 10.483C262.17 10.8125 261.999 11.1023 261.757 11.3523C261.516 11.5994 261.217 11.7926 260.862 11.9318C260.507 12.0682 260.108 12.1364 259.665 12.1364ZM272.189 5.45455C272.138 5.02273 271.93 4.6875 271.567 4.44886C271.203 4.21023 270.757 4.09091 270.229 4.09091C269.842 4.09091 269.504 4.15341 269.214 4.27841C268.928 4.40341 268.703 4.57528 268.541 4.79403C268.382 5.01278 268.303 5.26136 268.303 5.53977C268.303 5.77273 268.358 5.97301 268.469 6.14062C268.582 6.3054 268.727 6.44318 268.903 6.55398C269.08 6.66193 269.264 6.75142 269.457 6.82244C269.651 6.89062 269.828 6.94602 269.99 6.98864L270.876 7.22727C271.104 7.28693 271.357 7.36932 271.635 7.47443C271.916 7.57955 272.185 7.72301 272.44 7.90483C272.699 8.08381 272.912 8.31392 273.08 8.59517C273.247 8.87642 273.331 9.22159 273.331 9.63068C273.331 10.1023 273.207 10.5284 272.96 10.9091C272.716 11.2898 272.358 11.5923 271.886 11.8168C271.418 12.0412 270.848 12.1534 270.178 12.1534C269.553 12.1534 269.011 12.0526 268.554 11.8509C268.099 11.6491 267.741 11.3679 267.48 11.0071C267.222 10.6463 267.075 10.2273 267.041 9.75H268.132C268.161 10.0795 268.271 10.3523 268.464 10.5682C268.661 10.7812 268.908 10.9403 269.206 11.0455C269.507 11.1477 269.831 11.1989 270.178 11.1989C270.581 11.1989 270.943 11.1335 271.264 11.0028C271.585 10.8693 271.839 10.6847 272.027 10.4489C272.214 10.2102 272.308 9.93182 272.308 9.61364C272.308 9.32386 272.227 9.08807 272.065 8.90625C271.903 8.72443 271.69 8.5767 271.426 8.46307C271.162 8.34943 270.876 8.25 270.57 8.16477L269.496 7.85795C268.814 7.66193 268.274 7.3821 267.876 7.01847C267.479 6.65483 267.28 6.17898 267.28 5.59091C267.28 5.10227 267.412 4.67614 267.676 4.3125C267.943 3.94602 268.301 3.66193 268.75 3.46023C269.202 3.25568 269.706 3.15341 270.263 3.15341C270.825 3.15341 271.325 3.25426 271.763 3.45597C272.2 3.65483 272.547 3.92756 272.803 4.27415C273.061 4.62074 273.197 5.0142 273.212 5.45455H272.189ZM275.938 8.0625V12H274.932V3.27273H275.938V6.47727H276.023C276.176 6.1392 276.407 5.87074 276.713 5.67188C277.023 5.47017 277.435 5.36932 277.949 5.36932C278.395 5.36932 278.786 5.45881 279.121 5.63778C279.456 5.81392 279.716 6.08523 279.901 6.4517C280.088 6.81534 280.182 7.27841 280.182 7.84091V12H279.176V7.90909C279.176 7.3892 279.042 6.98722 278.772 6.70312C278.505 6.41619 278.134 6.27273 277.659 6.27273C277.33 6.27273 277.034 6.34233 276.773 6.48153C276.515 6.62074 276.31 6.82386 276.159 7.09091C276.012 7.35795 275.938 7.68182 275.938 8.0625ZM284.681 12.1364C284.09 12.1364 283.572 11.9957 283.126 11.7145C282.683 11.4332 282.336 11.0398 282.086 10.5341C281.839 10.0284 281.715 9.4375 281.715 8.76136C281.715 8.07955 281.839 7.48437 282.086 6.97585C282.336 6.46733 282.683 6.07244 283.126 5.79119C283.572 5.50994 284.09 5.36932 284.681 5.36932C285.272 5.36932 285.789 5.50994 286.232 5.79119C286.678 6.07244 287.025 6.46733 287.272 6.97585C287.522 7.48437 287.647 8.07955 287.647 8.76136C287.647 9.4375 287.522 10.0284 287.272 10.5341C287.025 11.0398 286.678 11.4332 286.232 11.7145C285.789 11.9957 285.272 12.1364 284.681 12.1364ZM284.681 11.233C285.13 11.233 285.499 11.1179 285.789 10.8878C286.079 10.6577 286.293 10.3551 286.433 9.98011C286.572 9.60511 286.641 9.19886 286.641 8.76136C286.641 8.32386 286.572 7.91619 286.433 7.53835C286.293 7.16051 286.079 6.85511 285.789 6.62216C285.499 6.3892 285.13 6.27273 284.681 6.27273C284.232 6.27273 283.863 6.3892 283.573 6.62216C283.283 6.85511 283.069 7.16051 282.93 7.53835C282.79 7.91619 282.721 8.32386 282.721 8.76136C282.721 9.19886 282.79 9.60511 282.93 9.98011C283.069 10.3551 283.283 10.6577 283.573 10.8878C283.863 11.1179 284.232 11.233 284.681 11.233ZM289.182 12V5.45455H290.154V6.44318H290.222C290.341 6.11932 290.557 5.85653 290.87 5.65483C291.182 5.45312 291.534 5.35227 291.926 5.35227C292 5.35227 292.093 5.35369 292.203 5.35653C292.314 5.35937 292.398 5.36364 292.455 5.36932V6.39205C292.421 6.38352 292.343 6.37074 292.221 6.35369C292.101 6.33381 291.975 6.32386 291.841 6.32386C291.523 6.32386 291.239 6.39062 290.989 6.52415C290.742 6.65483 290.546 6.83665 290.401 7.0696C290.259 7.29972 290.188 7.5625 290.188 7.85795V12H289.182ZM296.904 5.45455V6.30682H293.512V5.45455H296.904ZM294.5 3.88636H295.506V10.125C295.506 10.4091 295.547 10.6222 295.63 10.7642C295.715 10.9034 295.823 10.9972 295.953 11.0455C296.087 11.0909 296.228 11.1136 296.375 11.1136C296.486 11.1136 296.577 11.108 296.648 11.0966C296.719 11.0824 296.776 11.071 296.819 11.0625L297.023 11.9659C296.955 11.9915 296.86 12.017 296.738 12.0426C296.615 12.071 296.461 12.0852 296.273 12.0852C295.989 12.0852 295.711 12.0241 295.438 11.902C295.168 11.7798 294.944 11.5938 294.765 11.3438C294.588 11.0938 294.5 10.7784 294.5 10.3977V3.88636Z" fill="#888C91"/>
</svg>
