<svg width="322" height="130" viewBox="0 0 322 130" fill="none" xmlns="http://www.w3.org/2000/svg">
<rect x="170" width="10" height="47.0089" rx="5" fill="#FFE6FC"/>
<rect x="169.521" y="54.6201" width="10.2535" height="75.3799" rx="5.12675" fill="#FE0FE2"/>
<rect x="198" width="10" height="77.1428" rx="5" fill="#FFE6FC"/>
<rect x="197.774" y="81.9785" width="10.2535" height="48.0201" rx="5.12675" fill="#FE0FE2"/>
<rect x="226" width="10" height="47.0089" rx="5" fill="#FFE6FC"/>
<rect x="226.027" y="50.873" width="10.2535" height="79.1255" rx="5.12675" fill="#FE0FE2"/>
<rect x="254.281" width="10.2535" height="7.61478" rx="3.80739" fill="#FFE6FC"/>
<rect x="254.281" y="11.7637" width="10.2535" height="118.236" rx="5.12675" fill="#FE0FE2"/>
<rect x="283" width="10" height="32.5446" rx="5" fill="#FFE6FC"/>
<rect x="282.534" y="35.3223" width="10.2535" height="94.6782" rx="5.12675" fill="#FE0FE2"/>
<rect x="311" width="10" height="71.1161" rx="5" fill="#FFE6FC"/>
<rect x="310.788" y="77.5068" width="10.2535" height="52.4932" rx="5.12675" fill="#FE0FE2"/>
<rect x="141" width="11" height="77.1428" rx="5.5" fill="#FFE6FC"/>
<rect x="141.267" y="81.9785" width="10.2535" height="48.0201" rx="5.12675" fill="#FE0FE2"/>
<rect x="113" width="10" height="96.4286" rx="5" fill="#FFE6FC"/>
<rect x="113.014" y="102.563" width="10.2535" height="27.4357" rx="5.12675" fill="#FE0FE2"/>
<rect x="85" width="10" height="79.5536" rx="5" fill="#FFE6FC"/>
<rect x="84.7603" y="85.3369" width="10.2535" height="44.6627" rx="5.12675" fill="#FE0FE2"/>
<rect x="57" width="10" height="67.5" rx="5" fill="#FFE6FC"/>
<rect x="56.5068" y="70.7363" width="10.2535" height="59.2632" rx="5.12675" fill="#FE0FE2"/>
<rect x="28" width="11" height="44.5982" rx="5.5" fill="#FFE6FC"/>
<rect x="28.2534" y="48.6963" width="10.2535" height="81.3027" rx="5.12675" fill="#FE0FE2"/>
<rect width="10" height="81.9643" rx="5" fill="#FFE6FC"/>
<rect y="85.3379" width="10.2535" height="44.6627" rx="5.12675" fill="#FE0FE2"/>
</svg>
