<svg width="137" height="44" viewBox="0 0 137 44" fill="none" xmlns="http://www.w3.org/2000/svg">
<circle cx="6" cy="8" r="6" fill="#2DD2CE"/>
<path d="M20.5795 4.21023V3.27273H27.125V4.21023H24.3807V12H23.3239V4.21023H20.5795ZM30.3295 12.1364C29.7386 12.1364 29.2202 11.9957 28.7741 11.7145C28.331 11.4332 27.9844 11.0398 27.7344 10.5341C27.4872 10.0284 27.3636 9.4375 27.3636 8.76136C27.3636 8.07955 27.4872 7.48437 27.7344 6.97585C27.9844 6.46733 28.331 6.07244 28.7741 5.79119C29.2202 5.50994 29.7386 5.36932 30.3295 5.36932C30.9205 5.36932 31.4375 5.50994 31.8807 5.79119C32.3267 6.07244 32.6733 6.46733 32.9205 6.97585C33.1705 7.48437 33.2955 8.07955 33.2955 8.76136C33.2955 9.4375 33.1705 10.0284 32.9205 10.5341C32.6733 11.0398 32.3267 11.4332 31.8807 11.7145C31.4375 11.9957 30.9205 12.1364 30.3295 12.1364ZM30.3295 11.233C30.7784 11.233 31.1477 11.1179 31.4375 10.8878C31.7273 10.6577 31.9418 10.3551 32.081 9.98011C32.2202 9.60511 32.2898 9.19886 32.2898 8.76136C32.2898 8.32386 32.2202 7.91619 32.081 7.53835C31.9418 7.16051 31.7273 6.85511 31.4375 6.62216C31.1477 6.3892 30.7784 6.27273 30.3295 6.27273C29.8807 6.27273 29.5114 6.3892 29.2216 6.62216C28.9318 6.85511 28.7173 7.16051 28.5781 7.53835C28.4389 7.91619 28.3693 8.32386 28.3693 8.76136C28.3693 9.19886 28.4389 9.60511 28.5781 9.98011C28.7173 10.3551 28.9318 10.6577 29.2216 10.8878C29.5114 11.1179 29.8807 11.233 30.3295 11.233ZM37.6772 5.45455V6.30682H34.2852V5.45455H37.6772ZM35.2738 3.88636H36.2795V10.125C36.2795 10.4091 36.3207 10.6222 36.4031 10.7642C36.4883 10.9034 36.5962 10.9972 36.7269 11.0455C36.8604 11.0909 37.0011 11.1136 37.1488 11.1136C37.2596 11.1136 37.3505 11.108 37.4215 11.0966C37.4925 11.0824 37.5494 11.071 37.592 11.0625L37.7965 11.9659C37.7283 11.9915 37.6332 12.017 37.511 12.0426C37.3888 12.071 37.234 12.0852 37.0465 12.0852C36.7624 12.0852 36.484 12.0241 36.2113 11.902C35.9414 11.7798 35.717 11.5938 35.538 11.3438C35.3619 11.0938 35.2738 10.7784 35.2738 10.3977V3.88636ZM41.1161 12.1534C40.7013 12.1534 40.3249 12.0753 39.9869 11.919C39.6488 11.7599 39.3803 11.5312 39.1815 11.233C38.9826 10.9318 38.8832 10.5682 38.8832 10.142C38.8832 9.76705 38.957 9.46307 39.1048 9.23011C39.2525 8.99432 39.4499 8.80966 39.6971 8.67614C39.9442 8.54261 40.217 8.44318 40.5153 8.37784C40.8164 8.30966 41.119 8.25568 41.4229 8.21591C41.8207 8.16477 42.1431 8.12642 42.3903 8.10085C42.6403 8.07244 42.8221 8.02557 42.9357 7.96023C43.0522 7.89489 43.1104 7.78125 43.1104 7.61932V7.58523C43.1104 7.16477 42.9954 6.83807 42.7653 6.60511C42.538 6.37216 42.1928 6.25568 41.7298 6.25568C41.2496 6.25568 40.8732 6.3608 40.6005 6.57102C40.3278 6.78125 40.136 7.00568 40.0252 7.24432L39.0707 6.90341C39.2411 6.50568 39.4684 6.19602 39.7525 5.97443C40.0394 5.75 40.3519 5.59375 40.69 5.50568C41.0309 5.41477 41.3661 5.36932 41.6957 5.36932C41.9059 5.36932 42.1474 5.39489 42.4201 5.44602C42.6957 5.49432 42.9613 5.59517 43.217 5.74858C43.4755 5.90199 43.69 6.13352 43.8604 6.44318C44.0309 6.75284 44.1161 7.16761 44.1161 7.6875V12H43.1104V11.1136H43.0593C42.9911 11.2557 42.8775 11.4077 42.7184 11.5696C42.5593 11.7315 42.3477 11.8693 42.0835 11.983C41.8192 12.0966 41.4968 12.1534 41.1161 12.1534ZM41.2695 11.25C41.6673 11.25 42.0025 11.1719 42.2752 11.0156C42.5508 10.8594 42.7582 10.6577 42.8974 10.4105C43.0394 10.1634 43.1104 9.90341 43.1104 9.63068V8.71023C43.0678 8.76136 42.9741 8.80824 42.8292 8.85085C42.6871 8.89062 42.5224 8.92614 42.3349 8.95739C42.1502 8.9858 41.9698 9.01136 41.7937 9.03409C41.6204 9.05398 41.4798 9.07102 41.3718 9.08523C41.1104 9.11932 40.8661 9.17472 40.6388 9.25142C40.4144 9.32528 40.2326 9.4375 40.0934 9.58807C39.957 9.7358 39.8888 9.9375 39.8888 10.1932C39.8888 10.5426 40.0181 10.8068 40.2766 10.9858C40.538 11.1619 40.869 11.25 41.2695 11.25ZM46.9574 3.27273V12H45.9517V3.27273H46.9574ZM52.3107 12V3.27273H55.2596C55.9442 3.27273 56.5039 3.39631 56.9386 3.64347C57.3761 3.88778 57.6999 4.21875 57.9102 4.63636C58.1204 5.05398 58.2255 5.51989 58.2255 6.03409C58.2255 6.5483 58.1204 7.01562 57.9102 7.43608C57.7028 7.85653 57.3817 8.19176 56.9471 8.44176C56.5124 8.68892 55.9556 8.8125 55.2766 8.8125H53.163V7.875H55.2425C55.7113 7.875 56.0877 7.79403 56.3718 7.6321C56.6559 7.47017 56.8619 7.25142 56.9897 6.97585C57.1204 6.69744 57.1857 6.38352 57.1857 6.03409C57.1857 5.68466 57.1204 5.37216 56.9897 5.09659C56.8619 4.82102 56.6545 4.60511 56.3675 4.44886C56.0806 4.28977 55.6999 4.21023 55.2255 4.21023H53.3675V12H52.3107ZM62.3803 12.1364C61.7894 12.1364 61.271 11.9957 60.8249 11.7145C60.3817 11.4332 60.0352 11.0398 59.7852 10.5341C59.538 10.0284 59.4144 9.4375 59.4144 8.76136C59.4144 8.07955 59.538 7.48437 59.7852 6.97585C60.0352 6.46733 60.3817 6.07244 60.8249 5.79119C61.271 5.50994 61.7894 5.36932 62.3803 5.36932C62.9712 5.36932 63.4883 5.50994 63.9315 5.79119C64.3775 6.07244 64.7241 6.46733 64.9712 6.97585C65.2212 7.48437 65.3462 8.07955 65.3462 8.76136C65.3462 9.4375 65.2212 10.0284 64.9712 10.5341C64.7241 11.0398 64.3775 11.4332 63.9315 11.7145C63.4883 11.9957 62.9712 12.1364 62.3803 12.1364ZM62.3803 11.233C62.8292 11.233 63.1985 11.1179 63.4883 10.8878C63.7781 10.6577 63.9925 10.3551 64.1317 9.98011C64.271 9.60511 64.3406 9.19886 64.3406 8.76136C64.3406 8.32386 64.271 7.91619 64.1317 7.53835C63.9925 7.16051 63.7781 6.85511 63.4883 6.62216C63.1985 6.3892 62.8292 6.27273 62.3803 6.27273C61.9315 6.27273 61.5621 6.3892 61.2724 6.62216C60.9826 6.85511 60.7681 7.16051 60.6289 7.53835C60.4897 7.91619 60.4201 8.32386 60.4201 8.76136C60.4201 9.19886 60.4897 9.60511 60.6289 9.98011C60.7681 10.3551 60.9826 10.6577 61.2724 10.8878C61.5621 11.1179 61.9315 11.233 62.3803 11.233ZM71.5178 6.92045L70.6143 7.17614C70.5575 7.02557 70.4737 6.87926 70.3629 6.73722C70.255 6.59233 70.1072 6.47301 69.9197 6.37926C69.7322 6.28551 69.4922 6.23864 69.1996 6.23864C68.799 6.23864 68.4652 6.33097 68.1982 6.51562C67.9339 6.69744 67.8018 6.92898 67.8018 7.21023C67.8018 7.46023 67.8928 7.65767 68.0746 7.80256C68.2564 7.94744 68.5405 8.06818 68.9268 8.16477L69.8984 8.40341C70.4837 8.54545 70.9197 8.76278 71.2067 9.0554C71.4936 9.34517 71.6371 9.71875 71.6371 10.1761C71.6371 10.5511 71.5291 10.8864 71.3132 11.1818C71.1001 11.4773 70.8018 11.7102 70.4183 11.8807C70.0348 12.0511 69.5888 12.1364 69.0803 12.1364C68.4126 12.1364 67.8601 11.9915 67.4226 11.7017C66.9851 11.4119 66.7081 10.9886 66.5916 10.4318L67.5462 10.1932C67.6371 10.5455 67.8089 10.8097 68.0618 10.9858C68.3175 11.1619 68.6513 11.25 69.0632 11.25C69.532 11.25 69.9041 11.1506 70.1797 10.9517C70.4581 10.75 70.5973 10.5085 70.5973 10.2273C70.5973 10 70.5178 9.80966 70.3587 9.65625C70.1996 9.5 69.9553 9.38352 69.6257 9.30682L68.5348 9.05114C67.9354 8.90909 67.495 8.68892 67.2138 8.39062C66.9354 8.08949 66.7962 7.71307 66.7962 7.26136C66.7962 6.89205 66.8999 6.56534 67.1072 6.28125C67.3175 5.99716 67.603 5.77415 67.9638 5.61222C68.3274 5.45028 68.7393 5.36932 69.1996 5.36932C69.8473 5.36932 70.3558 5.51136 70.7251 5.79545C71.0973 6.07955 71.3615 6.45455 71.5178 6.92045ZM73.1509 12V5.45455H74.1566V12H73.1509ZM73.6623 4.36364C73.4663 4.36364 73.2972 4.29688 73.1552 4.16335C73.016 4.02983 72.9464 3.86932 72.9464 3.68182C72.9464 3.49432 73.016 3.33381 73.1552 3.20028C73.2972 3.06676 73.4663 3 73.6623 3C73.8583 3 74.0259 3.06676 74.1651 3.20028C74.3072 3.33381 74.3782 3.49432 74.3782 3.68182C74.3782 3.86932 74.3072 4.02983 74.1651 4.16335C74.0259 4.29688 73.8583 4.36364 73.6623 4.36364ZM78.8452 5.45455V6.30682H75.4531V5.45455H78.8452ZM76.4418 3.88636H77.4474V10.125C77.4474 10.4091 77.4886 10.6222 77.571 10.7642C77.6563 10.9034 77.7642 10.9972 77.8949 11.0455C78.0284 11.0909 78.169 11.1136 78.3168 11.1136C78.4276 11.1136 78.5185 11.108 78.5895 11.0966C78.6605 11.0824 78.7173 11.071 78.7599 11.0625L78.9645 11.9659C78.8963 11.9915 78.8011 12.017 78.679 12.0426C78.5568 12.071 78.402 12.0852 78.2145 12.0852C77.9304 12.0852 77.652 12.0241 77.3793 11.902C77.1094 11.7798 76.8849 11.5938 76.706 11.3438C76.5298 11.0938 76.4418 10.7784 76.4418 10.3977V3.88636ZM80.358 12V5.45455H81.3636V12H80.358ZM80.8693 4.36364C80.6733 4.36364 80.5043 4.29688 80.3622 4.16335C80.223 4.02983 80.1534 3.86932 80.1534 3.68182C80.1534 3.49432 80.223 3.33381 80.3622 3.20028C80.5043 3.06676 80.6733 3 80.8693 3C81.0653 3 81.233 3.06676 81.3722 3.20028C81.5142 3.33381 81.5852 3.49432 81.5852 3.68182C81.5852 3.86932 81.5142 4.02983 81.3722 4.16335C81.233 4.29688 81.0653 4.36364 80.8693 4.36364ZM88.5579 5.45455L86.1374 12H85.1147L82.6942 5.45455H83.7852L85.592 10.6705H85.6602L87.467 5.45455H88.5579ZM92.3952 12.1364C91.7646 12.1364 91.2205 11.9972 90.7631 11.7188C90.3086 11.4375 89.9577 11.0455 89.7106 10.5426C89.4663 10.0369 89.3441 9.44886 89.3441 8.77841C89.3441 8.10795 89.4663 7.51705 89.7106 7.00568C89.9577 6.49148 90.3015 6.09091 90.7418 5.80398C91.185 5.5142 91.7021 5.36932 92.293 5.36932C92.6339 5.36932 92.9705 5.42614 93.3029 5.53977C93.6353 5.65341 93.9379 5.83807 94.2106 6.09375C94.4833 6.34659 94.7006 6.68182 94.8626 7.09943C95.0245 7.51705 95.1055 8.03125 95.1055 8.64205V9.06818H90.06V8.19886H94.0827C94.0827 7.82955 94.0089 7.5 93.8612 7.21023C93.7163 6.92045 93.5089 6.69176 93.239 6.52415C92.9719 6.35653 92.6566 6.27273 92.293 6.27273C91.8924 6.27273 91.5458 6.37216 91.2532 6.57102C90.9634 6.76705 90.7404 7.02273 90.5842 7.33807C90.4279 7.65341 90.3498 7.99148 90.3498 8.35227V8.93182C90.3498 9.42614 90.435 9.84517 90.6055 10.1889C90.7788 10.5298 91.0188 10.7898 91.3256 10.9688C91.6325 11.1449 91.989 11.233 92.3952 11.233C92.6594 11.233 92.8981 11.196 93.1112 11.1222C93.3271 11.0455 93.5131 10.9318 93.6694 10.7812C93.8256 10.6278 93.9464 10.4375 94.0316 10.2102L95.0032 10.483C94.9009 10.8125 94.729 11.1023 94.4876 11.3523C94.2461 11.5994 93.9478 11.7926 93.5927 11.9318C93.2376 12.0682 92.8384 12.1364 92.3952 12.1364ZM101.272 6.92045L100.368 7.17614C100.311 7.02557 100.228 6.87926 100.117 6.73722C100.009 6.59233 99.8612 6.47301 99.6737 6.37926C99.4862 6.28551 99.2461 6.23864 98.9535 6.23864C98.5529 6.23864 98.2191 6.33097 97.9521 6.51562C97.6879 6.69744 97.5558 6.92898 97.5558 7.21023C97.5558 7.46023 97.6467 7.65767 97.8285 7.80256C98.0103 7.94744 98.2944 8.06818 98.6808 8.16477L99.6523 8.40341C100.238 8.54545 100.674 8.76278 100.961 9.0554C101.248 9.34517 101.391 9.71875 101.391 10.1761C101.391 10.5511 101.283 10.8864 101.067 11.1818C100.854 11.4773 100.556 11.7102 100.172 11.8807C99.7887 12.0511 99.3427 12.1364 98.8342 12.1364C98.1665 12.1364 97.614 11.9915 97.1765 11.7017C96.739 11.4119 96.462 10.9886 96.3455 10.4318L97.3001 10.1932C97.391 10.5455 97.5629 10.8097 97.8157 10.9858C98.0714 11.1619 98.4052 11.25 98.8171 11.25C99.2859 11.25 99.658 11.1506 99.9336 10.9517C100.212 10.75 100.351 10.5085 100.351 10.2273C100.351 10 100.272 9.80966 100.113 9.65625C99.9535 9.5 99.7092 9.38352 99.3796 9.30682L98.2887 9.05114C97.6893 8.90909 97.2489 8.68892 96.9677 8.39062C96.6893 8.08949 96.5501 7.71307 96.5501 7.26136C96.5501 6.89205 96.6538 6.56534 96.8612 6.28125C97.0714 5.99716 97.3569 5.77415 97.7177 5.61222C98.0813 5.45028 98.4933 5.36932 98.9535 5.36932C99.6012 5.36932 100.11 5.51136 100.479 5.79545C100.851 6.07955 101.115 6.45455 101.272 6.92045ZM111.189 5.45455C111.138 5.02273 110.93 4.6875 110.567 4.44886C110.203 4.21023 109.757 4.09091 109.229 4.09091C108.842 4.09091 108.504 4.15341 108.214 4.27841C107.928 4.40341 107.703 4.57528 107.541 4.79403C107.382 5.01278 107.303 5.26136 107.303 5.53977C107.303 5.77273 107.358 5.97301 107.469 6.14062C107.582 6.3054 107.727 6.44318 107.903 6.55398C108.08 6.66193 108.264 6.75142 108.457 6.82244C108.651 6.89062 108.828 6.94602 108.99 6.98864L109.876 7.22727C110.104 7.28693 110.357 7.36932 110.635 7.47443C110.916 7.57955 111.185 7.72301 111.44 7.90483C111.699 8.08381 111.912 8.31392 112.08 8.59517C112.247 8.87642 112.331 9.22159 112.331 9.63068C112.331 10.1023 112.207 10.5284 111.96 10.9091C111.716 11.2898 111.358 11.5923 110.886 11.8168C110.418 12.0412 109.848 12.1534 109.178 12.1534C108.553 12.1534 108.011 12.0526 107.554 11.8509C107.099 11.6491 106.741 11.3679 106.48 11.0071C106.222 10.6463 106.075 10.2273 106.041 9.75H107.132C107.161 10.0795 107.271 10.3523 107.464 10.5682C107.661 10.7812 107.908 10.9403 108.206 11.0455C108.507 11.1477 108.831 11.1989 109.178 11.1989C109.581 11.1989 109.943 11.1335 110.264 11.0028C110.585 10.8693 110.839 10.6847 111.027 10.4489C111.214 10.2102 111.308 9.93182 111.308 9.61364C111.308 9.32386 111.227 9.08807 111.065 8.90625C110.903 8.72443 110.69 8.5767 110.426 8.46307C110.162 8.34943 109.876 8.25 109.57 8.16477L108.496 7.85795C107.814 7.66193 107.274 7.3821 106.876 7.01847C106.479 6.65483 106.28 6.17898 106.28 5.59091C106.28 5.10227 106.412 4.67614 106.676 4.3125C106.943 3.94602 107.301 3.66193 107.75 3.46023C108.202 3.25568 108.706 3.15341 109.263 3.15341C109.825 3.15341 110.325 3.25426 110.763 3.45597C111.2 3.65483 111.547 3.92756 111.803 4.27415C112.061 4.62074 112.197 5.0142 112.212 5.45455H111.189ZM114.938 8.0625V12H113.932V3.27273H114.938V6.47727H115.023C115.176 6.1392 115.407 5.87074 115.713 5.67188C116.023 5.47017 116.435 5.36932 116.949 5.36932C117.395 5.36932 117.786 5.45881 118.121 5.63778C118.456 5.81392 118.716 6.08523 118.901 6.4517C119.088 6.81534 119.182 7.27841 119.182 7.84091V12H118.176V7.90909C118.176 7.3892 118.042 6.98722 117.772 6.70312C117.505 6.41619 117.134 6.27273 116.659 6.27273C116.33 6.27273 116.034 6.34233 115.773 6.48153C115.515 6.62074 115.31 6.82386 115.159 7.09091C115.012 7.35795 114.938 7.68182 114.938 8.0625ZM123.681 12.1364C123.09 12.1364 122.572 11.9957 122.126 11.7145C121.683 11.4332 121.336 11.0398 121.086 10.5341C120.839 10.0284 120.715 9.4375 120.715 8.76136C120.715 8.07955 120.839 7.48437 121.086 6.97585C121.336 6.46733 121.683 6.07244 122.126 5.79119C122.572 5.50994 123.09 5.36932 123.681 5.36932C124.272 5.36932 124.789 5.50994 125.232 5.79119C125.678 6.07244 126.025 6.46733 126.272 6.97585C126.522 7.48437 126.647 8.07955 126.647 8.76136C126.647 9.4375 126.522 10.0284 126.272 10.5341C126.025 11.0398 125.678 11.4332 125.232 11.7145C124.789 11.9957 124.272 12.1364 123.681 12.1364ZM123.681 11.233C124.13 11.233 124.499 11.1179 124.789 10.8878C125.079 10.6577 125.293 10.3551 125.433 9.98011C125.572 9.60511 125.641 9.19886 125.641 8.76136C125.641 8.32386 125.572 7.91619 125.433 7.53835C125.293 7.16051 125.079 6.85511 124.789 6.62216C124.499 6.3892 124.13 6.27273 123.681 6.27273C123.232 6.27273 122.863 6.3892 122.573 6.62216C122.283 6.85511 122.069 7.16051 121.93 7.53835C121.79 7.91619 121.721 8.32386 121.721 8.76136C121.721 9.19886 121.79 9.60511 121.93 9.98011C122.069 10.3551 122.283 10.6577 122.573 10.8878C122.863 11.1179 123.232 11.233 123.681 11.233ZM128.182 12V5.45455H129.154V6.44318H129.222C129.341 6.11932 129.557 5.85653 129.87 5.65483C130.182 5.45312 130.534 5.35227 130.926 5.35227C131 5.35227 131.093 5.35369 131.203 5.35653C131.314 5.35937 131.398 5.36364 131.455 5.36932V6.39205C131.421 6.38352 131.343 6.37074 131.221 6.35369C131.101 6.33381 130.975 6.32386 130.841 6.32386C130.523 6.32386 130.239 6.39062 129.989 6.52415C129.742 6.65483 129.546 6.83665 129.401 7.0696C129.259 7.29972 129.188 7.5625 129.188 7.85795V12H128.182ZM135.904 5.45455V6.30682H132.512V5.45455H135.904ZM133.5 3.88636H134.506V10.125C134.506 10.4091 134.547 10.6222 134.63 10.7642C134.715 10.9034 134.823 10.9972 134.953 11.0455C135.087 11.0909 135.228 11.1136 135.375 11.1136C135.486 11.1136 135.577 11.108 135.648 11.0966C135.719 11.0824 135.776 11.071 135.819 11.0625L136.023 11.9659C135.955 11.9915 135.86 12.017 135.738 12.0426C135.615 12.071 135.461 12.0852 135.273 12.0852C134.989 12.0852 134.711 12.0241 134.438 11.902C134.168 11.7798 133.944 11.5938 133.765 11.3438C133.588 11.0938 133.5 10.7784 133.5 10.3977V3.88636Z" fill="#888C91"/>
<circle cx="6" cy="36" r="6" fill="#FE0FE2"/>
<path d="M20.5795 32.2102V31.2727H27.125V32.2102H24.3807V40H23.3239V32.2102H20.5795ZM30.3295 40.1364C29.7386 40.1364 29.2202 39.9957 28.7741 39.7145C28.331 39.4332 27.9844 39.0398 27.7344 38.5341C27.4872 38.0284 27.3636 37.4375 27.3636 36.7614C27.3636 36.0795 27.4872 35.4844 27.7344 34.9759C27.9844 34.4673 28.331 34.0724 28.7741 33.7912C29.2202 33.5099 29.7386 33.3693 30.3295 33.3693C30.9205 33.3693 31.4375 33.5099 31.8807 33.7912C32.3267 34.0724 32.6733 34.4673 32.9205 34.9759C33.1705 35.4844 33.2955 36.0795 33.2955 36.7614C33.2955 37.4375 33.1705 38.0284 32.9205 38.5341C32.6733 39.0398 32.3267 39.4332 31.8807 39.7145C31.4375 39.9957 30.9205 40.1364 30.3295 40.1364ZM30.3295 39.233C30.7784 39.233 31.1477 39.1179 31.4375 38.8878C31.7273 38.6577 31.9418 38.3551 32.081 37.9801C32.2202 37.6051 32.2898 37.1989 32.2898 36.7614C32.2898 36.3239 32.2202 35.9162 32.081 35.5384C31.9418 35.1605 31.7273 34.8551 31.4375 34.6222C31.1477 34.3892 30.7784 34.2727 30.3295 34.2727C29.8807 34.2727 29.5114 34.3892 29.2216 34.6222C28.9318 34.8551 28.7173 35.1605 28.5781 35.5384C28.4389 35.9162 28.3693 36.3239 28.3693 36.7614C28.3693 37.1989 28.4389 37.6051 28.5781 37.9801C28.7173 38.3551 28.9318 38.6577 29.2216 38.8878C29.5114 39.1179 29.8807 39.233 30.3295 39.233ZM37.6772 33.4545V34.3068H34.2852V33.4545H37.6772ZM35.2738 31.8864H36.2795V38.125C36.2795 38.4091 36.3207 38.6222 36.4031 38.7642C36.4883 38.9034 36.5962 38.9972 36.7269 39.0455C36.8604 39.0909 37.0011 39.1136 37.1488 39.1136C37.2596 39.1136 37.3505 39.108 37.4215 39.0966C37.4925 39.0824 37.5494 39.071 37.592 39.0625L37.7965 39.9659C37.7283 39.9915 37.6332 40.017 37.511 40.0426C37.3888 40.071 37.234 40.0852 37.0465 40.0852C36.7624 40.0852 36.484 40.0241 36.2113 39.902C35.9414 39.7798 35.717 39.5938 35.538 39.3438C35.3619 39.0938 35.2738 38.7784 35.2738 38.3977V31.8864ZM41.1161 40.1534C40.7013 40.1534 40.3249 40.0753 39.9869 39.919C39.6488 39.7599 39.3803 39.5312 39.1815 39.233C38.9826 38.9318 38.8832 38.5682 38.8832 38.142C38.8832 37.767 38.957 37.4631 39.1048 37.2301C39.2525 36.9943 39.4499 36.8097 39.6971 36.6761C39.9442 36.5426 40.217 36.4432 40.5153 36.3778C40.8164 36.3097 41.119 36.2557 41.4229 36.2159C41.8207 36.1648 42.1431 36.1264 42.3903 36.1009C42.6403 36.0724 42.8221 36.0256 42.9357 35.9602C43.0522 35.8949 43.1104 35.7812 43.1104 35.6193V35.5852C43.1104 35.1648 42.9954 34.8381 42.7653 34.6051C42.538 34.3722 42.1928 34.2557 41.7298 34.2557C41.2496 34.2557 40.8732 34.3608 40.6005 34.571C40.3278 34.7812 40.136 35.0057 40.0252 35.2443L39.0707 34.9034C39.2411 34.5057 39.4684 34.196 39.7525 33.9744C40.0394 33.75 40.3519 33.5937 40.69 33.5057C41.0309 33.4148 41.3661 33.3693 41.6957 33.3693C41.9059 33.3693 42.1474 33.3949 42.4201 33.446C42.6957 33.4943 42.9613 33.5952 43.217 33.7486C43.4755 33.902 43.69 34.1335 43.8604 34.4432C44.0309 34.7528 44.1161 35.1676 44.1161 35.6875V40H43.1104V39.1136H43.0593C42.9911 39.2557 42.8775 39.4077 42.7184 39.5696C42.5593 39.7315 42.3477 39.8693 42.0835 39.983C41.8192 40.0966 41.4968 40.1534 41.1161 40.1534ZM41.2695 39.25C41.6673 39.25 42.0025 39.1719 42.2752 39.0156C42.5508 38.8594 42.7582 38.6577 42.8974 38.4105C43.0394 38.1634 43.1104 37.9034 43.1104 37.6307V36.7102C43.0678 36.7614 42.9741 36.8082 42.8292 36.8509C42.6871 36.8906 42.5224 36.9261 42.3349 36.9574C42.1502 36.9858 41.9698 37.0114 41.7937 37.0341C41.6204 37.054 41.4798 37.071 41.3718 37.0852C41.1104 37.1193 40.8661 37.1747 40.6388 37.2514C40.4144 37.3253 40.2326 37.4375 40.0934 37.5881C39.957 37.7358 39.8888 37.9375 39.8888 38.1932C39.8888 38.5426 40.0181 38.8068 40.2766 38.9858C40.538 39.1619 40.869 39.25 41.2695 39.25ZM46.9574 31.2727V40H45.9517V31.2727H46.9574ZM59.2312 31.2727V40H58.2085L53.4528 33.1477H53.3675V40H52.3107V31.2727H53.3335L58.1062 38.142H58.1914V31.2727H59.2312ZM63.9538 40.1364C63.3232 40.1364 62.7791 39.9972 62.3217 39.7188C61.8672 39.4375 61.5163 39.0455 61.2692 38.5426C61.0249 38.0369 60.9027 37.4489 60.9027 36.7784C60.9027 36.108 61.0249 35.517 61.2692 35.0057C61.5163 34.4915 61.8601 34.0909 62.3004 33.804C62.7436 33.5142 63.2607 33.3693 63.8516 33.3693C64.1925 33.3693 64.5291 33.4261 64.8615 33.5398C65.1939 33.6534 65.4964 33.8381 65.7692 34.0938C66.0419 34.3466 66.2592 34.6818 66.4212 35.0994C66.5831 35.517 66.6641 36.0312 66.6641 36.642V37.0682H61.6186V36.1989H65.6413C65.6413 35.8295 65.5675 35.5 65.4197 35.2102C65.2749 34.9205 65.0675 34.6918 64.7976 34.5241C64.5305 34.3565 64.2152 34.2727 63.8516 34.2727C63.451 34.2727 63.1044 34.3722 62.8118 34.571C62.522 34.767 62.299 35.0227 62.1428 35.3381C61.9865 35.6534 61.9084 35.9915 61.9084 36.3523V36.9318C61.9084 37.4261 61.9936 37.8452 62.1641 38.1889C62.3374 38.5298 62.5774 38.7898 62.8842 38.9688C63.1911 39.1449 63.5476 39.233 63.9538 39.233C64.218 39.233 64.4567 39.196 64.6697 39.1222C64.8857 39.0455 65.0717 38.9318 65.228 38.7812C65.3842 38.6278 65.505 38.4375 65.5902 38.2102L66.5618 38.483C66.4595 38.8125 66.2876 39.1023 66.0462 39.3523C65.8047 39.5994 65.5064 39.7926 65.1513 39.9318C64.7962 40.0682 64.397 40.1364 63.9538 40.1364ZM70.8359 42.5909C70.3501 42.5909 69.9325 42.5284 69.5831 42.4034C69.2337 42.2812 68.9425 42.1193 68.7095 41.9176C68.4794 41.7188 68.2962 41.5057 68.1598 41.2784L68.9609 40.7159C69.0518 40.8352 69.1669 40.9716 69.3061 41.125C69.4453 41.2812 69.6357 41.4162 69.8771 41.5298C70.1214 41.6463 70.4411 41.7045 70.8359 41.7045C71.3643 41.7045 71.8004 41.5767 72.1442 41.321C72.4879 41.0653 72.6598 40.6648 72.6598 40.1193V38.7898H72.5746C72.5007 38.9091 72.3956 39.0568 72.2592 39.233C72.1257 39.4062 71.9325 39.5611 71.6797 39.6974C71.4297 39.831 71.0916 39.8977 70.6655 39.8977C70.1371 39.8977 69.6626 39.7727 69.2422 39.5227C68.8246 39.2727 68.4936 38.9091 68.2493 38.4318C68.0078 37.9545 67.8871 37.375 67.8871 36.6932C67.8871 36.0227 68.005 35.4389 68.2408 34.9418C68.4766 34.4418 68.8047 34.0554 69.2251 33.7827C69.6456 33.5071 70.1314 33.3693 70.6825 33.3693C71.1087 33.3693 71.4467 33.4403 71.6967 33.5824C71.9496 33.7216 72.1428 33.8807 72.2763 34.0597C72.4126 34.2358 72.5178 34.3807 72.5916 34.4943H72.6939V33.4545H73.6655V40.1875C73.6655 40.75 73.5376 41.2074 73.282 41.5597C73.0291 41.9148 72.6882 42.1747 72.2592 42.3395C71.8331 42.5071 71.3587 42.5909 70.8359 42.5909ZM70.8018 38.9943C71.2053 38.9943 71.5462 38.902 71.8246 38.7173C72.103 38.5327 72.3146 38.267 72.4595 37.9205C72.6044 37.5739 72.6768 37.1591 72.6768 36.6761C72.6768 36.2045 72.6058 35.7884 72.4638 35.4276C72.3217 35.0668 72.1115 34.7841 71.8331 34.5795C71.5547 34.375 71.2109 34.2727 70.8018 34.2727C70.3757 34.2727 70.0206 34.3807 69.7365 34.5966C69.4553 34.8125 69.2436 35.1023 69.1016 35.4659C68.9624 35.8295 68.8928 36.233 68.8928 36.6761C68.8928 37.1307 68.9638 37.5327 69.1058 37.8821C69.2507 38.2287 69.4638 38.5014 69.745 38.7003C70.0291 38.8963 70.3814 38.9943 70.8018 38.9943ZM77.4325 40.1534C77.0178 40.1534 76.6413 40.0753 76.3033 39.919C75.9652 39.7599 75.6967 39.5312 75.4979 39.233C75.299 38.9318 75.1996 38.5682 75.1996 38.142C75.1996 37.767 75.2734 37.4631 75.4212 37.2301C75.5689 36.9943 75.7663 36.8097 76.0135 36.6761C76.2607 36.5426 76.5334 36.4432 76.8317 36.3778C77.1328 36.3097 77.4354 36.2557 77.7393 36.2159C78.1371 36.1648 78.4595 36.1264 78.7067 36.1009C78.9567 36.0724 79.1385 36.0256 79.2521 35.9602C79.3686 35.8949 79.4268 35.7812 79.4268 35.6193V35.5852C79.4268 35.1648 79.3118 34.8381 79.0817 34.6051C78.8544 34.3722 78.5092 34.2557 78.0462 34.2557C77.5661 34.2557 77.1896 34.3608 76.9169 34.571C76.6442 34.7812 76.4524 35.0057 76.3416 35.2443L75.3871 34.9034C75.5575 34.5057 75.7848 34.196 76.0689 33.9744C76.3558 33.75 76.6683 33.5937 77.0064 33.5057C77.3473 33.4148 77.6825 33.3693 78.0121 33.3693C78.2223 33.3693 78.4638 33.3949 78.7365 33.446C79.0121 33.4943 79.2777 33.5952 79.5334 33.7486C79.7919 33.902 80.0064 34.1335 80.1768 34.4432C80.3473 34.7528 80.4325 35.1676 80.4325 35.6875V40H79.4268V39.1136H79.3757C79.3075 39.2557 79.1939 39.4077 79.0348 39.5696C78.8757 39.7315 78.6641 39.8693 78.3999 39.983C78.1357 40.0966 77.8132 40.1534 77.4325 40.1534ZM77.5859 39.25C77.9837 39.25 78.3189 39.1719 78.5916 39.0156C78.8672 38.8594 79.0746 38.6577 79.2138 38.4105C79.3558 38.1634 79.4268 37.9034 79.4268 37.6307V36.7102C79.3842 36.7614 79.2905 36.8082 79.1456 36.8509C79.0036 36.8906 78.8388 36.9261 78.6513 36.9574C78.4666 36.9858 78.2862 37.0114 78.1101 37.0341C77.9368 37.054 77.7962 37.071 77.6882 37.0852C77.4268 37.1193 77.1825 37.1747 76.9553 37.2514C76.7308 37.3253 76.549 37.4375 76.4098 37.5881C76.2734 37.7358 76.2053 37.9375 76.2053 38.1932C76.2053 38.5426 76.3345 38.8068 76.593 38.9858C76.8544 39.1619 77.1854 39.25 77.5859 39.25ZM85.1147 33.4545V34.3068H81.7227V33.4545H85.1147ZM82.7113 31.8864H83.717V38.125C83.717 38.4091 83.7582 38.6222 83.8406 38.7642C83.9258 38.9034 84.0337 38.9972 84.1644 39.0455C84.2979 39.0909 84.4386 39.1136 84.5863 39.1136C84.6971 39.1136 84.788 39.108 84.859 39.0966C84.93 39.0824 84.9869 39.071 85.0295 39.0625L85.234 39.9659C85.1658 39.9915 85.0707 40.017 84.9485 40.0426C84.8263 40.071 84.6715 40.0852 84.484 40.0852C84.1999 40.0852 83.9215 40.0241 83.6488 39.902C83.3789 39.7798 83.1545 39.5938 82.9755 39.3438C82.7994 39.0938 82.7113 38.7784 82.7113 38.3977V31.8864ZM86.6275 40V33.4545H87.6332V40H86.6275ZM87.1388 32.3636C86.9428 32.3636 86.7738 32.2969 86.6317 32.1634C86.4925 32.0298 86.4229 31.8693 86.4229 31.6818C86.4229 31.4943 86.4925 31.3338 86.6317 31.2003C86.7738 31.0668 86.9428 31 87.1388 31C87.3349 31 87.5025 31.0668 87.6417 31.2003C87.7837 31.3338 87.8548 31.4943 87.8548 31.6818C87.8548 31.8693 87.7837 32.0298 87.6417 32.1634C87.5025 32.2969 87.3349 32.3636 87.1388 32.3636ZM94.8274 33.4545L92.407 40H91.3842L88.9638 33.4545H90.0547L91.8615 38.6705H91.9297L93.7365 33.4545H94.8274ZM98.6648 40.1364C98.0341 40.1364 97.4901 39.9972 97.0327 39.7188C96.5781 39.4375 96.2273 39.0455 95.9801 38.5426C95.7358 38.0369 95.6136 37.4489 95.6136 36.7784C95.6136 36.108 95.7358 35.517 95.9801 35.0057C96.2273 34.4915 96.571 34.0909 97.0114 33.804C97.4545 33.5142 97.9716 33.3693 98.5625 33.3693C98.9034 33.3693 99.2401 33.4261 99.5724 33.5398C99.9048 33.6534 100.207 33.8381 100.48 34.0938C100.753 34.3466 100.97 34.6818 101.132 35.0994C101.294 35.517 101.375 36.0312 101.375 36.642V37.0682H96.3295V36.1989H100.352C100.352 35.8295 100.278 35.5 100.131 35.2102C99.9858 34.9205 99.7784 34.6918 99.5085 34.5241C99.2415 34.3565 98.9261 34.2727 98.5625 34.2727C98.1619 34.2727 97.8153 34.3722 97.5227 34.571C97.233 34.767 97.0099 35.0227 96.8537 35.3381C96.6974 35.6534 96.6193 35.9915 96.6193 36.3523V36.9318C96.6193 37.4261 96.7045 37.8452 96.875 38.1889C97.0483 38.5298 97.2884 38.7898 97.5952 38.9688C97.902 39.1449 98.2585 39.233 98.6648 39.233C98.929 39.233 99.1676 39.196 99.3807 39.1222C99.5966 39.0455 99.7827 38.9318 99.9389 38.7812C100.095 38.6278 100.216 38.4375 100.301 38.2102L101.273 38.483C101.17 38.8125 100.999 39.1023 100.757 39.3523C100.516 39.5994 100.217 39.7926 99.8622 39.9318C99.5071 40.0682 99.108 40.1364 98.6648 40.1364ZM111.189 33.4545C111.138 33.0227 110.93 32.6875 110.567 32.4489C110.203 32.2102 109.757 32.0909 109.229 32.0909C108.842 32.0909 108.504 32.1534 108.214 32.2784C107.928 32.4034 107.703 32.5753 107.541 32.794C107.382 33.0128 107.303 33.2614 107.303 33.5398C107.303 33.7727 107.358 33.973 107.469 34.1406C107.582 34.3054 107.727 34.4432 107.903 34.554C108.08 34.6619 108.264 34.7514 108.457 34.8224C108.651 34.8906 108.828 34.946 108.99 34.9886L109.876 35.2273C110.104 35.2869 110.357 35.3693 110.635 35.4744C110.916 35.5795 111.185 35.723 111.44 35.9048C111.699 36.0838 111.912 36.3139 112.08 36.5952C112.247 36.8764 112.331 37.2216 112.331 37.6307C112.331 38.1023 112.207 38.5284 111.96 38.9091C111.716 39.2898 111.358 39.5923 110.886 39.8168C110.418 40.0412 109.848 40.1534 109.178 40.1534C108.553 40.1534 108.011 40.0526 107.554 39.8509C107.099 39.6491 106.741 39.3679 106.48 39.0071C106.222 38.6463 106.075 38.2273 106.041 37.75H107.132C107.161 38.0795 107.271 38.3523 107.464 38.5682C107.661 38.7812 107.908 38.9403 108.206 39.0455C108.507 39.1477 108.831 39.1989 109.178 39.1989C109.581 39.1989 109.943 39.1335 110.264 39.0028C110.585 38.8693 110.839 38.6847 111.027 38.4489C111.214 38.2102 111.308 37.9318 111.308 37.6136C111.308 37.3239 111.227 37.0881 111.065 36.9062C110.903 36.7244 110.69 36.5767 110.426 36.4631C110.162 36.3494 109.876 36.25 109.57 36.1648L108.496 35.858C107.814 35.6619 107.274 35.3821 106.876 35.0185C106.479 34.6548 106.28 34.179 106.28 33.5909C106.28 33.1023 106.412 32.6761 106.676 32.3125C106.943 31.946 107.301 31.6619 107.75 31.4602C108.202 31.2557 108.706 31.1534 109.263 31.1534C109.825 31.1534 110.325 31.2543 110.763 31.456C111.2 31.6548 111.547 31.9276 111.803 32.2741C112.061 32.6207 112.197 33.0142 112.212 33.4545H111.189ZM114.938 36.0625V40H113.932V31.2727H114.938V34.4773H115.023C115.176 34.1392 115.407 33.8707 115.713 33.6719C116.023 33.4702 116.435 33.3693 116.949 33.3693C117.395 33.3693 117.786 33.4588 118.121 33.6378C118.456 33.8139 118.716 34.0852 118.901 34.4517C119.088 34.8153 119.182 35.2784 119.182 35.8409V40H118.176V35.9091C118.176 35.3892 118.042 34.9872 117.772 34.7031C117.505 34.4162 117.134 34.2727 116.659 34.2727C116.33 34.2727 116.034 34.3423 115.773 34.4815C115.515 34.6207 115.31 34.8239 115.159 35.0909C115.012 35.358 114.938 35.6818 114.938 36.0625ZM123.681 40.1364C123.09 40.1364 122.572 39.9957 122.126 39.7145C121.683 39.4332 121.336 39.0398 121.086 38.5341C120.839 38.0284 120.715 37.4375 120.715 36.7614C120.715 36.0795 120.839 35.4844 121.086 34.9759C121.336 34.4673 121.683 34.0724 122.126 33.7912C122.572 33.5099 123.09 33.3693 123.681 33.3693C124.272 33.3693 124.789 33.5099 125.232 33.7912C125.678 34.0724 126.025 34.4673 126.272 34.9759C126.522 35.4844 126.647 36.0795 126.647 36.7614C126.647 37.4375 126.522 38.0284 126.272 38.5341C126.025 39.0398 125.678 39.4332 125.232 39.7145C124.789 39.9957 124.272 40.1364 123.681 40.1364ZM123.681 39.233C124.13 39.233 124.499 39.1179 124.789 38.8878C125.079 38.6577 125.293 38.3551 125.433 37.9801C125.572 37.6051 125.641 37.1989 125.641 36.7614C125.641 36.3239 125.572 35.9162 125.433 35.5384C125.293 35.1605 125.079 34.8551 124.789 34.6222C124.499 34.3892 124.13 34.2727 123.681 34.2727C123.232 34.2727 122.863 34.3892 122.573 34.6222C122.283 34.8551 122.069 35.1605 121.93 35.5384C121.79 35.9162 121.721 36.3239 121.721 36.7614C121.721 37.1989 121.79 37.6051 121.93 37.9801C122.069 38.3551 122.283 38.6577 122.573 38.8878C122.863 39.1179 123.232 39.233 123.681 39.233ZM128.182 40V33.4545H129.154V34.4432H129.222C129.341 34.1193 129.557 33.8565 129.87 33.6548C130.182 33.4531 130.534 33.3523 130.926 33.3523C131 33.3523 131.093 33.3537 131.203 33.3565C131.314 33.3594 131.398 33.3636 131.455 33.3693V34.392C131.421 34.3835 131.343 34.3707 131.221 34.3537C131.101 34.3338 130.975 34.3239 130.841 34.3239C130.523 34.3239 130.239 34.3906 129.989 34.5241C129.742 34.6548 129.546 34.8366 129.401 35.0696C129.259 35.2997 129.188 35.5625 129.188 35.858V40H128.182ZM135.904 33.4545V34.3068H132.512V33.4545H135.904ZM133.5 31.8864H134.506V38.125C134.506 38.4091 134.547 38.6222 134.63 38.7642C134.715 38.9034 134.823 38.9972 134.953 39.0455C135.087 39.0909 135.228 39.1136 135.375 39.1136C135.486 39.1136 135.577 39.108 135.648 39.0966C135.719 39.0824 135.776 39.071 135.819 39.0625L136.023 39.9659C135.955 39.9915 135.86 40.017 135.738 40.0426C135.615 40.071 135.461 40.0852 135.273 40.0852C134.989 40.0852 134.711 40.0241 134.438 39.902C134.168 39.7798 133.944 39.5938 133.765 39.3438C133.588 39.0938 133.5 38.7784 133.5 38.3977V31.8864Z" fill="#888C91"/>
</svg>
