<svg width="109" height="44" viewBox="0 0 109 44" fill="none" xmlns="http://www.w3.org/2000/svg">
<circle cx="6" cy="8" r="6" fill="#2DD2CE"/>
<path d="M21.0568 12V3.27273H22.1136V11.0625H26.1705V12H21.0568ZM30.3295 12.1364C29.7386 12.1364 29.2202 11.9957 28.7741 11.7145C28.331 11.4332 27.9844 11.0398 27.7344 10.5341C27.4872 10.0284 27.3636 9.4375 27.3636 8.76136C27.3636 8.07955 27.4872 7.48437 27.7344 6.97585C27.9844 6.46733 28.331 6.07244 28.7741 5.79119C29.2202 5.50994 29.7386 5.36932 30.3295 5.36932C30.9205 5.36932 31.4375 5.50994 31.8807 5.79119C32.3267 6.07244 32.6733 6.46733 32.9205 6.97585C33.1705 7.48437 33.2955 8.07955 33.2955 8.76136C33.2955 9.4375 33.1705 10.0284 32.9205 10.5341C32.6733 11.0398 32.3267 11.4332 31.8807 11.7145C31.4375 11.9957 30.9205 12.1364 30.3295 12.1364ZM30.3295 11.233C30.7784 11.233 31.1477 11.1179 31.4375 10.8878C31.7273 10.6577 31.9418 10.3551 32.081 9.98011C32.2202 9.60511 32.2898 9.19886 32.2898 8.76136C32.2898 8.32386 32.2202 7.91619 32.081 7.53835C31.9418 7.16051 31.7273 6.85511 31.4375 6.62216C31.1477 6.3892 30.7784 6.27273 30.3295 6.27273C29.8807 6.27273 29.5114 6.3892 29.2216 6.62216C28.9318 6.85511 28.7173 7.16051 28.5781 7.53835C28.4389 7.91619 28.3693 8.32386 28.3693 8.76136C28.3693 9.19886 28.4389 9.60511 28.5781 9.98011C28.7173 10.3551 28.9318 10.6577 29.2216 10.8878C29.5114 11.1179 29.8807 11.233 30.3295 11.233ZM35.8363 8.0625V12H34.8306V5.45455H35.8022V6.47727H35.8874C36.0408 6.14489 36.2738 5.87784 36.5863 5.67614C36.8988 5.47159 37.3022 5.36932 37.7965 5.36932C38.2397 5.36932 38.6275 5.46023 38.9599 5.64205C39.2923 5.82102 39.5508 6.09375 39.7354 6.46023C39.9201 6.82386 40.0124 7.28409 40.0124 7.84091V12H39.0067V7.90909C39.0067 7.39489 38.8732 6.99432 38.6062 6.70739C38.3391 6.41761 37.9727 6.27273 37.5067 6.27273C37.1857 6.27273 36.8988 6.34233 36.646 6.48153C36.396 6.62074 36.1985 6.82386 36.0536 7.09091C35.9087 7.35795 35.8363 7.68182 35.8363 8.0625ZM44.4922 14.5909C44.0064 14.5909 43.5888 14.5284 43.2393 14.4034C42.8899 14.2812 42.5987 14.1193 42.3658 13.9176C42.1357 13.7188 41.9524 13.5057 41.8161 13.2784L42.6172 12.7159C42.7081 12.8352 42.8232 12.9716 42.9624 13.125C43.1016 13.2812 43.2919 13.4162 43.5334 13.5298C43.7777 13.6463 44.0973 13.7045 44.4922 13.7045C45.0206 13.7045 45.4567 13.5767 45.8004 13.321C46.1442 13.0653 46.3161 12.6648 46.3161 12.1193V10.7898H46.2308C46.157 10.9091 46.0518 11.0568 45.9155 11.233C45.782 11.4062 45.5888 11.5611 45.3359 11.6974C45.0859 11.831 44.7479 11.8977 44.3217 11.8977C43.7933 11.8977 43.3189 11.7727 42.8984 11.5227C42.4808 11.2727 42.1499 10.9091 41.9055 10.4318C41.6641 9.95455 41.5433 9.375 41.5433 8.69318C41.5433 8.02273 41.6612 7.43892 41.897 6.94176C42.1328 6.44176 42.4609 6.0554 42.8814 5.78267C43.3018 5.5071 43.7876 5.36932 44.3388 5.36932C44.7649 5.36932 45.103 5.44034 45.353 5.58239C45.6058 5.72159 45.799 5.88068 45.9325 6.05966C46.0689 6.2358 46.174 6.38068 46.2479 6.49432H46.3501V5.45455H47.3217V12.1875C47.3217 12.75 47.1939 13.2074 46.9382 13.5597C46.6854 13.9148 46.3445 14.1747 45.9155 14.3395C45.4893 14.5071 45.0149 14.5909 44.4922 14.5909ZM44.4581 10.9943C44.8615 10.9943 45.2024 10.902 45.4808 10.7173C45.7592 10.5327 45.9709 10.267 46.1158 9.92045C46.2607 9.57386 46.3331 9.15909 46.3331 8.67614C46.3331 8.20455 46.2621 7.78835 46.12 7.42756C45.978 7.06676 45.7678 6.78409 45.4893 6.57955C45.2109 6.375 44.8672 6.27273 44.4581 6.27273C44.032 6.27273 43.6768 6.38068 43.3928 6.59659C43.1115 6.8125 42.8999 7.10227 42.7578 7.46591C42.6186 7.82955 42.549 8.23295 42.549 8.67614C42.549 9.13068 42.62 9.53267 42.7621 9.8821C42.907 10.2287 43.12 10.5014 43.4013 10.7003C43.6854 10.8963 44.0376 10.9943 44.4581 10.9943ZM53.799 6.92045L52.8956 7.17614C52.8388 7.02557 52.755 6.87926 52.6442 6.73722C52.5362 6.59233 52.3885 6.47301 52.201 6.37926C52.0135 6.28551 51.7734 6.23864 51.4808 6.23864C51.0803 6.23864 50.7464 6.33097 50.4794 6.51562C50.2152 6.69744 50.0831 6.92898 50.0831 7.21023C50.0831 7.46023 50.174 7.65767 50.3558 7.80256C50.5376 7.94744 50.8217 8.06818 51.2081 8.16477L52.1797 8.40341C52.7649 8.54545 53.201 8.76278 53.4879 9.0554C53.7749 9.34517 53.9183 9.71875 53.9183 10.1761C53.9183 10.5511 53.8104 10.8864 53.5945 11.1818C53.3814 11.4773 53.0831 11.7102 52.6996 11.8807C52.3161 12.0511 51.87 12.1364 51.3615 12.1364C50.6939 12.1364 50.1413 11.9915 49.7038 11.7017C49.2663 11.4119 48.9893 10.9886 48.8729 10.4318L49.8274 10.1932C49.9183 10.5455 50.0902 10.8097 50.343 10.9858C50.5987 11.1619 50.9325 11.25 51.3445 11.25C51.8132 11.25 52.1854 11.1506 52.4609 10.9517C52.7393 10.75 52.8786 10.5085 52.8786 10.2273C52.8786 10 52.799 9.80966 52.6399 9.65625C52.4808 9.5 52.2365 9.38352 51.907 9.30682L50.8161 9.05114C50.2166 8.90909 49.7763 8.68892 49.495 8.39062C49.2166 8.08949 49.0774 7.71307 49.0774 7.26136C49.0774 6.89205 49.1811 6.56534 49.3885 6.28125C49.5987 5.99716 49.8842 5.77415 50.245 5.61222C50.6087 5.45028 51.0206 5.36932 51.4808 5.36932C52.1286 5.36932 52.6371 5.51136 53.0064 5.79545C53.3786 6.07955 53.6428 6.45455 53.799 6.92045Z" fill="#888C91"/>
<circle cx="6" cy="36" r="6" fill="#FE0FE2"/>
<path d="M25.8295 33.4545C25.7784 33.0227 25.571 32.6875 25.2074 32.4489C24.8438 32.2102 24.3977 32.0909 23.8693 32.0909C23.483 32.0909 23.1449 32.1534 22.8551 32.2784C22.5682 32.4034 22.3438 32.5753 22.1818 32.794C22.0227 33.0128 21.9432 33.2614 21.9432 33.5398C21.9432 33.7727 21.9986 33.973 22.1094 34.1406C22.223 34.3054 22.3679 34.4432 22.544 34.554C22.7202 34.6619 22.9048 34.7514 23.098 34.8224C23.2912 34.8906 23.4688 34.946 23.6307 34.9886L24.517 35.2273C24.7443 35.2869 24.9972 35.3693 25.2756 35.4744C25.5568 35.5795 25.8253 35.723 26.081 35.9048C26.3395 36.0838 26.5526 36.3139 26.7202 36.5952C26.8878 36.8764 26.9716 37.2216 26.9716 37.6307C26.9716 38.1023 26.848 38.5284 26.6009 38.9091C26.3565 39.2898 25.9986 39.5923 25.527 39.8168C25.0582 40.0412 24.4886 40.1534 23.8182 40.1534C23.1932 40.1534 22.652 40.0526 22.1946 39.8509C21.7401 39.6491 21.3821 39.3679 21.1207 39.0071C20.8622 38.6463 20.7159 38.2273 20.6818 37.75H21.7727C21.8011 38.0795 21.9119 38.3523 22.1051 38.5682C22.3011 38.7812 22.5483 38.9403 22.8466 39.0455C23.1477 39.1477 23.4716 39.1989 23.8182 39.1989C24.2216 39.1989 24.5838 39.1335 24.9048 39.0028C25.2259 38.8693 25.4801 38.6847 25.6676 38.4489C25.8551 38.2102 25.9489 37.9318 25.9489 37.6136C25.9489 37.3239 25.8679 37.0881 25.706 36.9062C25.544 36.7244 25.331 36.5767 25.0668 36.4631C24.8026 36.3494 24.517 36.25 24.2102 36.1648L23.1364 35.858C22.4545 35.6619 21.9148 35.3821 21.517 35.0185C21.1193 34.6548 20.9205 34.179 20.9205 33.5909C20.9205 33.1023 21.0526 32.6761 21.3168 32.3125C21.5838 31.946 21.9418 31.6619 22.3906 31.4602C22.8423 31.2557 23.3466 31.1534 23.9034 31.1534C24.4659 31.1534 24.9659 31.2543 25.4034 31.456C25.8409 31.6548 26.1875 31.9276 26.4432 32.2741C26.7017 32.6207 26.8381 33.0142 26.8523 33.4545H25.8295ZM29.5785 36.0625V40H28.5728V31.2727H29.5785V34.4773H29.6637C29.8171 34.1392 30.0472 33.8707 30.354 33.6719C30.6637 33.4702 31.0756 33.3693 31.5898 33.3693C32.0359 33.3693 32.4265 33.4588 32.7617 33.6378C33.0969 33.8139 33.3569 34.0852 33.5415 34.4517C33.729 34.8153 33.8228 35.2784 33.8228 35.8409V40H32.8171V35.9091C32.8171 35.3892 32.6822 34.9872 32.4123 34.7031C32.1452 34.4162 31.7745 34.2727 31.3001 34.2727C30.9705 34.2727 30.6751 34.3423 30.4137 34.4815C30.1552 34.6207 29.9506 34.8239 29.8001 35.0909C29.6523 35.358 29.5785 35.6818 29.5785 36.0625ZM38.3217 40.1364C37.7308 40.1364 37.2124 39.9957 36.7663 39.7145C36.3232 39.4332 35.9766 39.0398 35.7266 38.5341C35.4794 38.0284 35.3558 37.4375 35.3558 36.7614C35.3558 36.0795 35.4794 35.4844 35.7266 34.9759C35.9766 34.4673 36.3232 34.0724 36.7663 33.7912C37.2124 33.5099 37.7308 33.3693 38.3217 33.3693C38.9126 33.3693 39.4297 33.5099 39.8729 33.7912C40.3189 34.0724 40.6655 34.4673 40.9126 34.9759C41.1626 35.4844 41.2876 36.0795 41.2876 36.7614C41.2876 37.4375 41.1626 38.0284 40.9126 38.5341C40.6655 39.0398 40.3189 39.4332 39.8729 39.7145C39.4297 39.9957 38.9126 40.1364 38.3217 40.1364ZM38.3217 39.233C38.7706 39.233 39.1399 39.1179 39.4297 38.8878C39.7195 38.6577 39.9339 38.3551 40.0732 37.9801C40.2124 37.6051 40.282 37.1989 40.282 36.7614C40.282 36.3239 40.2124 35.9162 40.0732 35.5384C39.9339 35.1605 39.7195 34.8551 39.4297 34.6222C39.1399 34.3892 38.7706 34.2727 38.3217 34.2727C37.8729 34.2727 37.5036 34.3892 37.2138 34.6222C36.924 34.8551 36.7095 35.1605 36.5703 35.5384C36.4311 35.9162 36.3615 36.3239 36.3615 36.7614C36.3615 37.1989 36.4311 37.6051 36.5703 37.9801C36.7095 38.3551 36.924 38.6577 37.2138 38.8878C37.5036 39.1179 37.8729 39.233 38.3217 39.233ZM42.8228 40V33.4545H43.7944V34.4432H43.8626C43.9819 34.1193 44.1978 33.8565 44.5103 33.6548C44.8228 33.4531 45.1751 33.3523 45.5671 33.3523C45.641 33.3523 45.7333 33.3537 45.8441 33.3565C45.9549 33.3594 46.0387 33.3636 46.0955 33.3693V34.392C46.0614 34.3835 45.9833 34.3707 45.8612 34.3537C45.7418 34.3338 45.6154 34.3239 45.4819 34.3239C45.1637 34.3239 44.8796 34.3906 44.6296 34.5241C44.3825 34.6548 44.1864 34.8366 44.0415 35.0696C43.8995 35.2997 43.8285 35.5625 43.8285 35.858V40H42.8228ZM50.5444 33.4545V34.3068H47.1523V33.4545H50.5444ZM48.141 31.8864H49.1467V38.125C49.1467 38.4091 49.1879 38.6222 49.2702 38.7642C49.3555 38.9034 49.4634 38.9972 49.5941 39.0455C49.7276 39.0909 49.8683 39.1136 50.016 39.1136C50.1268 39.1136 50.2177 39.108 50.2887 39.0966C50.3597 39.0824 50.4165 39.071 50.4592 39.0625L50.6637 39.9659C50.5955 39.9915 50.5004 40.017 50.3782 40.0426C50.256 40.071 50.1012 40.0852 49.9137 40.0852C49.6296 40.0852 49.3512 40.0241 49.0785 39.902C48.8086 39.7798 48.5842 39.5938 48.4052 39.3438C48.229 39.0938 48.141 38.7784 48.141 38.3977V31.8864ZM56.5763 34.9205L55.6729 35.1761C55.6161 35.0256 55.5323 34.8793 55.4215 34.7372C55.3136 34.5923 55.1658 34.473 54.9783 34.3793C54.7908 34.2855 54.5508 34.2386 54.2582 34.2386C53.8576 34.2386 53.5238 34.331 53.2567 34.5156C52.9925 34.6974 52.8604 34.929 52.8604 35.2102C52.8604 35.4602 52.9513 35.6577 53.1332 35.8026C53.315 35.9474 53.5991 36.0682 53.9854 36.1648L54.957 36.4034C55.5423 36.5455 55.9783 36.7628 56.2653 37.0554C56.5522 37.3452 56.6957 37.7187 56.6957 38.1761C56.6957 38.5511 56.5877 38.8864 56.3718 39.1818C56.1587 39.4773 55.8604 39.7102 55.4769 39.8807C55.0934 40.0511 54.6474 40.1364 54.1388 40.1364C53.4712 40.1364 52.9187 39.9915 52.4812 39.7017C52.0437 39.4119 51.7667 38.9886 51.6502 38.4318L52.6048 38.1932C52.6957 38.5455 52.8675 38.8097 53.1204 38.9858C53.3761 39.1619 53.7099 39.25 54.1218 39.25C54.5906 39.25 54.9627 39.1506 55.2383 38.9517C55.5167 38.75 55.6559 38.5085 55.6559 38.2273C55.6559 38 55.5763 37.8097 55.4173 37.6562C55.2582 37.5 55.0138 37.3835 54.6843 37.3068L53.5934 37.0511C52.994 36.9091 52.5536 36.6889 52.2724 36.3906C51.994 36.0895 51.8548 35.7131 51.8548 35.2614C51.8548 34.892 51.9585 34.5653 52.1658 34.2812C52.3761 33.9972 52.6616 33.7741 53.0224 33.6122C53.386 33.4503 53.7979 33.3693 54.2582 33.3693C54.9059 33.3693 55.4144 33.5114 55.7837 33.7955C56.1559 34.0795 56.4201 34.4545 56.5763 34.9205Z" fill="#888C91"/>
</svg>
