<svg width="164" height="164" viewBox="0 0 164 164" fill="none" xmlns="http://www.w3.org/2000/svg">
<circle cx="81.0023" cy="81.4041" r="75.6671" stroke="#EAFAFA" stroke-width="8.51899"/>
<mask id="path-2-inside-1_807_35301" fill="white">
<path d="M81 5.26055C81 2.35523 83.3579 -0.0177954 86.2571 0.170743C100.428 1.09231 114.142 5.72702 126.001 13.651C139.322 22.5514 149.704 35.2018 155.834 50.0026C161.965 64.8035 163.569 81.0899 160.444 96.8023C157.318 112.515 149.604 126.948 138.276 138.276C126.948 149.604 112.515 157.318 96.8023 160.444C81.0899 163.569 64.8035 161.965 50.0026 155.834C35.2018 149.704 22.5514 139.322 13.651 126.001C5.72702 114.142 1.09231 100.428 0.170743 86.2571C-0.0177954 83.3579 2.35523 81 5.26055 81C8.16587 81 10.5007 83.3585 10.7173 86.2558C11.6212 98.3442 15.6313 110.028 22.3989 120.156C30.1433 131.746 41.1506 140.78 54.0289 146.114C66.9072 151.448 81.0782 152.844 94.7497 150.125C108.421 147.405 120.979 140.693 130.836 130.836C140.693 120.979 147.405 108.421 150.125 94.7498C152.844 81.0782 151.448 66.9072 146.114 54.0289C140.78 41.1506 131.746 30.1433 120.156 22.3989C110.028 15.6313 98.3442 11.6212 86.2558 10.7173C83.3585 10.5007 81 8.16587 81 5.26055Z"/>
</mask>
<path d="M81 5.26055C81 2.35523 83.3579 -0.0177954 86.2571 0.170743C100.428 1.09231 114.142 5.72702 126.001 13.651C139.322 22.5514 149.704 35.2018 155.834 50.0026C161.965 64.8035 163.569 81.0899 160.444 96.8023C157.318 112.515 149.604 126.948 138.276 138.276C126.948 149.604 112.515 157.318 96.8023 160.444C81.0899 163.569 64.8035 161.965 50.0026 155.834C35.2018 149.704 22.5514 139.322 13.651 126.001C5.72702 114.142 1.09231 100.428 0.170743 86.2571C-0.0177954 83.3579 2.35523 81 5.26055 81C8.16587 81 10.5007 83.3585 10.7173 86.2558C11.6212 98.3442 15.6313 110.028 22.3989 120.156C30.1433 131.746 41.1506 140.78 54.0289 146.114C66.9072 151.448 81.0782 152.844 94.7497 150.125C108.421 147.405 120.979 140.693 130.836 130.836C140.693 120.979 147.405 108.421 150.125 94.7498C152.844 81.0782 151.448 66.9072 146.114 54.0289C140.78 41.1506 131.746 30.1433 120.156 22.3989C110.028 15.6313 98.3442 11.6212 86.2558 10.7173C83.3585 10.5007 81 8.16587 81 5.26055Z" stroke="#2DD2CE" stroke-width="17.038" stroke-linecap="round" stroke-linejoin="round" mask="url(#path-2-inside-1_807_35301)"/>
<circle cx="81.0008" cy="81.1326" r="56.2383" stroke="#FFE6FC" stroke-width="8.51899"/>
<mask id="path-4-inside-2_807_35301" fill="white">
<path d="M54.8944 31.4013C53.6425 29.0203 54.5768 26.057 57.0642 25.0328C66.0914 21.3159 75.9115 19.7453 85.7185 20.4815C97.1611 21.3405 108.135 25.3061 117.414 31.9351C126.693 38.5641 133.912 47.5955 138.263 58.02C142.615 68.4445 143.928 79.8515 142.056 90.9664C140.184 102.081 135.2 112.466 127.662 120.961C120.124 129.456 110.329 135.726 99.37 139.07C88.4113 142.414 76.7212 142.701 65.606 139.898C56.1029 137.502 47.34 132.929 40.0229 126.582C37.9744 124.805 38.0442 121.672 40.0146 119.808C41.9343 117.993 44.9402 118.07 46.9559 119.778C53.0231 124.919 60.2346 128.631 68.039 130.598C77.3975 132.958 87.2399 132.716 96.4666 129.901C105.693 127.085 113.941 121.806 120.287 114.654C126.634 107.502 130.83 98.7584 132.406 89.4001C133.982 80.0419 132.876 70.4378 129.213 61.6609C125.549 52.884 119.471 45.2801 111.659 39.6988C103.846 34.1175 94.6068 30.7787 84.9728 30.0555C76.9261 29.4514 68.869 30.6918 61.4295 33.6517C58.9827 34.6252 56.1198 33.7322 54.8944 31.4013Z"/>
</mask>
<path d="M54.8944 31.4013C53.6425 29.0203 54.5768 26.057 57.0642 25.0328C66.0914 21.3159 75.9115 19.7453 85.7185 20.4815C97.1611 21.3405 108.135 25.3061 117.414 31.9351C126.693 38.5641 133.912 47.5955 138.263 58.02C142.615 68.4445 143.928 79.8515 142.056 90.9664C140.184 102.081 135.2 112.466 127.662 120.961C120.124 129.456 110.329 135.726 99.37 139.07C88.4113 142.414 76.7212 142.701 65.606 139.898C56.1029 137.502 47.34 132.929 40.0229 126.582C37.9744 124.805 38.0442 121.672 40.0146 119.808C41.9343 117.993 44.9402 118.07 46.9559 119.778C53.0231 124.919 60.2346 128.631 68.039 130.598C77.3975 132.958 87.2399 132.716 96.4666 129.901C105.693 127.085 113.941 121.806 120.287 114.654C126.634 107.502 130.83 98.7584 132.406 89.4001C133.982 80.0419 132.876 70.4378 129.213 61.6609C125.549 52.884 119.471 45.2801 111.659 39.6988C103.846 34.1175 94.6068 30.7787 84.9728 30.0555C76.9261 29.4514 68.869 30.6918 61.4295 33.6517C58.9827 34.6252 56.1198 33.7322 54.8944 31.4013Z" stroke="#FE0FE2" stroke-width="28.3966" stroke-linecap="round" stroke-linejoin="round" mask="url(#path-4-inside-2_807_35301)"/>
</svg>
