<svg width="16" height="16" viewBox="0 0 16 16" fill="none" xmlns="http://www.w3.org/2000/svg">
<g clip-path="url(#clip0_860_35708)">
<path d="M8.00016 9.9987C9.10473 9.9987 10.0002 9.10327 10.0002 7.9987C10.0002 6.89413 9.10473 5.9987 8.00016 5.9987C6.89559 5.9987 6.00016 6.89413 6.00016 7.9987C6.00016 9.10327 6.89559 9.9987 8.00016 9.9987Z" stroke="#667085" stroke-width="1.5" stroke-linecap="round" stroke-linejoin="round"/>
<path d="M12.485 9.81688C12.4043 9.99968 12.3803 10.2025 12.4159 10.3991C12.4516 10.5957 12.5453 10.7771 12.685 10.9199L12.7214 10.9563C12.8341 11.0688 12.9235 11.2025 12.9845 11.3497C13.0455 11.4968 13.0769 11.6546 13.0769 11.8139C13.0769 11.9731 13.0455 12.1309 12.9845 12.278C12.9235 12.4252 12.8341 12.5589 12.7214 12.6714C12.6088 12.7841 12.4751 12.8735 12.328 12.9345C12.1808 12.9955 12.0231 13.0269 11.8638 13.0269C11.7045 13.0269 11.5468 12.9955 11.3996 12.9345C11.2525 12.8735 11.1188 12.7841 11.0062 12.6714L10.9699 12.6351C10.827 12.4953 10.6456 12.4016 10.449 12.366C10.2524 12.3303 10.0496 12.3544 9.86683 12.4351C9.68758 12.5119 9.5347 12.6395 9.42702 12.8021C9.31933 12.9647 9.26155 13.1552 9.26077 13.3502V13.4532C9.26077 13.7747 9.13306 14.083 8.90575 14.3103C8.67843 14.5377 8.37012 14.6654 8.04865 14.6654C7.72717 14.6654 7.41887 14.5377 7.19155 14.3103C6.96423 14.083 6.83653 13.7747 6.83653 13.4532V13.3987C6.83183 13.1981 6.7669 13.0035 6.65017 12.8403C6.53344 12.6771 6.37031 12.5528 6.18198 12.4835C5.99918 12.4029 5.79641 12.3788 5.59981 12.4145C5.4032 12.4501 5.22179 12.5438 5.07895 12.6835L5.04259 12.7199C4.93001 12.8326 4.79633 12.922 4.64918 12.983C4.50203 13.044 4.3443 13.0754 4.18501 13.0754C4.02572 13.0754 3.86799 13.044 3.72084 12.983C3.57369 12.922 3.44001 12.8326 3.32744 12.7199C3.21474 12.6073 3.12533 12.4737 3.06433 12.3265C3.00333 12.1794 2.97194 12.0216 2.97194 11.8623C2.97194 11.703 3.00333 11.5453 3.06433 11.3982C3.12533 11.251 3.21474 11.1173 3.32744 11.0048L3.3638 10.9684C3.50352 10.8256 3.59725 10.6441 3.63289 10.4475C3.66854 10.2509 3.64448 10.0482 3.5638 9.86536C3.48697 9.68611 3.35941 9.53323 3.19681 9.42555C3.03421 9.31787 2.84367 9.26008 2.64865 9.2593H2.54562C2.22414 9.2593 1.91584 9.1316 1.68852 8.90428C1.4612 8.67697 1.3335 8.36866 1.3335 8.04718C1.3335 7.72571 1.4612 7.4174 1.68852 7.19008C1.91584 6.96277 2.22414 6.83506 2.54562 6.83506H2.60016C2.80077 6.83037 2.99532 6.76544 3.15853 6.6487C3.32173 6.53197 3.44605 6.36884 3.51531 6.18052C3.59599 5.99772 3.62006 5.79494 3.58441 5.59834C3.54876 5.40174 3.45503 5.22032 3.31531 5.07749L3.27895 5.04112C3.16625 4.92855 3.07685 4.79487 3.01585 4.64772C2.95485 4.50057 2.92345 4.34284 2.92345 4.18355C2.92345 4.02425 2.95485 3.86653 3.01585 3.71938C3.07685 3.57223 3.16625 3.43854 3.27895 3.32597C3.39152 3.21327 3.52521 3.12387 3.67236 3.06287C3.81951 3.00187 3.97723 2.97047 4.13653 2.97047C4.29582 2.97047 4.45355 3.00187 4.6007 3.06287C4.74785 3.12387 4.88153 3.21327 4.9941 3.32597L5.03047 3.36233C5.1733 3.50205 5.35472 3.59578 5.55132 3.63143C5.74792 3.66708 5.9507 3.64301 6.1335 3.56233H6.18198C6.36124 3.48551 6.51411 3.35794 6.6218 3.19534C6.72948 3.03274 6.78726 2.84221 6.78804 2.64718V2.54415C6.78804 2.22268 6.91575 1.91437 7.14306 1.68705C7.37038 1.45974 7.67869 1.33203 8.00016 1.33203C8.32164 1.33203 8.62995 1.45974 8.85726 1.68705C9.08458 1.91437 9.21228 2.22268 9.21228 2.54415V2.5987C9.21306 2.79372 9.27085 2.98426 9.37853 3.14686C9.48621 3.30946 9.63909 3.43702 9.81835 3.51385C10.0011 3.59453 10.2039 3.61859 10.4005 3.58294C10.5971 3.5473 10.7785 3.45357 10.9214 3.31385L10.9577 3.27749C11.0703 3.16479 11.204 3.07538 11.3511 3.01438C11.4983 2.95338 11.656 2.92199 11.8153 2.92199C11.9746 2.92199 12.1323 2.95338 12.2795 3.01438C12.4266 3.07538 12.5603 3.16479 12.6729 3.27749C12.7856 3.39006 12.875 3.52374 12.936 3.67089C12.997 3.81804 13.0284 3.97577 13.0284 4.13506C13.0284 4.29435 12.997 4.45208 12.936 4.59923C12.875 4.74638 12.7856 4.88006 12.6729 4.99264L12.6365 5.029C12.4968 5.17184 12.4031 5.35325 12.3674 5.54986C12.3318 5.74646 12.3559 5.94923 12.4365 6.13203V6.18052C12.5134 6.35977 12.6409 6.51265 12.8035 6.62033C12.9661 6.72801 13.1567 6.7858 13.3517 6.78658H13.4547C13.7762 6.78658 14.0845 6.91428 14.3118 7.1416C14.5391 7.36892 14.6668 7.67722 14.6668 7.9987C14.6668 8.32017 14.5391 8.62848 14.3118 8.8558C14.0845 9.08311 13.7762 9.21082 13.4547 9.21082H13.4002C13.2051 9.2116 13.0146 9.26938 12.852 9.37707C12.6894 9.48475 12.5618 9.63763 12.485 9.81688Z" stroke="#667085" stroke-width="1.5" stroke-linecap="round" stroke-linejoin="round"/>
</g>
<defs>
<clipPath id="clip0_860_35708">
<rect width="16" height="16" fill="white"/>
</clipPath>
</defs>
</svg>
