<svg width="109" height="44" viewBox="0 0 109 44" fill="none" xmlns="http://www.w3.org/2000/svg">
<circle cx="6" cy="8" r="6" fill="#2DD2CE"/>
<path d="M22.642 12L20.2557 3.27273H21.3295L23.1534 10.3807H23.2386L25.0966 3.27273H26.2898L28.1477 10.3807H28.233L30.0568 3.27273H31.1307L28.7443 12H27.6534L25.7273 5.04545H25.6591L23.733 12H22.642ZM32.3111 12V5.45455H33.3168V12H32.3111ZM32.8224 4.36364C32.6264 4.36364 32.4574 4.29688 32.3153 4.16335C32.1761 4.02983 32.1065 3.86932 32.1065 3.68182C32.1065 3.49432 32.1761 3.33381 32.3153 3.20028C32.4574 3.06676 32.6264 3 32.8224 3C33.0185 3 33.1861 3.06676 33.3253 3.20028C33.4673 3.33381 33.5384 3.49432 33.5384 3.68182C33.5384 3.86932 33.4673 4.02983 33.3253 4.16335C33.1861 4.29688 33.0185 4.36364 32.8224 4.36364ZM36.1644 8.0625V12H35.1587V5.45455H36.1303V6.47727H36.2156C36.369 6.14489 36.6019 5.87784 36.9144 5.67614C37.2269 5.47159 37.6303 5.36932 38.1246 5.36932C38.5678 5.36932 38.9556 5.46023 39.288 5.64205C39.6204 5.82102 39.8789 6.09375 40.0636 6.46023C40.2482 6.82386 40.3406 7.28409 40.3406 7.84091V12H39.3349V7.90909C39.3349 7.39489 39.2013 6.99432 38.9343 6.70739C38.6673 6.41761 38.3008 6.27273 37.8349 6.27273C37.5138 6.27273 37.2269 6.34233 36.9741 6.48153C36.7241 6.62074 36.5266 6.82386 36.3817 7.09091C36.2369 7.35795 36.1644 7.68182 36.1644 8.0625ZM45.6896 12V3.27273H48.6385C49.3203 3.27273 49.88 3.3892 50.3175 3.62216C50.755 3.85227 51.0788 4.16903 51.2891 4.57244C51.4993 4.97585 51.6044 5.43466 51.6044 5.94886C51.6044 6.46307 51.4993 6.91903 51.2891 7.31676C51.0788 7.71449 50.7564 8.02699 50.3217 8.25426C49.8871 8.47869 49.3317 8.59091 48.6555 8.59091H46.2692V7.63636H48.6214C49.0874 7.63636 49.4624 7.56818 49.7464 7.43182C50.0334 7.29545 50.2408 7.10227 50.3686 6.85227C50.4993 6.59943 50.5646 6.2983 50.5646 5.94886C50.5646 5.59943 50.4993 5.29403 50.3686 5.03267C50.2379 4.77131 50.0291 4.5696 49.7422 4.42756C49.4553 4.28267 49.076 4.21023 48.6044 4.21023H46.7464V12H45.6896ZM49.7976 8.07955L51.9453 12H50.718L48.6044 8.07955H49.7976ZM55.1552 12.1534C54.7404 12.1534 54.364 12.0753 54.0259 11.919C53.6879 11.7599 53.4194 11.5312 53.2205 11.233C53.0217 10.9318 52.9222 10.5682 52.9222 10.142C52.9222 9.76705 52.9961 9.46307 53.1438 9.23011C53.2915 8.99432 53.489 8.80966 53.7362 8.67614C53.9833 8.54261 54.256 8.44318 54.5543 8.37784C54.8555 8.30966 55.158 8.25568 55.462 8.21591C55.8597 8.16477 56.1822 8.12642 56.4293 8.10085C56.6793 8.07244 56.8612 8.02557 56.9748 7.96023C57.0913 7.89489 57.1495 7.78125 57.1495 7.61932V7.58523C57.1495 7.16477 57.0344 6.83807 56.8043 6.60511C56.5771 6.37216 56.2319 6.25568 55.7688 6.25568C55.2887 6.25568 54.9123 6.3608 54.6396 6.57102C54.3668 6.78125 54.1751 7.00568 54.0643 7.24432L53.1097 6.90341C53.2802 6.50568 53.5075 6.19602 53.7915 5.97443C54.0785 5.75 54.391 5.59375 54.729 5.50568C55.07 5.41477 55.4052 5.36932 55.7347 5.36932C55.945 5.36932 56.1864 5.39489 56.4592 5.44602C56.7347 5.49432 57.0004 5.59517 57.256 5.74858C57.5146 5.90199 57.729 6.13352 57.8995 6.44318C58.07 6.75284 58.1552 7.16761 58.1552 7.6875V12H57.1495V11.1136H57.0984C57.0302 11.2557 56.9165 11.4077 56.7575 11.5696C56.5984 11.7315 56.3867 11.8693 56.1225 11.983C55.8583 12.0966 55.5359 12.1534 55.1552 12.1534ZM55.3086 11.25C55.7063 11.25 56.0415 11.1719 56.3143 11.0156C56.5898 10.8594 56.7972 10.6577 56.9364 10.4105C57.0785 10.1634 57.1495 9.90341 57.1495 9.63068V8.71023C57.1069 8.76136 57.0131 8.80824 56.8683 8.85085C56.7262 8.89062 56.5614 8.92614 56.3739 8.95739C56.1893 8.9858 56.0089 9.01136 55.8327 9.03409C55.6594 9.05398 55.5188 9.07102 55.4109 9.08523C55.1495 9.11932 54.9052 9.17472 54.6779 9.25142C54.4535 9.32528 54.2717 9.4375 54.1325 9.58807C53.9961 9.7358 53.9279 9.9375 53.9279 10.1932C53.9279 10.5426 54.0572 10.8068 54.3157 10.9858C54.5771 11.1619 54.908 11.25 55.3086 11.25ZM62.8374 5.45455V6.30682H59.4453V5.45455H62.8374ZM60.4339 3.88636H61.4396V10.125C61.4396 10.4091 61.4808 10.6222 61.5632 10.7642C61.6484 10.9034 61.7564 10.9972 61.8871 11.0455C62.0206 11.0909 62.1612 11.1136 62.3089 11.1136C62.4197 11.1136 62.5107 11.108 62.5817 11.0966C62.6527 11.0824 62.7095 11.071 62.7521 11.0625L62.9567 11.9659C62.8885 11.9915 62.7933 12.017 62.6712 12.0426C62.549 12.071 62.3942 12.0852 62.2067 12.0852C61.9226 12.0852 61.6442 12.0241 61.3714 11.902C61.1016 11.7798 60.8771 11.5938 60.6982 11.3438C60.522 11.0938 60.4339 10.7784 60.4339 10.3977V3.88636ZM64.3501 12V5.45455H65.3558V12H64.3501ZM64.8615 4.36364C64.6655 4.36364 64.4964 4.29688 64.3544 4.16335C64.2152 4.02983 64.1456 3.86932 64.1456 3.68182C64.1456 3.49432 64.2152 3.33381 64.3544 3.20028C64.4964 3.06676 64.6655 3 64.8615 3C65.0575 3 65.2251 3.06676 65.3643 3.20028C65.5064 3.33381 65.5774 3.49432 65.5774 3.68182C65.5774 3.86932 65.5064 4.02983 65.3643 4.16335C65.2251 4.29688 65.0575 4.36364 64.8615 4.36364ZM69.8569 12.1364C69.266 12.1364 68.7475 11.9957 68.3015 11.7145C67.8583 11.4332 67.5117 11.0398 67.2617 10.5341C67.0146 10.0284 66.891 9.4375 66.891 8.76136C66.891 8.07955 67.0146 7.48437 67.2617 6.97585C67.5117 6.46733 67.8583 6.07244 68.3015 5.79119C68.7475 5.50994 69.266 5.36932 69.8569 5.36932C70.4478 5.36932 70.9648 5.50994 71.408 5.79119C71.854 6.07244 72.2006 6.46733 72.4478 6.97585C72.6978 7.48437 72.8228 8.07955 72.8228 8.76136C72.8228 9.4375 72.6978 10.0284 72.4478 10.5341C72.2006 11.0398 71.854 11.4332 71.408 11.7145C70.9648 11.9957 70.4478 12.1364 69.8569 12.1364ZM69.8569 11.233C70.3058 11.233 70.6751 11.1179 70.9648 10.8878C71.2546 10.6577 71.4691 10.3551 71.6083 9.98011C71.7475 9.60511 71.8171 9.19886 71.8171 8.76136C71.8171 8.32386 71.7475 7.91619 71.6083 7.53835C71.4691 7.16051 71.2546 6.85511 70.9648 6.62216C70.6751 6.3892 70.3058 6.27273 69.8569 6.27273C69.408 6.27273 69.0387 6.3892 68.7489 6.62216C68.4592 6.85511 68.2447 7.16051 68.1055 7.53835C67.9663 7.91619 67.8967 8.32386 67.8967 8.76136C67.8967 9.19886 67.9663 9.60511 68.1055 9.98011C68.2447 10.3551 68.4592 10.6577 68.7489 10.8878C69.0387 11.1179 69.408 11.233 69.8569 11.233Z" fill="#888C91"/>
<circle cx="6" cy="36" r="6" fill="#FE0FE2"/>
<path d="M21.0568 40V31.2727H22.1136V39.0625H26.1705V40H21.0568ZM30.3295 40.1364C29.7386 40.1364 29.2202 39.9957 28.7741 39.7145C28.331 39.4332 27.9844 39.0398 27.7344 38.5341C27.4872 38.0284 27.3636 37.4375 27.3636 36.7614C27.3636 36.0795 27.4872 35.4844 27.7344 34.9759C27.9844 34.4673 28.331 34.0724 28.7741 33.7912C29.2202 33.5099 29.7386 33.3693 30.3295 33.3693C30.9205 33.3693 31.4375 33.5099 31.8807 33.7912C32.3267 34.0724 32.6733 34.4673 32.9205 34.9759C33.1705 35.4844 33.2955 36.0795 33.2955 36.7614C33.2955 37.4375 33.1705 38.0284 32.9205 38.5341C32.6733 39.0398 32.3267 39.4332 31.8807 39.7145C31.4375 39.9957 30.9205 40.1364 30.3295 40.1364ZM30.3295 39.233C30.7784 39.233 31.1477 39.1179 31.4375 38.8878C31.7273 38.6577 31.9418 38.3551 32.081 37.9801C32.2202 37.6051 32.2898 37.1989 32.2898 36.7614C32.2898 36.3239 32.2202 35.9162 32.081 35.5384C31.9418 35.1605 31.7273 34.8551 31.4375 34.6222C31.1477 34.3892 30.7784 34.2727 30.3295 34.2727C29.8807 34.2727 29.5114 34.3892 29.2216 34.6222C28.9318 34.8551 28.7173 35.1605 28.5781 35.5384C28.4389 35.9162 28.3693 36.3239 28.3693 36.7614C28.3693 37.1989 28.4389 37.6051 28.5781 37.9801C28.7173 38.3551 28.9318 38.6577 29.2216 38.8878C29.5114 39.1179 29.8807 39.233 30.3295 39.233ZM39.467 34.9205L38.5636 35.1761C38.5067 35.0256 38.4229 34.8793 38.3121 34.7372C38.2042 34.5923 38.0565 34.473 37.869 34.3793C37.6815 34.2855 37.4414 34.2386 37.1488 34.2386C36.7482 34.2386 36.4144 34.331 36.1474 34.5156C35.8832 34.6974 35.7511 34.929 35.7511 35.2102C35.7511 35.4602 35.842 35.6577 36.0238 35.8026C36.2056 35.9474 36.4897 36.0682 36.8761 36.1648L37.8477 36.4034C38.4329 36.5455 38.869 36.7628 39.1559 37.0554C39.4428 37.3452 39.5863 37.7187 39.5863 38.1761C39.5863 38.5511 39.4783 38.8864 39.2624 39.1818C39.0494 39.4773 38.7511 39.7102 38.3675 39.8807C37.984 40.0511 37.538 40.1364 37.0295 40.1364C36.3619 40.1364 35.8093 39.9915 35.3718 39.7017C34.9343 39.4119 34.6573 38.9886 34.5408 38.4318L35.4954 38.1932C35.5863 38.5455 35.7582 38.8097 36.011 38.9858C36.2667 39.1619 36.6005 39.25 37.0124 39.25C37.4812 39.25 37.8533 39.1506 38.1289 38.9517C38.4073 38.75 38.5465 38.5085 38.5465 38.2273C38.5465 38 38.467 37.8097 38.3079 37.6562C38.1488 37.5 37.9045 37.3835 37.5749 37.3068L36.484 37.0511C35.8846 36.9091 35.4442 36.6889 35.163 36.3906C34.8846 36.0895 34.7454 35.7131 34.7454 35.2614C34.7454 34.892 34.8491 34.5653 35.0565 34.2812C35.2667 33.9972 35.5522 33.7741 35.913 33.6122C36.2766 33.4503 36.6886 33.3693 37.1488 33.3693C37.7965 33.3693 38.305 33.5114 38.6744 33.7955C39.0465 34.0795 39.3107 34.4545 39.467 34.9205ZM45.7365 34.9205L44.8331 35.1761C44.7763 35.0256 44.6925 34.8793 44.5817 34.7372C44.4737 34.5923 44.326 34.473 44.1385 34.3793C43.951 34.2855 43.7109 34.2386 43.4183 34.2386C43.0178 34.2386 42.6839 34.331 42.4169 34.5156C42.1527 34.6974 42.0206 34.929 42.0206 35.2102C42.0206 35.4602 42.1115 35.6577 42.2933 35.8026C42.4751 35.9474 42.7592 36.0682 43.1456 36.1648L44.1172 36.4034C44.7024 36.5455 45.1385 36.7628 45.4254 37.0554C45.7124 37.3452 45.8558 37.7187 45.8558 38.1761C45.8558 38.5511 45.7479 38.8864 45.532 39.1818C45.3189 39.4773 45.0206 39.7102 44.6371 39.8807C44.2536 40.0511 43.8075 40.1364 43.299 40.1364C42.6314 40.1364 42.0788 39.9915 41.6413 39.7017C41.2038 39.4119 40.9268 38.9886 40.8104 38.4318L41.7649 38.1932C41.8558 38.5455 42.0277 38.8097 42.2805 38.9858C42.5362 39.1619 42.87 39.25 43.282 39.25C43.7507 39.25 44.1229 39.1506 44.3984 38.9517C44.6768 38.75 44.8161 38.5085 44.8161 38.2273C44.8161 38 44.7365 37.8097 44.5774 37.6562C44.4183 37.5 44.174 37.3835 43.8445 37.3068L42.7536 37.0511C42.1541 36.9091 41.7138 36.6889 41.4325 36.3906C41.1541 36.0895 41.0149 35.7131 41.0149 35.2614C41.0149 34.892 41.1186 34.5653 41.326 34.2812C41.5362 33.9972 41.8217 33.7741 42.1825 33.6122C42.5462 33.4503 42.9581 33.3693 43.4183 33.3693C44.0661 33.3693 44.5746 33.5114 44.9439 33.7955C45.3161 34.0795 45.5803 34.4545 45.7365 34.9205ZM50.881 40V31.2727H53.8299C54.5117 31.2727 55.0714 31.3892 55.5089 31.6222C55.9464 31.8523 56.2702 32.169 56.4805 32.5724C56.6907 32.9759 56.7958 33.4347 56.7958 33.9489C56.7958 34.4631 56.6907 34.919 56.4805 35.3168C56.2702 35.7145 55.9478 36.027 55.5131 36.2543C55.0785 36.4787 54.5231 36.5909 53.8469 36.5909H51.4606V35.6364H53.8129C54.2788 35.6364 54.6538 35.5682 54.9379 35.4318C55.2248 35.2955 55.4322 35.1023 55.56 34.8523C55.6907 34.5994 55.756 34.2983 55.756 33.9489C55.756 33.5994 55.6907 33.294 55.56 33.0327C55.4293 32.7713 55.2205 32.5696 54.9336 32.4276C54.6467 32.2827 54.2674 32.2102 53.7958 32.2102H51.9379V40H50.881ZM54.989 36.0795L57.1367 40H55.9094L53.7958 36.0795H54.989ZM60.3466 40.1534C59.9318 40.1534 59.5554 40.0753 59.2173 39.919C58.8793 39.7599 58.6108 39.5312 58.4119 39.233C58.2131 38.9318 58.1136 38.5682 58.1136 38.142C58.1136 37.767 58.1875 37.4631 58.3352 37.2301C58.483 36.9943 58.6804 36.8097 58.9276 36.6761C59.1747 36.5426 59.4474 36.4432 59.7457 36.3778C60.0469 36.3097 60.3494 36.2557 60.6534 36.2159C61.0511 36.1648 61.3736 36.1264 61.6207 36.1009C61.8707 36.0724 62.0526 36.0256 62.1662 35.9602C62.2827 35.8949 62.3409 35.7812 62.3409 35.6193V35.5852C62.3409 35.1648 62.2259 34.8381 61.9957 34.6051C61.7685 34.3722 61.4233 34.2557 60.9602 34.2557C60.4801 34.2557 60.1037 34.3608 59.831 34.571C59.5582 34.7812 59.3665 35.0057 59.2557 35.2443L58.3011 34.9034C58.4716 34.5057 58.6989 34.196 58.983 33.9744C59.2699 33.75 59.5824 33.5937 59.9205 33.5057C60.2614 33.4148 60.5966 33.3693 60.9261 33.3693C61.1364 33.3693 61.3778 33.3949 61.6506 33.446C61.9261 33.4943 62.1918 33.5952 62.4474 33.7486C62.706 33.902 62.9205 34.1335 63.0909 34.4432C63.2614 34.7528 63.3466 35.1676 63.3466 35.6875V40H62.3409V39.1136H62.2898C62.2216 39.2557 62.108 39.4077 61.9489 39.5696C61.7898 39.7315 61.5781 39.8693 61.3139 39.983C61.0497 40.0966 60.7273 40.1534 60.3466 40.1534ZM60.5 39.25C60.8977 39.25 61.233 39.1719 61.5057 39.0156C61.7813 38.8594 61.9886 38.6577 62.1278 38.4105C62.2699 38.1634 62.3409 37.9034 62.3409 37.6307V36.7102C62.2983 36.7614 62.2045 36.8082 62.0597 36.8509C61.9176 36.8906 61.7528 36.9261 61.5653 36.9574C61.3807 36.9858 61.2003 37.0114 61.0241 37.0341C60.8509 37.054 60.7102 37.071 60.6023 37.0852C60.3409 37.1193 60.0966 37.1747 59.8693 37.2514C59.6449 37.3253 59.4631 37.4375 59.3239 37.5881C59.1875 37.7358 59.1193 37.9375 59.1193 38.1932C59.1193 38.5426 59.2486 38.8068 59.5071 38.9858C59.7685 39.1619 60.0994 39.25 60.5 39.25ZM68.0288 33.4545V34.3068H64.6367V33.4545H68.0288ZM65.6254 31.8864H66.631V38.125C66.631 38.4091 66.6722 38.6222 66.7546 38.7642C66.8398 38.9034 66.9478 38.9972 67.0785 39.0455C67.212 39.0909 67.3526 39.1136 67.5004 39.1136C67.6112 39.1136 67.7021 39.108 67.7731 39.0966C67.8441 39.0824 67.9009 39.071 67.9435 39.0625L68.1481 39.9659C68.0799 39.9915 67.9847 40.017 67.8626 40.0426C67.7404 40.071 67.5856 40.0852 67.3981 40.0852C67.114 40.0852 66.8356 40.0241 66.5629 39.902C66.293 39.7798 66.0685 39.5938 65.8896 39.3438C65.7134 39.0938 65.6254 38.7784 65.6254 38.3977V31.8864ZM69.5415 40V33.4545H70.5472V40H69.5415ZM70.0529 32.3636C69.8569 32.3636 69.6879 32.2969 69.5458 32.1634C69.4066 32.0298 69.337 31.8693 69.337 31.6818C69.337 31.4943 69.4066 31.3338 69.5458 31.2003C69.6879 31.0668 69.8569 31 70.0529 31C70.2489 31 70.4165 31.0668 70.5558 31.2003C70.6978 31.3338 70.7688 31.4943 70.7688 31.6818C70.7688 31.8693 70.6978 32.0298 70.5558 32.1634C70.4165 32.2969 70.2489 32.3636 70.0529 32.3636ZM75.0483 40.1364C74.4574 40.1364 73.9389 39.9957 73.4929 39.7145C73.0497 39.4332 72.7031 39.0398 72.4531 38.5341C72.206 38.0284 72.0824 37.4375 72.0824 36.7614C72.0824 36.0795 72.206 35.4844 72.4531 34.9759C72.7031 34.4673 73.0497 34.0724 73.4929 33.7912C73.9389 33.5099 74.4574 33.3693 75.0483 33.3693C75.6392 33.3693 76.1563 33.5099 76.5994 33.7912C77.0455 34.0724 77.392 34.4673 77.6392 34.9759C77.8892 35.4844 78.0142 36.0795 78.0142 36.7614C78.0142 37.4375 77.8892 38.0284 77.6392 38.5341C77.392 39.0398 77.0455 39.4332 76.5994 39.7145C76.1563 39.9957 75.6392 40.1364 75.0483 40.1364ZM75.0483 39.233C75.4972 39.233 75.8665 39.1179 76.1562 38.8878C76.446 38.6577 76.6605 38.3551 76.7997 37.9801C76.9389 37.6051 77.0085 37.1989 77.0085 36.7614C77.0085 36.3239 76.9389 35.9162 76.7997 35.5384C76.6605 35.1605 76.446 34.8551 76.1562 34.6222C75.8665 34.3892 75.4972 34.2727 75.0483 34.2727C74.5994 34.2727 74.2301 34.3892 73.9403 34.6222C73.6506 34.8551 73.4361 35.1605 73.2969 35.5384C73.1577 35.9162 73.0881 36.3239 73.0881 36.7614C73.0881 37.1989 73.1577 37.6051 73.2969 37.9801C73.4361 38.3551 73.6506 38.6577 73.9403 38.8878C74.2301 39.1179 74.5994 39.233 75.0483 39.233Z" fill="#888C91"/>
</svg>
