<svg width="164" height="164" viewBox="0 0 164 164" fill="none" xmlns="http://www.w3.org/2000/svg">
<circle cx="81.002" cy="81.4041" r="75.6671" stroke="#EAFAFA" stroke-width="8.51899"/>
<mask id="path-2-inside-1_807_35294" fill="white">
<path d="M81 5.26055C81 2.35523 83.3579 -0.0177954 86.2571 0.170743C100.428 1.09231 114.142 5.72702 126.001 13.651C139.322 22.5514 149.704 35.2018 155.834 50.0026C161.965 64.8035 163.569 81.0899 160.444 96.8023C157.318 112.515 149.604 126.948 138.276 138.276C126.948 149.604 112.515 157.318 96.8023 160.444C81.0899 163.569 64.8035 161.965 50.0026 155.834C35.2018 149.704 22.5514 139.322 13.651 126.001C5.72702 114.142 1.09231 100.428 0.170743 86.2571C-0.0177954 83.3579 2.35523 81 5.26055 81C8.16587 81 10.5007 83.3585 10.7173 86.2558C11.6212 98.3442 15.6313 110.028 22.3989 120.156C30.1433 131.746 41.1506 140.78 54.0289 146.114C66.9072 151.448 81.0782 152.844 94.7497 150.125C108.421 147.405 120.979 140.693 130.836 130.836C140.693 120.979 147.405 108.421 150.125 94.7498C152.844 81.0782 151.448 66.9072 146.114 54.0289C140.78 41.1506 131.746 30.1433 120.156 22.3989C110.028 15.6313 98.3442 11.6212 86.2558 10.7173C83.3585 10.5007 81 8.16587 81 5.26055Z"/>
</mask>
<path d="M81 5.26055C81 2.35523 83.3579 -0.0177954 86.2571 0.170743C100.428 1.09231 114.142 5.72702 126.001 13.651C139.322 22.5514 149.704 35.2018 155.834 50.0026C161.965 64.8035 163.569 81.0899 160.444 96.8023C157.318 112.515 149.604 126.948 138.276 138.276C126.948 149.604 112.515 157.318 96.8023 160.444C81.0899 163.569 64.8035 161.965 50.0026 155.834C35.2018 149.704 22.5514 139.322 13.651 126.001C5.72702 114.142 1.09231 100.428 0.170743 86.2571C-0.0177954 83.3579 2.35523 81 5.26055 81C8.16587 81 10.5007 83.3585 10.7173 86.2558C11.6212 98.3442 15.6313 110.028 22.3989 120.156C30.1433 131.746 41.1506 140.78 54.0289 146.114C66.9072 151.448 81.0782 152.844 94.7497 150.125C108.421 147.405 120.979 140.693 130.836 130.836C140.693 120.979 147.405 108.421 150.125 94.7498C152.844 81.0782 151.448 66.9072 146.114 54.0289C140.78 41.1506 131.746 30.1433 120.156 22.3989C110.028 15.6313 98.3442 11.6212 86.2558 10.7173C83.3585 10.5007 81 8.16587 81 5.26055Z" stroke="#2DD2CE" stroke-width="17.038" stroke-linecap="round" stroke-linejoin="round" mask="url(#path-2-inside-1_807_35294)"/>
<circle cx="81.0005" cy="81.1326" r="56.2383" stroke="#FFE6FC" stroke-width="8.51899"/>
<mask id="path-4-inside-2_807_35294" fill="white">
<path d="M80.9997 25.1056C80.9997 22.4541 83.1523 20.2857 85.7961 20.4874C92.2803 20.9823 98.6548 22.4783 104.682 24.9291C112.19 27.9822 119.012 32.4571 124.759 38.0984C130.505 43.7398 135.064 50.437 138.174 57.8077C141.284 65.1784 142.884 73.0783 142.884 81.0564C142.884 89.0344 141.284 96.9343 138.174 104.305C135.064 111.676 130.505 118.373 124.759 124.014C119.012 129.656 112.19 134.131 104.682 137.184C98.6548 139.634 92.2803 141.13 85.7961 141.625C83.1523 141.827 80.9997 139.659 80.9997 137.007C80.9997 134.356 83.1535 132.229 85.7941 131.989C90.9927 131.518 96.0989 130.281 100.939 128.313C107.26 125.742 113.004 121.974 117.843 117.225C122.681 112.475 126.519 106.836 129.137 100.631C131.756 94.4248 133.103 87.7734 133.103 81.0564C133.103 74.3393 131.756 67.688 129.137 61.4822C126.519 55.2764 122.681 49.6377 117.843 44.888C113.004 40.1383 107.26 36.3706 100.939 33.8001C96.0989 31.832 90.9927 30.5952 85.7942 30.1236C83.1535 29.884 80.9997 27.7571 80.9997 25.1056Z"/>
</mask>
<path d="M80.9997 25.1056C80.9997 22.4541 83.1523 20.2857 85.7961 20.4874C92.2803 20.9823 98.6548 22.4783 104.682 24.9291C112.19 27.9822 119.012 32.4571 124.759 38.0984C130.505 43.7398 135.064 50.437 138.174 57.8077C141.284 65.1784 142.884 73.0783 142.884 81.0564C142.884 89.0344 141.284 96.9343 138.174 104.305C135.064 111.676 130.505 118.373 124.759 124.014C119.012 129.656 112.19 134.131 104.682 137.184C98.6548 139.634 92.2803 141.13 85.7961 141.625C83.1523 141.827 80.9997 139.659 80.9997 137.007C80.9997 134.356 83.1535 132.229 85.7941 131.989C90.9927 131.518 96.0989 130.281 100.939 128.313C107.26 125.742 113.004 121.974 117.843 117.225C122.681 112.475 126.519 106.836 129.137 100.631C131.756 94.4248 133.103 87.7734 133.103 81.0564C133.103 74.3393 131.756 67.688 129.137 61.4822C126.519 55.2764 122.681 49.6377 117.843 44.888C113.004 40.1383 107.26 36.3706 100.939 33.8001C96.0989 31.832 90.9927 30.5952 85.7942 30.1236C83.1535 29.884 80.9997 27.7571 80.9997 25.1056Z" stroke="#FE0FE2" stroke-width="28.3966" stroke-linecap="round" stroke-linejoin="round" mask="url(#path-4-inside-2_807_35294)"/>
</svg>
